%TF.GenerationSoftware,KiCad,Pcbnew,9.0.6*%
%TF.CreationDate,2025-12-23T12:21:06+09:00*%
%TF.ProjectId,ils,696c732e-6b69-4636-9164-5f7063625858,rev?*%
%TF.SameCoordinates,Original*%
%TF.FileFunction,Legend,Top*%
%TF.FilePolarity,Positive*%
%FSLAX46Y46*%
G04 Gerber Fmt 4.6, Leading zero omitted, Abs format (unit mm)*
G04 Created by KiCad (PCBNEW 9.0.6) date 2025-12-23 12:21:06*
%MOMM*%
%LPD*%
G01*
G04 APERTURE LIST*
G04 Aperture macros list*
%AMRoundRect*
0 Rectangle with rounded corners*
0 $1 Rounding radius*
0 $2 $3 $4 $5 $6 $7 $8 $9 X,Y pos of 4 corners*
0 Add a 4 corners polygon primitive as box body*
4,1,4,$2,$3,$4,$5,$6,$7,$8,$9,$2,$3,0*
0 Add four circle primitives for the rounded corners*
1,1,$1+$1,$2,$3*
1,1,$1+$1,$4,$5*
1,1,$1+$1,$6,$7*
1,1,$1+$1,$8,$9*
0 Add four rect primitives between the rounded corners*
20,1,$1+$1,$2,$3,$4,$5,0*
20,1,$1+$1,$4,$5,$6,$7,0*
20,1,$1+$1,$6,$7,$8,$9,0*
20,1,$1+$1,$8,$9,$2,$3,0*%
G04 Aperture macros list end*
%ADD10C,0.100000*%
%ADD11C,0.120000*%
%ADD12C,0.000000*%
%ADD13RoundRect,0.250000X-0.350000X-0.350000X0.350000X-0.350000X0.350000X0.350000X-0.350000X0.350000X0*%
%ADD14C,1.200000*%
%ADD15RoundRect,0.250000X0.350000X0.350000X-0.350000X0.350000X-0.350000X-0.350000X0.350000X-0.350000X0*%
%ADD16C,3.800000*%
%ADD17C,2.600000*%
%ADD18C,1.600000*%
%ADD19RoundRect,0.250000X-0.550000X-0.550000X0.550000X-0.550000X0.550000X0.550000X-0.550000X0.550000X0*%
%ADD20R,1.700000X1.700000*%
%ADD21C,1.700000*%
%ADD22RoundRect,0.249999X-0.850001X-0.850001X0.850001X-0.850001X0.850001X0.850001X-0.850001X0.850001X0*%
%ADD23C,2.200000*%
%ADD24RoundRect,0.375000X0.375000X-0.625000X0.375000X0.625000X-0.375000X0.625000X-0.375000X-0.625000X0*%
%ADD25RoundRect,0.500000X1.400000X-0.500000X1.400000X0.500000X-1.400000X0.500000X-1.400000X-0.500000X0*%
%ADD26R,2.000000X2.000000*%
%ADD27C,2.000000*%
%ADD28R,1.500000X1.500000*%
%ADD29C,1.500000*%
G04 APERTURE END LIST*
D10*
X174100000Y-122300000D02*
X179100000Y-122300000D01*
X179100000Y-127300000D01*
X174100000Y-127300000D01*
X174100000Y-122300000D01*
G36*
X174100000Y-122300000D02*
G01*
X179100000Y-122300000D01*
X179100000Y-127300000D01*
X174100000Y-127300000D01*
X174100000Y-122300000D01*
G37*
X144080074Y-136742800D02*
X144165789Y-136771371D01*
X144165789Y-136771371D02*
X144308646Y-136771371D01*
X144308646Y-136771371D02*
X144365789Y-136742800D01*
X144365789Y-136742800D02*
X144394360Y-136714228D01*
X144394360Y-136714228D02*
X144422931Y-136657085D01*
X144422931Y-136657085D02*
X144422931Y-136599942D01*
X144422931Y-136599942D02*
X144394360Y-136542800D01*
X144394360Y-136542800D02*
X144365789Y-136514228D01*
X144365789Y-136514228D02*
X144308646Y-136485657D01*
X144308646Y-136485657D02*
X144194360Y-136457085D01*
X144194360Y-136457085D02*
X144137217Y-136428514D01*
X144137217Y-136428514D02*
X144108646Y-136399942D01*
X144108646Y-136399942D02*
X144080074Y-136342800D01*
X144080074Y-136342800D02*
X144080074Y-136285657D01*
X144080074Y-136285657D02*
X144108646Y-136228514D01*
X144108646Y-136228514D02*
X144137217Y-136199942D01*
X144137217Y-136199942D02*
X144194360Y-136171371D01*
X144194360Y-136171371D02*
X144337217Y-136171371D01*
X144337217Y-136171371D02*
X144422931Y-136199942D01*
X144680075Y-136771371D02*
X144680075Y-136171371D01*
X145280074Y-136199942D02*
X145222932Y-136171371D01*
X145222932Y-136171371D02*
X145137217Y-136171371D01*
X145137217Y-136171371D02*
X145051503Y-136199942D01*
X145051503Y-136199942D02*
X144994360Y-136257085D01*
X144994360Y-136257085D02*
X144965789Y-136314228D01*
X144965789Y-136314228D02*
X144937217Y-136428514D01*
X144937217Y-136428514D02*
X144937217Y-136514228D01*
X144937217Y-136514228D02*
X144965789Y-136628514D01*
X144965789Y-136628514D02*
X144994360Y-136685657D01*
X144994360Y-136685657D02*
X145051503Y-136742800D01*
X145051503Y-136742800D02*
X145137217Y-136771371D01*
X145137217Y-136771371D02*
X145194360Y-136771371D01*
X145194360Y-136771371D02*
X145280074Y-136742800D01*
X145280074Y-136742800D02*
X145308646Y-136714228D01*
X145308646Y-136714228D02*
X145308646Y-136514228D01*
X145308646Y-136514228D02*
X145194360Y-136514228D01*
X147144360Y-136171371D02*
X146858646Y-136171371D01*
X146858646Y-136171371D02*
X146830074Y-136457085D01*
X146830074Y-136457085D02*
X146858646Y-136428514D01*
X146858646Y-136428514D02*
X146915789Y-136399942D01*
X146915789Y-136399942D02*
X147058646Y-136399942D01*
X147058646Y-136399942D02*
X147115789Y-136428514D01*
X147115789Y-136428514D02*
X147144360Y-136457085D01*
X147144360Y-136457085D02*
X147172931Y-136514228D01*
X147172931Y-136514228D02*
X147172931Y-136657085D01*
X147172931Y-136657085D02*
X147144360Y-136714228D01*
X147144360Y-136714228D02*
X147115789Y-136742800D01*
X147115789Y-136742800D02*
X147058646Y-136771371D01*
X147058646Y-136771371D02*
X146915789Y-136771371D01*
X146915789Y-136771371D02*
X146858646Y-136742800D01*
X146858646Y-136742800D02*
X146830074Y-136714228D01*
X147344360Y-136171371D02*
X147544360Y-136771371D01*
X147544360Y-136771371D02*
X147744360Y-136171371D01*
X141772931Y-136199942D02*
X141715789Y-136171371D01*
X141715789Y-136171371D02*
X141630074Y-136171371D01*
X141630074Y-136171371D02*
X141544360Y-136199942D01*
X141544360Y-136199942D02*
X141487217Y-136257085D01*
X141487217Y-136257085D02*
X141458646Y-136314228D01*
X141458646Y-136314228D02*
X141430074Y-136428514D01*
X141430074Y-136428514D02*
X141430074Y-136514228D01*
X141430074Y-136514228D02*
X141458646Y-136628514D01*
X141458646Y-136628514D02*
X141487217Y-136685657D01*
X141487217Y-136685657D02*
X141544360Y-136742800D01*
X141544360Y-136742800D02*
X141630074Y-136771371D01*
X141630074Y-136771371D02*
X141687217Y-136771371D01*
X141687217Y-136771371D02*
X141772931Y-136742800D01*
X141772931Y-136742800D02*
X141801503Y-136714228D01*
X141801503Y-136714228D02*
X141801503Y-136514228D01*
X141801503Y-136514228D02*
X141687217Y-136514228D01*
X142058646Y-136771371D02*
X142058646Y-136171371D01*
X142058646Y-136171371D02*
X142401503Y-136771371D01*
X142401503Y-136771371D02*
X142401503Y-136171371D01*
X142687217Y-136771371D02*
X142687217Y-136171371D01*
X142687217Y-136171371D02*
X142830074Y-136171371D01*
X142830074Y-136171371D02*
X142915788Y-136199942D01*
X142915788Y-136199942D02*
X142972931Y-136257085D01*
X142972931Y-136257085D02*
X143001502Y-136314228D01*
X143001502Y-136314228D02*
X143030074Y-136428514D01*
X143030074Y-136428514D02*
X143030074Y-136514228D01*
X143030074Y-136514228D02*
X143001502Y-136628514D01*
X143001502Y-136628514D02*
X142972931Y-136685657D01*
X142972931Y-136685657D02*
X142915788Y-136742800D01*
X142915788Y-136742800D02*
X142830074Y-136771371D01*
X142830074Y-136771371D02*
X142687217Y-136771371D01*
X174349942Y-138977068D02*
X174321371Y-139034211D01*
X174321371Y-139034211D02*
X174321371Y-139119925D01*
X174321371Y-139119925D02*
X174349942Y-139205639D01*
X174349942Y-139205639D02*
X174407085Y-139262782D01*
X174407085Y-139262782D02*
X174464228Y-139291353D01*
X174464228Y-139291353D02*
X174578514Y-139319925D01*
X174578514Y-139319925D02*
X174664228Y-139319925D01*
X174664228Y-139319925D02*
X174778514Y-139291353D01*
X174778514Y-139291353D02*
X174835657Y-139262782D01*
X174835657Y-139262782D02*
X174892800Y-139205639D01*
X174892800Y-139205639D02*
X174921371Y-139119925D01*
X174921371Y-139119925D02*
X174921371Y-139062782D01*
X174921371Y-139062782D02*
X174892800Y-138977068D01*
X174892800Y-138977068D02*
X174864228Y-138948496D01*
X174864228Y-138948496D02*
X174664228Y-138948496D01*
X174664228Y-138948496D02*
X174664228Y-139062782D01*
X174921371Y-138691353D02*
X174321371Y-138691353D01*
X174321371Y-138691353D02*
X174921371Y-138348496D01*
X174921371Y-138348496D02*
X174321371Y-138348496D01*
X174921371Y-138062782D02*
X174321371Y-138062782D01*
X174321371Y-138062782D02*
X174321371Y-137919925D01*
X174321371Y-137919925D02*
X174349942Y-137834211D01*
X174349942Y-137834211D02*
X174407085Y-137777068D01*
X174407085Y-137777068D02*
X174464228Y-137748497D01*
X174464228Y-137748497D02*
X174578514Y-137719925D01*
X174578514Y-137719925D02*
X174664228Y-137719925D01*
X174664228Y-137719925D02*
X174778514Y-137748497D01*
X174778514Y-137748497D02*
X174835657Y-137777068D01*
X174835657Y-137777068D02*
X174892800Y-137834211D01*
X174892800Y-137834211D02*
X174921371Y-137919925D01*
X174921371Y-137919925D02*
X174921371Y-138062782D01*
X174921371Y-136491353D02*
X174321371Y-136491353D01*
X174321371Y-136491353D02*
X174921371Y-136148496D01*
X174921371Y-136148496D02*
X174321371Y-136148496D01*
X174321371Y-135748497D02*
X174321371Y-135634211D01*
X174321371Y-135634211D02*
X174349942Y-135577068D01*
X174349942Y-135577068D02*
X174407085Y-135519925D01*
X174407085Y-135519925D02*
X174521371Y-135491354D01*
X174521371Y-135491354D02*
X174721371Y-135491354D01*
X174721371Y-135491354D02*
X174835657Y-135519925D01*
X174835657Y-135519925D02*
X174892800Y-135577068D01*
X174892800Y-135577068D02*
X174921371Y-135634211D01*
X174921371Y-135634211D02*
X174921371Y-135748497D01*
X174921371Y-135748497D02*
X174892800Y-135805640D01*
X174892800Y-135805640D02*
X174835657Y-135862782D01*
X174835657Y-135862782D02*
X174721371Y-135891354D01*
X174721371Y-135891354D02*
X174521371Y-135891354D01*
X174521371Y-135891354D02*
X174407085Y-135862782D01*
X174407085Y-135862782D02*
X174349942Y-135805640D01*
X174349942Y-135805640D02*
X174321371Y-135748497D01*
X174864228Y-133898496D02*
X174892800Y-133927068D01*
X174892800Y-133927068D02*
X174921371Y-134012782D01*
X174921371Y-134012782D02*
X174921371Y-134069925D01*
X174921371Y-134069925D02*
X174892800Y-134155639D01*
X174892800Y-134155639D02*
X174835657Y-134212782D01*
X174835657Y-134212782D02*
X174778514Y-134241353D01*
X174778514Y-134241353D02*
X174664228Y-134269925D01*
X174664228Y-134269925D02*
X174578514Y-134269925D01*
X174578514Y-134269925D02*
X174464228Y-134241353D01*
X174464228Y-134241353D02*
X174407085Y-134212782D01*
X174407085Y-134212782D02*
X174349942Y-134155639D01*
X174349942Y-134155639D02*
X174321371Y-134069925D01*
X174321371Y-134069925D02*
X174321371Y-134012782D01*
X174321371Y-134012782D02*
X174349942Y-133927068D01*
X174349942Y-133927068D02*
X174378514Y-133898496D01*
X174321371Y-133527068D02*
X174321371Y-133412782D01*
X174321371Y-133412782D02*
X174349942Y-133355639D01*
X174349942Y-133355639D02*
X174407085Y-133298496D01*
X174407085Y-133298496D02*
X174521371Y-133269925D01*
X174521371Y-133269925D02*
X174721371Y-133269925D01*
X174721371Y-133269925D02*
X174835657Y-133298496D01*
X174835657Y-133298496D02*
X174892800Y-133355639D01*
X174892800Y-133355639D02*
X174921371Y-133412782D01*
X174921371Y-133412782D02*
X174921371Y-133527068D01*
X174921371Y-133527068D02*
X174892800Y-133584211D01*
X174892800Y-133584211D02*
X174835657Y-133641353D01*
X174835657Y-133641353D02*
X174721371Y-133669925D01*
X174721371Y-133669925D02*
X174521371Y-133669925D01*
X174521371Y-133669925D02*
X174407085Y-133641353D01*
X174407085Y-133641353D02*
X174349942Y-133584211D01*
X174349942Y-133584211D02*
X174321371Y-133527068D01*
X174921371Y-133012782D02*
X174321371Y-133012782D01*
X174321371Y-133012782D02*
X174749942Y-132812782D01*
X174749942Y-132812782D02*
X174321371Y-132612782D01*
X174321371Y-132612782D02*
X174921371Y-132612782D01*
X174921371Y-131227068D02*
X174921371Y-131569925D01*
X174921371Y-131398496D02*
X174321371Y-131398496D01*
X174321371Y-131398496D02*
X174407085Y-131455639D01*
X174407085Y-131455639D02*
X174464228Y-131512782D01*
X174464228Y-131512782D02*
X174492800Y-131569925D01*
X174378514Y-130998496D02*
X174349942Y-130969924D01*
X174349942Y-130969924D02*
X174321371Y-130912782D01*
X174321371Y-130912782D02*
X174321371Y-130769924D01*
X174321371Y-130769924D02*
X174349942Y-130712782D01*
X174349942Y-130712782D02*
X174378514Y-130684210D01*
X174378514Y-130684210D02*
X174435657Y-130655639D01*
X174435657Y-130655639D02*
X174492800Y-130655639D01*
X174492800Y-130655639D02*
X174578514Y-130684210D01*
X174578514Y-130684210D02*
X174921371Y-131027067D01*
X174921371Y-131027067D02*
X174921371Y-130655639D01*
X174321371Y-130484210D02*
X174921371Y-130284210D01*
X174921371Y-130284210D02*
X174321371Y-130084210D01*
X164350000Y-129765228D02*
X164321428Y-129793800D01*
X164321428Y-129793800D02*
X164235714Y-129822371D01*
X164235714Y-129822371D02*
X164178571Y-129822371D01*
X164178571Y-129822371D02*
X164092857Y-129793800D01*
X164092857Y-129793800D02*
X164035714Y-129736657D01*
X164035714Y-129736657D02*
X164007143Y-129679514D01*
X164007143Y-129679514D02*
X163978571Y-129565228D01*
X163978571Y-129565228D02*
X163978571Y-129479514D01*
X163978571Y-129479514D02*
X164007143Y-129365228D01*
X164007143Y-129365228D02*
X164035714Y-129308085D01*
X164035714Y-129308085D02*
X164092857Y-129250942D01*
X164092857Y-129250942D02*
X164178571Y-129222371D01*
X164178571Y-129222371D02*
X164235714Y-129222371D01*
X164235714Y-129222371D02*
X164321428Y-129250942D01*
X164321428Y-129250942D02*
X164350000Y-129279514D01*
X164864286Y-129222371D02*
X164750000Y-129222371D01*
X164750000Y-129222371D02*
X164692857Y-129250942D01*
X164692857Y-129250942D02*
X164664286Y-129279514D01*
X164664286Y-129279514D02*
X164607143Y-129365228D01*
X164607143Y-129365228D02*
X164578571Y-129479514D01*
X164578571Y-129479514D02*
X164578571Y-129708085D01*
X164578571Y-129708085D02*
X164607143Y-129765228D01*
X164607143Y-129765228D02*
X164635714Y-129793800D01*
X164635714Y-129793800D02*
X164692857Y-129822371D01*
X164692857Y-129822371D02*
X164807143Y-129822371D01*
X164807143Y-129822371D02*
X164864286Y-129793800D01*
X164864286Y-129793800D02*
X164892857Y-129765228D01*
X164892857Y-129765228D02*
X164921428Y-129708085D01*
X164921428Y-129708085D02*
X164921428Y-129565228D01*
X164921428Y-129565228D02*
X164892857Y-129508085D01*
X164892857Y-129508085D02*
X164864286Y-129479514D01*
X164864286Y-129479514D02*
X164807143Y-129450942D01*
X164807143Y-129450942D02*
X164692857Y-129450942D01*
X164692857Y-129450942D02*
X164635714Y-129479514D01*
X164635714Y-129479514D02*
X164607143Y-129508085D01*
X164607143Y-129508085D02*
X164578571Y-129565228D01*
X154650000Y-133415228D02*
X154621428Y-133443800D01*
X154621428Y-133443800D02*
X154535714Y-133472371D01*
X154535714Y-133472371D02*
X154478571Y-133472371D01*
X154478571Y-133472371D02*
X154392857Y-133443800D01*
X154392857Y-133443800D02*
X154335714Y-133386657D01*
X154335714Y-133386657D02*
X154307143Y-133329514D01*
X154307143Y-133329514D02*
X154278571Y-133215228D01*
X154278571Y-133215228D02*
X154278571Y-133129514D01*
X154278571Y-133129514D02*
X154307143Y-133015228D01*
X154307143Y-133015228D02*
X154335714Y-132958085D01*
X154335714Y-132958085D02*
X154392857Y-132900942D01*
X154392857Y-132900942D02*
X154478571Y-132872371D01*
X154478571Y-132872371D02*
X154535714Y-132872371D01*
X154535714Y-132872371D02*
X154621428Y-132900942D01*
X154621428Y-132900942D02*
X154650000Y-132929514D01*
X155192857Y-132872371D02*
X154907143Y-132872371D01*
X154907143Y-132872371D02*
X154878571Y-133158085D01*
X154878571Y-133158085D02*
X154907143Y-133129514D01*
X154907143Y-133129514D02*
X154964286Y-133100942D01*
X154964286Y-133100942D02*
X155107143Y-133100942D01*
X155107143Y-133100942D02*
X155164286Y-133129514D01*
X155164286Y-133129514D02*
X155192857Y-133158085D01*
X155192857Y-133158085D02*
X155221428Y-133215228D01*
X155221428Y-133215228D02*
X155221428Y-133358085D01*
X155221428Y-133358085D02*
X155192857Y-133415228D01*
X155192857Y-133415228D02*
X155164286Y-133443800D01*
X155164286Y-133443800D02*
X155107143Y-133472371D01*
X155107143Y-133472371D02*
X154964286Y-133472371D01*
X154964286Y-133472371D02*
X154907143Y-133443800D01*
X154907143Y-133443800D02*
X154878571Y-133415228D01*
X163787857Y-117722371D02*
X163787857Y-118208085D01*
X163787857Y-118208085D02*
X163816428Y-118265228D01*
X163816428Y-118265228D02*
X163845000Y-118293800D01*
X163845000Y-118293800D02*
X163902142Y-118322371D01*
X163902142Y-118322371D02*
X164016428Y-118322371D01*
X164016428Y-118322371D02*
X164073571Y-118293800D01*
X164073571Y-118293800D02*
X164102142Y-118265228D01*
X164102142Y-118265228D02*
X164130714Y-118208085D01*
X164130714Y-118208085D02*
X164130714Y-117722371D01*
X164387856Y-117779514D02*
X164416428Y-117750942D01*
X164416428Y-117750942D02*
X164473571Y-117722371D01*
X164473571Y-117722371D02*
X164616428Y-117722371D01*
X164616428Y-117722371D02*
X164673571Y-117750942D01*
X164673571Y-117750942D02*
X164702142Y-117779514D01*
X164702142Y-117779514D02*
X164730713Y-117836657D01*
X164730713Y-117836657D02*
X164730713Y-117893800D01*
X164730713Y-117893800D02*
X164702142Y-117979514D01*
X164702142Y-117979514D02*
X164359285Y-118322371D01*
X164359285Y-118322371D02*
X164730713Y-118322371D01*
X171550000Y-117972371D02*
X171350000Y-117686657D01*
X171207143Y-117972371D02*
X171207143Y-117372371D01*
X171207143Y-117372371D02*
X171435714Y-117372371D01*
X171435714Y-117372371D02*
X171492857Y-117400942D01*
X171492857Y-117400942D02*
X171521428Y-117429514D01*
X171521428Y-117429514D02*
X171550000Y-117486657D01*
X171550000Y-117486657D02*
X171550000Y-117572371D01*
X171550000Y-117572371D02*
X171521428Y-117629514D01*
X171521428Y-117629514D02*
X171492857Y-117658085D01*
X171492857Y-117658085D02*
X171435714Y-117686657D01*
X171435714Y-117686657D02*
X171207143Y-117686657D01*
X171778571Y-117429514D02*
X171807143Y-117400942D01*
X171807143Y-117400942D02*
X171864286Y-117372371D01*
X171864286Y-117372371D02*
X172007143Y-117372371D01*
X172007143Y-117372371D02*
X172064286Y-117400942D01*
X172064286Y-117400942D02*
X172092857Y-117429514D01*
X172092857Y-117429514D02*
X172121428Y-117486657D01*
X172121428Y-117486657D02*
X172121428Y-117543800D01*
X172121428Y-117543800D02*
X172092857Y-117629514D01*
X172092857Y-117629514D02*
X171750000Y-117972371D01*
X171750000Y-117972371D02*
X172121428Y-117972371D01*
X150400000Y-139015228D02*
X150371428Y-139043800D01*
X150371428Y-139043800D02*
X150285714Y-139072371D01*
X150285714Y-139072371D02*
X150228571Y-139072371D01*
X150228571Y-139072371D02*
X150142857Y-139043800D01*
X150142857Y-139043800D02*
X150085714Y-138986657D01*
X150085714Y-138986657D02*
X150057143Y-138929514D01*
X150057143Y-138929514D02*
X150028571Y-138815228D01*
X150028571Y-138815228D02*
X150028571Y-138729514D01*
X150028571Y-138729514D02*
X150057143Y-138615228D01*
X150057143Y-138615228D02*
X150085714Y-138558085D01*
X150085714Y-138558085D02*
X150142857Y-138500942D01*
X150142857Y-138500942D02*
X150228571Y-138472371D01*
X150228571Y-138472371D02*
X150285714Y-138472371D01*
X150285714Y-138472371D02*
X150371428Y-138500942D01*
X150371428Y-138500942D02*
X150400000Y-138529514D01*
X150600000Y-138472371D02*
X150971428Y-138472371D01*
X150971428Y-138472371D02*
X150771428Y-138700942D01*
X150771428Y-138700942D02*
X150857143Y-138700942D01*
X150857143Y-138700942D02*
X150914286Y-138729514D01*
X150914286Y-138729514D02*
X150942857Y-138758085D01*
X150942857Y-138758085D02*
X150971428Y-138815228D01*
X150971428Y-138815228D02*
X150971428Y-138958085D01*
X150971428Y-138958085D02*
X150942857Y-139015228D01*
X150942857Y-139015228D02*
X150914286Y-139043800D01*
X150914286Y-139043800D02*
X150857143Y-139072371D01*
X150857143Y-139072371D02*
X150685714Y-139072371D01*
X150685714Y-139072371D02*
X150628571Y-139043800D01*
X150628571Y-139043800D02*
X150600000Y-139015228D01*
X177450000Y-119515228D02*
X177421428Y-119543800D01*
X177421428Y-119543800D02*
X177335714Y-119572371D01*
X177335714Y-119572371D02*
X177278571Y-119572371D01*
X177278571Y-119572371D02*
X177192857Y-119543800D01*
X177192857Y-119543800D02*
X177135714Y-119486657D01*
X177135714Y-119486657D02*
X177107143Y-119429514D01*
X177107143Y-119429514D02*
X177078571Y-119315228D01*
X177078571Y-119315228D02*
X177078571Y-119229514D01*
X177078571Y-119229514D02*
X177107143Y-119115228D01*
X177107143Y-119115228D02*
X177135714Y-119058085D01*
X177135714Y-119058085D02*
X177192857Y-119000942D01*
X177192857Y-119000942D02*
X177278571Y-118972371D01*
X177278571Y-118972371D02*
X177335714Y-118972371D01*
X177335714Y-118972371D02*
X177421428Y-119000942D01*
X177421428Y-119000942D02*
X177450000Y-119029514D01*
X178021428Y-119572371D02*
X177678571Y-119572371D01*
X177850000Y-119572371D02*
X177850000Y-118972371D01*
X177850000Y-118972371D02*
X177792857Y-119058085D01*
X177792857Y-119058085D02*
X177735714Y-119115228D01*
X177735714Y-119115228D02*
X177678571Y-119143800D01*
X139159999Y-138172371D02*
X139159999Y-138600942D01*
X139159999Y-138600942D02*
X139131428Y-138686657D01*
X139131428Y-138686657D02*
X139074285Y-138743800D01*
X139074285Y-138743800D02*
X138988571Y-138772371D01*
X138988571Y-138772371D02*
X138931428Y-138772371D01*
X139417142Y-138229514D02*
X139445714Y-138200942D01*
X139445714Y-138200942D02*
X139502857Y-138172371D01*
X139502857Y-138172371D02*
X139645714Y-138172371D01*
X139645714Y-138172371D02*
X139702857Y-138200942D01*
X139702857Y-138200942D02*
X139731428Y-138229514D01*
X139731428Y-138229514D02*
X139759999Y-138286657D01*
X139759999Y-138286657D02*
X139759999Y-138343800D01*
X139759999Y-138343800D02*
X139731428Y-138429514D01*
X139731428Y-138429514D02*
X139388571Y-138772371D01*
X139388571Y-138772371D02*
X139759999Y-138772371D01*
X154600000Y-140365228D02*
X154571428Y-140393800D01*
X154571428Y-140393800D02*
X154485714Y-140422371D01*
X154485714Y-140422371D02*
X154428571Y-140422371D01*
X154428571Y-140422371D02*
X154342857Y-140393800D01*
X154342857Y-140393800D02*
X154285714Y-140336657D01*
X154285714Y-140336657D02*
X154257143Y-140279514D01*
X154257143Y-140279514D02*
X154228571Y-140165228D01*
X154228571Y-140165228D02*
X154228571Y-140079514D01*
X154228571Y-140079514D02*
X154257143Y-139965228D01*
X154257143Y-139965228D02*
X154285714Y-139908085D01*
X154285714Y-139908085D02*
X154342857Y-139850942D01*
X154342857Y-139850942D02*
X154428571Y-139822371D01*
X154428571Y-139822371D02*
X154485714Y-139822371D01*
X154485714Y-139822371D02*
X154571428Y-139850942D01*
X154571428Y-139850942D02*
X154600000Y-139879514D01*
X155114286Y-140022371D02*
X155114286Y-140422371D01*
X154971428Y-139793800D02*
X154828571Y-140222371D01*
X154828571Y-140222371D02*
X155200000Y-140222371D01*
X174050000Y-111715228D02*
X174021428Y-111743800D01*
X174021428Y-111743800D02*
X173935714Y-111772371D01*
X173935714Y-111772371D02*
X173878571Y-111772371D01*
X173878571Y-111772371D02*
X173792857Y-111743800D01*
X173792857Y-111743800D02*
X173735714Y-111686657D01*
X173735714Y-111686657D02*
X173707143Y-111629514D01*
X173707143Y-111629514D02*
X173678571Y-111515228D01*
X173678571Y-111515228D02*
X173678571Y-111429514D01*
X173678571Y-111429514D02*
X173707143Y-111315228D01*
X173707143Y-111315228D02*
X173735714Y-111258085D01*
X173735714Y-111258085D02*
X173792857Y-111200942D01*
X173792857Y-111200942D02*
X173878571Y-111172371D01*
X173878571Y-111172371D02*
X173935714Y-111172371D01*
X173935714Y-111172371D02*
X174021428Y-111200942D01*
X174021428Y-111200942D02*
X174050000Y-111229514D01*
X174278571Y-111229514D02*
X174307143Y-111200942D01*
X174307143Y-111200942D02*
X174364286Y-111172371D01*
X174364286Y-111172371D02*
X174507143Y-111172371D01*
X174507143Y-111172371D02*
X174564286Y-111200942D01*
X174564286Y-111200942D02*
X174592857Y-111229514D01*
X174592857Y-111229514D02*
X174621428Y-111286657D01*
X174621428Y-111286657D02*
X174621428Y-111343800D01*
X174621428Y-111343800D02*
X174592857Y-111429514D01*
X174592857Y-111429514D02*
X174250000Y-111772371D01*
X174250000Y-111772371D02*
X174621428Y-111772371D01*
X169507143Y-122772371D02*
X169507143Y-122172371D01*
X169507143Y-122172371D02*
X169650000Y-122172371D01*
X169650000Y-122172371D02*
X169735714Y-122200942D01*
X169735714Y-122200942D02*
X169792857Y-122258085D01*
X169792857Y-122258085D02*
X169821428Y-122315228D01*
X169821428Y-122315228D02*
X169850000Y-122429514D01*
X169850000Y-122429514D02*
X169850000Y-122515228D01*
X169850000Y-122515228D02*
X169821428Y-122629514D01*
X169821428Y-122629514D02*
X169792857Y-122686657D01*
X169792857Y-122686657D02*
X169735714Y-122743800D01*
X169735714Y-122743800D02*
X169650000Y-122772371D01*
X169650000Y-122772371D02*
X169507143Y-122772371D01*
X170421428Y-122772371D02*
X170078571Y-122772371D01*
X170250000Y-122772371D02*
X170250000Y-122172371D01*
X170250000Y-122172371D02*
X170192857Y-122258085D01*
X170192857Y-122258085D02*
X170135714Y-122315228D01*
X170135714Y-122315228D02*
X170078571Y-122343800D01*
X164342857Y-122772371D02*
X164342857Y-122172371D01*
X164685714Y-122772371D02*
X164428571Y-122429514D01*
X164685714Y-122172371D02*
X164342857Y-122515228D01*
X161792857Y-121872371D02*
X161792857Y-122358085D01*
X161792857Y-122358085D02*
X161821428Y-122415228D01*
X161821428Y-122415228D02*
X161850000Y-122443800D01*
X161850000Y-122443800D02*
X161907142Y-122472371D01*
X161907142Y-122472371D02*
X162021428Y-122472371D01*
X162021428Y-122472371D02*
X162078571Y-122443800D01*
X162078571Y-122443800D02*
X162107142Y-122415228D01*
X162107142Y-122415228D02*
X162135714Y-122358085D01*
X162135714Y-122358085D02*
X162135714Y-121872371D01*
X162364285Y-121872371D02*
X162735713Y-121872371D01*
X162735713Y-121872371D02*
X162535713Y-122100942D01*
X162535713Y-122100942D02*
X162621428Y-122100942D01*
X162621428Y-122100942D02*
X162678571Y-122129514D01*
X162678571Y-122129514D02*
X162707142Y-122158085D01*
X162707142Y-122158085D02*
X162735713Y-122215228D01*
X162735713Y-122215228D02*
X162735713Y-122358085D01*
X162735713Y-122358085D02*
X162707142Y-122415228D01*
X162707142Y-122415228D02*
X162678571Y-122443800D01*
X162678571Y-122443800D02*
X162621428Y-122472371D01*
X162621428Y-122472371D02*
X162449999Y-122472371D01*
X162449999Y-122472371D02*
X162392856Y-122443800D01*
X162392856Y-122443800D02*
X162364285Y-122415228D01*
X137900000Y-132672371D02*
X137700000Y-132386657D01*
X137557143Y-132672371D02*
X137557143Y-132072371D01*
X137557143Y-132072371D02*
X137785714Y-132072371D01*
X137785714Y-132072371D02*
X137842857Y-132100942D01*
X137842857Y-132100942D02*
X137871428Y-132129514D01*
X137871428Y-132129514D02*
X137900000Y-132186657D01*
X137900000Y-132186657D02*
X137900000Y-132272371D01*
X137900000Y-132272371D02*
X137871428Y-132329514D01*
X137871428Y-132329514D02*
X137842857Y-132358085D01*
X137842857Y-132358085D02*
X137785714Y-132386657D01*
X137785714Y-132386657D02*
X137557143Y-132386657D01*
X138414286Y-132072371D02*
X138300000Y-132072371D01*
X138300000Y-132072371D02*
X138242857Y-132100942D01*
X138242857Y-132100942D02*
X138214286Y-132129514D01*
X138214286Y-132129514D02*
X138157143Y-132215228D01*
X138157143Y-132215228D02*
X138128571Y-132329514D01*
X138128571Y-132329514D02*
X138128571Y-132558085D01*
X138128571Y-132558085D02*
X138157143Y-132615228D01*
X138157143Y-132615228D02*
X138185714Y-132643800D01*
X138185714Y-132643800D02*
X138242857Y-132672371D01*
X138242857Y-132672371D02*
X138357143Y-132672371D01*
X138357143Y-132672371D02*
X138414286Y-132643800D01*
X138414286Y-132643800D02*
X138442857Y-132615228D01*
X138442857Y-132615228D02*
X138471428Y-132558085D01*
X138471428Y-132558085D02*
X138471428Y-132415228D01*
X138471428Y-132415228D02*
X138442857Y-132358085D01*
X138442857Y-132358085D02*
X138414286Y-132329514D01*
X138414286Y-132329514D02*
X138357143Y-132300942D01*
X138357143Y-132300942D02*
X138242857Y-132300942D01*
X138242857Y-132300942D02*
X138185714Y-132329514D01*
X138185714Y-132329514D02*
X138157143Y-132358085D01*
X138157143Y-132358085D02*
X138128571Y-132415228D01*
X150200000Y-117872371D02*
X150000000Y-117586657D01*
X149857143Y-117872371D02*
X149857143Y-117272371D01*
X149857143Y-117272371D02*
X150085714Y-117272371D01*
X150085714Y-117272371D02*
X150142857Y-117300942D01*
X150142857Y-117300942D02*
X150171428Y-117329514D01*
X150171428Y-117329514D02*
X150200000Y-117386657D01*
X150200000Y-117386657D02*
X150200000Y-117472371D01*
X150200000Y-117472371D02*
X150171428Y-117529514D01*
X150171428Y-117529514D02*
X150142857Y-117558085D01*
X150142857Y-117558085D02*
X150085714Y-117586657D01*
X150085714Y-117586657D02*
X149857143Y-117586657D01*
X150771428Y-117872371D02*
X150428571Y-117872371D01*
X150600000Y-117872371D02*
X150600000Y-117272371D01*
X150600000Y-117272371D02*
X150542857Y-117358085D01*
X150542857Y-117358085D02*
X150485714Y-117415228D01*
X150485714Y-117415228D02*
X150428571Y-117443800D01*
X152950000Y-121872371D02*
X152750000Y-121586657D01*
X152607143Y-121872371D02*
X152607143Y-121272371D01*
X152607143Y-121272371D02*
X152835714Y-121272371D01*
X152835714Y-121272371D02*
X152892857Y-121300942D01*
X152892857Y-121300942D02*
X152921428Y-121329514D01*
X152921428Y-121329514D02*
X152950000Y-121386657D01*
X152950000Y-121386657D02*
X152950000Y-121472371D01*
X152950000Y-121472371D02*
X152921428Y-121529514D01*
X152921428Y-121529514D02*
X152892857Y-121558085D01*
X152892857Y-121558085D02*
X152835714Y-121586657D01*
X152835714Y-121586657D02*
X152607143Y-121586657D01*
X153492857Y-121272371D02*
X153207143Y-121272371D01*
X153207143Y-121272371D02*
X153178571Y-121558085D01*
X153178571Y-121558085D02*
X153207143Y-121529514D01*
X153207143Y-121529514D02*
X153264286Y-121500942D01*
X153264286Y-121500942D02*
X153407143Y-121500942D01*
X153407143Y-121500942D02*
X153464286Y-121529514D01*
X153464286Y-121529514D02*
X153492857Y-121558085D01*
X153492857Y-121558085D02*
X153521428Y-121615228D01*
X153521428Y-121615228D02*
X153521428Y-121758085D01*
X153521428Y-121758085D02*
X153492857Y-121815228D01*
X153492857Y-121815228D02*
X153464286Y-121843800D01*
X153464286Y-121843800D02*
X153407143Y-121872371D01*
X153407143Y-121872371D02*
X153264286Y-121872371D01*
X153264286Y-121872371D02*
X153207143Y-121843800D01*
X153207143Y-121843800D02*
X153178571Y-121815228D01*
X137700000Y-134722371D02*
X137500000Y-134436657D01*
X137357143Y-134722371D02*
X137357143Y-134122371D01*
X137357143Y-134122371D02*
X137585714Y-134122371D01*
X137585714Y-134122371D02*
X137642857Y-134150942D01*
X137642857Y-134150942D02*
X137671428Y-134179514D01*
X137671428Y-134179514D02*
X137700000Y-134236657D01*
X137700000Y-134236657D02*
X137700000Y-134322371D01*
X137700000Y-134322371D02*
X137671428Y-134379514D01*
X137671428Y-134379514D02*
X137642857Y-134408085D01*
X137642857Y-134408085D02*
X137585714Y-134436657D01*
X137585714Y-134436657D02*
X137357143Y-134436657D01*
X137900000Y-134122371D02*
X138271428Y-134122371D01*
X138271428Y-134122371D02*
X138071428Y-134350942D01*
X138071428Y-134350942D02*
X138157143Y-134350942D01*
X138157143Y-134350942D02*
X138214286Y-134379514D01*
X138214286Y-134379514D02*
X138242857Y-134408085D01*
X138242857Y-134408085D02*
X138271428Y-134465228D01*
X138271428Y-134465228D02*
X138271428Y-134608085D01*
X138271428Y-134608085D02*
X138242857Y-134665228D01*
X138242857Y-134665228D02*
X138214286Y-134693800D01*
X138214286Y-134693800D02*
X138157143Y-134722371D01*
X138157143Y-134722371D02*
X137985714Y-134722371D01*
X137985714Y-134722371D02*
X137928571Y-134693800D01*
X137928571Y-134693800D02*
X137900000Y-134665228D01*
X169557143Y-124222371D02*
X169557143Y-123622371D01*
X169900000Y-124222371D02*
X169642857Y-123879514D01*
X169900000Y-123622371D02*
X169557143Y-123965228D01*
X170471428Y-124222371D02*
X170128571Y-124222371D01*
X170300000Y-124222371D02*
X170300000Y-123622371D01*
X170300000Y-123622371D02*
X170242857Y-123708085D01*
X170242857Y-123708085D02*
X170185714Y-123765228D01*
X170185714Y-123765228D02*
X170128571Y-123793800D01*
X176699999Y-127972371D02*
X176699999Y-128400942D01*
X176699999Y-128400942D02*
X176671428Y-128486657D01*
X176671428Y-128486657D02*
X176614285Y-128543800D01*
X176614285Y-128543800D02*
X176528571Y-128572371D01*
X176528571Y-128572371D02*
X176471428Y-128572371D01*
X177299999Y-128572371D02*
X176957142Y-128572371D01*
X177128571Y-128572371D02*
X177128571Y-127972371D01*
X177128571Y-127972371D02*
X177071428Y-128058085D01*
X177071428Y-128058085D02*
X177014285Y-128115228D01*
X177014285Y-128115228D02*
X176957142Y-128143800D01*
X134450000Y-132672371D02*
X134250000Y-132386657D01*
X134107143Y-132672371D02*
X134107143Y-132072371D01*
X134107143Y-132072371D02*
X134335714Y-132072371D01*
X134335714Y-132072371D02*
X134392857Y-132100942D01*
X134392857Y-132100942D02*
X134421428Y-132129514D01*
X134421428Y-132129514D02*
X134450000Y-132186657D01*
X134450000Y-132186657D02*
X134450000Y-132272371D01*
X134450000Y-132272371D02*
X134421428Y-132329514D01*
X134421428Y-132329514D02*
X134392857Y-132358085D01*
X134392857Y-132358085D02*
X134335714Y-132386657D01*
X134335714Y-132386657D02*
X134107143Y-132386657D01*
X134792857Y-132329514D02*
X134735714Y-132300942D01*
X134735714Y-132300942D02*
X134707143Y-132272371D01*
X134707143Y-132272371D02*
X134678571Y-132215228D01*
X134678571Y-132215228D02*
X134678571Y-132186657D01*
X134678571Y-132186657D02*
X134707143Y-132129514D01*
X134707143Y-132129514D02*
X134735714Y-132100942D01*
X134735714Y-132100942D02*
X134792857Y-132072371D01*
X134792857Y-132072371D02*
X134907143Y-132072371D01*
X134907143Y-132072371D02*
X134964286Y-132100942D01*
X134964286Y-132100942D02*
X134992857Y-132129514D01*
X134992857Y-132129514D02*
X135021428Y-132186657D01*
X135021428Y-132186657D02*
X135021428Y-132215228D01*
X135021428Y-132215228D02*
X134992857Y-132272371D01*
X134992857Y-132272371D02*
X134964286Y-132300942D01*
X134964286Y-132300942D02*
X134907143Y-132329514D01*
X134907143Y-132329514D02*
X134792857Y-132329514D01*
X134792857Y-132329514D02*
X134735714Y-132358085D01*
X134735714Y-132358085D02*
X134707143Y-132386657D01*
X134707143Y-132386657D02*
X134678571Y-132443800D01*
X134678571Y-132443800D02*
X134678571Y-132558085D01*
X134678571Y-132558085D02*
X134707143Y-132615228D01*
X134707143Y-132615228D02*
X134735714Y-132643800D01*
X134735714Y-132643800D02*
X134792857Y-132672371D01*
X134792857Y-132672371D02*
X134907143Y-132672371D01*
X134907143Y-132672371D02*
X134964286Y-132643800D01*
X134964286Y-132643800D02*
X134992857Y-132615228D01*
X134992857Y-132615228D02*
X135021428Y-132558085D01*
X135021428Y-132558085D02*
X135021428Y-132443800D01*
X135021428Y-132443800D02*
X134992857Y-132386657D01*
X134992857Y-132386657D02*
X134964286Y-132358085D01*
X134964286Y-132358085D02*
X134907143Y-132329514D01*
X151400000Y-115722371D02*
X151200000Y-115436657D01*
X151057143Y-115722371D02*
X151057143Y-115122371D01*
X151057143Y-115122371D02*
X151285714Y-115122371D01*
X151285714Y-115122371D02*
X151342857Y-115150942D01*
X151342857Y-115150942D02*
X151371428Y-115179514D01*
X151371428Y-115179514D02*
X151400000Y-115236657D01*
X151400000Y-115236657D02*
X151400000Y-115322371D01*
X151400000Y-115322371D02*
X151371428Y-115379514D01*
X151371428Y-115379514D02*
X151342857Y-115408085D01*
X151342857Y-115408085D02*
X151285714Y-115436657D01*
X151285714Y-115436657D02*
X151057143Y-115436657D01*
X151914286Y-115322371D02*
X151914286Y-115722371D01*
X151771428Y-115093800D02*
X151628571Y-115522371D01*
X151628571Y-115522371D02*
X152000000Y-115522371D01*
X153560000Y-110672371D02*
X153360000Y-110386657D01*
X153217143Y-110672371D02*
X153217143Y-110072371D01*
X153217143Y-110072371D02*
X153445714Y-110072371D01*
X153445714Y-110072371D02*
X153502857Y-110100942D01*
X153502857Y-110100942D02*
X153531428Y-110129514D01*
X153531428Y-110129514D02*
X153560000Y-110186657D01*
X153560000Y-110186657D02*
X153560000Y-110272371D01*
X153560000Y-110272371D02*
X153531428Y-110329514D01*
X153531428Y-110329514D02*
X153502857Y-110358085D01*
X153502857Y-110358085D02*
X153445714Y-110386657D01*
X153445714Y-110386657D02*
X153217143Y-110386657D01*
X153760000Y-110072371D02*
X154160000Y-110072371D01*
X154160000Y-110072371D02*
X153902857Y-110672371D01*
X137952857Y-108719514D02*
X137895714Y-108690942D01*
X137895714Y-108690942D02*
X137838571Y-108633800D01*
X137838571Y-108633800D02*
X137752857Y-108548085D01*
X137752857Y-108548085D02*
X137695714Y-108519514D01*
X137695714Y-108519514D02*
X137638571Y-108519514D01*
X137667142Y-108662371D02*
X137610000Y-108633800D01*
X137610000Y-108633800D02*
X137552857Y-108576657D01*
X137552857Y-108576657D02*
X137524285Y-108462371D01*
X137524285Y-108462371D02*
X137524285Y-108262371D01*
X137524285Y-108262371D02*
X137552857Y-108148085D01*
X137552857Y-108148085D02*
X137610000Y-108090942D01*
X137610000Y-108090942D02*
X137667142Y-108062371D01*
X137667142Y-108062371D02*
X137781428Y-108062371D01*
X137781428Y-108062371D02*
X137838571Y-108090942D01*
X137838571Y-108090942D02*
X137895714Y-108148085D01*
X137895714Y-108148085D02*
X137924285Y-108262371D01*
X137924285Y-108262371D02*
X137924285Y-108462371D01*
X137924285Y-108462371D02*
X137895714Y-108576657D01*
X137895714Y-108576657D02*
X137838571Y-108633800D01*
X137838571Y-108633800D02*
X137781428Y-108662371D01*
X137781428Y-108662371D02*
X137667142Y-108662371D01*
X138124285Y-108062371D02*
X138495713Y-108062371D01*
X138495713Y-108062371D02*
X138295713Y-108290942D01*
X138295713Y-108290942D02*
X138381428Y-108290942D01*
X138381428Y-108290942D02*
X138438571Y-108319514D01*
X138438571Y-108319514D02*
X138467142Y-108348085D01*
X138467142Y-108348085D02*
X138495713Y-108405228D01*
X138495713Y-108405228D02*
X138495713Y-108548085D01*
X138495713Y-108548085D02*
X138467142Y-108605228D01*
X138467142Y-108605228D02*
X138438571Y-108633800D01*
X138438571Y-108633800D02*
X138381428Y-108662371D01*
X138381428Y-108662371D02*
X138209999Y-108662371D01*
X138209999Y-108662371D02*
X138152856Y-108633800D01*
X138152856Y-108633800D02*
X138124285Y-108605228D01*
X137942857Y-115154514D02*
X137885714Y-115125942D01*
X137885714Y-115125942D02*
X137828571Y-115068800D01*
X137828571Y-115068800D02*
X137742857Y-114983085D01*
X137742857Y-114983085D02*
X137685714Y-114954514D01*
X137685714Y-114954514D02*
X137628571Y-114954514D01*
X137657142Y-115097371D02*
X137600000Y-115068800D01*
X137600000Y-115068800D02*
X137542857Y-115011657D01*
X137542857Y-115011657D02*
X137514285Y-114897371D01*
X137514285Y-114897371D02*
X137514285Y-114697371D01*
X137514285Y-114697371D02*
X137542857Y-114583085D01*
X137542857Y-114583085D02*
X137600000Y-114525942D01*
X137600000Y-114525942D02*
X137657142Y-114497371D01*
X137657142Y-114497371D02*
X137771428Y-114497371D01*
X137771428Y-114497371D02*
X137828571Y-114525942D01*
X137828571Y-114525942D02*
X137885714Y-114583085D01*
X137885714Y-114583085D02*
X137914285Y-114697371D01*
X137914285Y-114697371D02*
X137914285Y-114897371D01*
X137914285Y-114897371D02*
X137885714Y-115011657D01*
X137885714Y-115011657D02*
X137828571Y-115068800D01*
X137828571Y-115068800D02*
X137771428Y-115097371D01*
X137771428Y-115097371D02*
X137657142Y-115097371D01*
X138485713Y-115097371D02*
X138142856Y-115097371D01*
X138314285Y-115097371D02*
X138314285Y-114497371D01*
X138314285Y-114497371D02*
X138257142Y-114583085D01*
X138257142Y-114583085D02*
X138199999Y-114640228D01*
X138199999Y-114640228D02*
X138142856Y-114668800D01*
X145482857Y-112069514D02*
X145425714Y-112040942D01*
X145425714Y-112040942D02*
X145368571Y-111983800D01*
X145368571Y-111983800D02*
X145282857Y-111898085D01*
X145282857Y-111898085D02*
X145225714Y-111869514D01*
X145225714Y-111869514D02*
X145168571Y-111869514D01*
X145197142Y-112012371D02*
X145140000Y-111983800D01*
X145140000Y-111983800D02*
X145082857Y-111926657D01*
X145082857Y-111926657D02*
X145054285Y-111812371D01*
X145054285Y-111812371D02*
X145054285Y-111612371D01*
X145054285Y-111612371D02*
X145082857Y-111498085D01*
X145082857Y-111498085D02*
X145140000Y-111440942D01*
X145140000Y-111440942D02*
X145197142Y-111412371D01*
X145197142Y-111412371D02*
X145311428Y-111412371D01*
X145311428Y-111412371D02*
X145368571Y-111440942D01*
X145368571Y-111440942D02*
X145425714Y-111498085D01*
X145425714Y-111498085D02*
X145454285Y-111612371D01*
X145454285Y-111612371D02*
X145454285Y-111812371D01*
X145454285Y-111812371D02*
X145425714Y-111926657D01*
X145425714Y-111926657D02*
X145368571Y-111983800D01*
X145368571Y-111983800D02*
X145311428Y-112012371D01*
X145311428Y-112012371D02*
X145197142Y-112012371D01*
X145682856Y-111469514D02*
X145711428Y-111440942D01*
X145711428Y-111440942D02*
X145768571Y-111412371D01*
X145768571Y-111412371D02*
X145911428Y-111412371D01*
X145911428Y-111412371D02*
X145968571Y-111440942D01*
X145968571Y-111440942D02*
X145997142Y-111469514D01*
X145997142Y-111469514D02*
X146025713Y-111526657D01*
X146025713Y-111526657D02*
X146025713Y-111583800D01*
X146025713Y-111583800D02*
X145997142Y-111669514D01*
X145997142Y-111669514D02*
X145654285Y-112012371D01*
X145654285Y-112012371D02*
X146025713Y-112012371D01*
X141242857Y-121022371D02*
X141242857Y-121508085D01*
X141242857Y-121508085D02*
X141271428Y-121565228D01*
X141271428Y-121565228D02*
X141300000Y-121593800D01*
X141300000Y-121593800D02*
X141357142Y-121622371D01*
X141357142Y-121622371D02*
X141471428Y-121622371D01*
X141471428Y-121622371D02*
X141528571Y-121593800D01*
X141528571Y-121593800D02*
X141557142Y-121565228D01*
X141557142Y-121565228D02*
X141585714Y-121508085D01*
X141585714Y-121508085D02*
X141585714Y-121022371D01*
X142185713Y-121622371D02*
X141842856Y-121622371D01*
X142014285Y-121622371D02*
X142014285Y-121022371D01*
X142014285Y-121022371D02*
X141957142Y-121108085D01*
X141957142Y-121108085D02*
X141899999Y-121165228D01*
X141899999Y-121165228D02*
X141842856Y-121193800D01*
D11*
%TO.C,C6*%
X160457600Y-130805000D02*
X160857600Y-130805000D01*
X160657600Y-130605000D02*
X160657600Y-131005000D01*
X162727401Y-129920000D02*
X162727401Y-131160000D01*
X162727401Y-132840000D02*
X162727401Y-134080000D01*
X162767401Y-129920000D02*
X162767401Y-131160000D01*
X162767401Y-132840000D02*
X162767401Y-134080000D01*
X162807401Y-129922000D02*
X162807401Y-131160000D01*
X162807401Y-132840000D02*
X162807401Y-134078000D01*
X162847401Y-129923000D02*
X162847401Y-131160000D01*
X162847401Y-132840000D02*
X162847401Y-134077000D01*
X162887401Y-129926000D02*
X162887401Y-131160000D01*
X162887401Y-132840000D02*
X162887401Y-134074000D01*
X162927401Y-129929000D02*
X162927401Y-131160000D01*
X162927401Y-132840000D02*
X162927401Y-134071000D01*
X162967401Y-129934000D02*
X162967401Y-131160000D01*
X162967401Y-132840000D02*
X162967401Y-134066000D01*
X163007401Y-129939000D02*
X163007401Y-131160000D01*
X163007401Y-132840000D02*
X163007401Y-134061000D01*
X163047401Y-129944000D02*
X163047401Y-131160000D01*
X163047401Y-132840000D02*
X163047401Y-134056000D01*
X163087401Y-129951000D02*
X163087401Y-131160000D01*
X163087401Y-132840000D02*
X163087401Y-134049000D01*
X163127401Y-129958000D02*
X163127401Y-131160000D01*
X163127401Y-132840000D02*
X163127401Y-134042000D01*
X163167401Y-129966000D02*
X163167401Y-131160000D01*
X163167401Y-132840000D02*
X163167401Y-134034000D01*
X163207401Y-129975000D02*
X163207401Y-131160000D01*
X163207401Y-132840000D02*
X163207401Y-134025000D01*
X163247401Y-129985000D02*
X163247401Y-131160000D01*
X163247401Y-132840000D02*
X163247401Y-134015000D01*
X163287401Y-129995000D02*
X163287401Y-131160000D01*
X163287401Y-132840000D02*
X163287401Y-134005000D01*
X163327401Y-130007000D02*
X163327401Y-131160000D01*
X163327401Y-132840000D02*
X163327401Y-133993000D01*
X163367401Y-130019000D02*
X163367401Y-131160000D01*
X163367401Y-132840000D02*
X163367401Y-133981000D01*
X163407401Y-130032000D02*
X163407401Y-131160000D01*
X163407401Y-132840000D02*
X163407401Y-133968000D01*
X163447401Y-130046000D02*
X163447401Y-131160000D01*
X163447401Y-132840000D02*
X163447401Y-133954000D01*
X163487401Y-130061000D02*
X163487401Y-131160000D01*
X163487401Y-132840000D02*
X163487401Y-133939000D01*
X163527401Y-130077000D02*
X163527401Y-131160000D01*
X163527401Y-132840000D02*
X163527401Y-133923000D01*
X163567401Y-130094000D02*
X163567401Y-131160000D01*
X163567401Y-132840000D02*
X163567401Y-133906000D01*
X163607401Y-130111000D02*
X163607401Y-131160000D01*
X163607401Y-132840000D02*
X163607401Y-133889000D01*
X163647401Y-130130000D02*
X163647401Y-131160000D01*
X163647401Y-132840000D02*
X163647401Y-133870000D01*
X163687401Y-130150000D02*
X163687401Y-131160000D01*
X163687401Y-132840000D02*
X163687401Y-133850000D01*
X163727401Y-130171000D02*
X163727401Y-131160000D01*
X163727401Y-132840000D02*
X163727401Y-133829000D01*
X163767401Y-130193000D02*
X163767401Y-131160000D01*
X163767401Y-132840000D02*
X163767401Y-133807000D01*
X163807401Y-130216000D02*
X163807401Y-131160000D01*
X163807401Y-132840000D02*
X163807401Y-133784000D01*
X163847401Y-130240000D02*
X163847401Y-131160000D01*
X163847401Y-132840000D02*
X163847401Y-133760000D01*
X163887401Y-130266000D02*
X163887401Y-131160000D01*
X163887401Y-132840000D02*
X163887401Y-133734000D01*
X163927401Y-130292000D02*
X163927401Y-131160000D01*
X163927401Y-132840000D02*
X163927401Y-133708000D01*
X163967401Y-130320000D02*
X163967401Y-131160000D01*
X163967401Y-132840000D02*
X163967401Y-133680000D01*
X164007401Y-130350000D02*
X164007401Y-131160000D01*
X164007401Y-132840000D02*
X164007401Y-133650000D01*
X164047401Y-130381000D02*
X164047401Y-131160000D01*
X164047401Y-132840000D02*
X164047401Y-133619000D01*
X164087401Y-130414000D02*
X164087401Y-131160000D01*
X164087401Y-132840000D02*
X164087401Y-133586000D01*
X164127401Y-130448000D02*
X164127401Y-131160000D01*
X164127401Y-132840000D02*
X164127401Y-133552000D01*
X164167401Y-130484000D02*
X164167401Y-131160000D01*
X164167401Y-132840000D02*
X164167401Y-133516000D01*
X164207401Y-130522000D02*
X164207401Y-131160000D01*
X164207401Y-132840000D02*
X164207401Y-133478000D01*
X164247401Y-130562000D02*
X164247401Y-131160000D01*
X164247401Y-132840000D02*
X164247401Y-133438000D01*
X164287401Y-130604000D02*
X164287401Y-131160000D01*
X164287401Y-132840000D02*
X164287401Y-133396000D01*
X164327401Y-130649000D02*
X164327401Y-133351000D01*
X164367401Y-130697000D02*
X164367401Y-133303000D01*
X164407401Y-130747000D02*
X164407401Y-133253000D01*
X164447401Y-130801000D02*
X164447401Y-133199000D01*
X164487401Y-130858000D02*
X164487401Y-133142000D01*
X164527401Y-130920000D02*
X164527401Y-133080000D01*
X164567401Y-130987000D02*
X164567401Y-133013000D01*
X164607401Y-131060000D02*
X164607401Y-132940000D01*
X164647401Y-131141000D02*
X164647401Y-132859000D01*
X164687401Y-131232000D02*
X164687401Y-132768000D01*
X164727401Y-131337000D02*
X164727401Y-132663000D01*
X164767401Y-131463000D02*
X164767401Y-132537000D01*
X164807401Y-131630000D02*
X164807401Y-132370000D01*
X164847401Y-132000000D02*
G75*
G02*
X160607401Y-132000000I-2120000J0D01*
G01*
X160607401Y-132000000D02*
G75*
G02*
X164847401Y-132000000I2120000J0D01*
G01*
%TO.C,C5*%
X159969801Y-133195000D02*
X159569801Y-133195000D01*
X159769801Y-133395000D02*
X159769801Y-132995000D01*
X157700000Y-134080000D02*
X157700000Y-132840000D01*
X157700000Y-131160000D02*
X157700000Y-129920000D01*
X157660000Y-134080000D02*
X157660000Y-132840000D01*
X157660000Y-131160000D02*
X157660000Y-129920000D01*
X157620000Y-134078000D02*
X157620000Y-132840000D01*
X157620000Y-131160000D02*
X157620000Y-129922000D01*
X157580000Y-134077000D02*
X157580000Y-132840000D01*
X157580000Y-131160000D02*
X157580000Y-129923000D01*
X157540000Y-134074000D02*
X157540000Y-132840000D01*
X157540000Y-131160000D02*
X157540000Y-129926000D01*
X157500000Y-134071000D02*
X157500000Y-132840000D01*
X157500000Y-131160000D02*
X157500000Y-129929000D01*
X157460000Y-134066000D02*
X157460000Y-132840000D01*
X157460000Y-131160000D02*
X157460000Y-129934000D01*
X157420000Y-134061000D02*
X157420000Y-132840000D01*
X157420000Y-131160000D02*
X157420000Y-129939000D01*
X157380000Y-134056000D02*
X157380000Y-132840000D01*
X157380000Y-131160000D02*
X157380000Y-129944000D01*
X157340000Y-134049000D02*
X157340000Y-132840000D01*
X157340000Y-131160000D02*
X157340000Y-129951000D01*
X157300000Y-134042000D02*
X157300000Y-132840000D01*
X157300000Y-131160000D02*
X157300000Y-129958000D01*
X157260000Y-134034000D02*
X157260000Y-132840000D01*
X157260000Y-131160000D02*
X157260000Y-129966000D01*
X157220000Y-134025000D02*
X157220000Y-132840000D01*
X157220000Y-131160000D02*
X157220000Y-129975000D01*
X157180000Y-134015000D02*
X157180000Y-132840000D01*
X157180000Y-131160000D02*
X157180000Y-129985000D01*
X157140000Y-134005000D02*
X157140000Y-132840000D01*
X157140000Y-131160000D02*
X157140000Y-129995000D01*
X157100000Y-133993000D02*
X157100000Y-132840000D01*
X157100000Y-131160000D02*
X157100000Y-130007000D01*
X157060000Y-133981000D02*
X157060000Y-132840000D01*
X157060000Y-131160000D02*
X157060000Y-130019000D01*
X157020000Y-133968000D02*
X157020000Y-132840000D01*
X157020000Y-131160000D02*
X157020000Y-130032000D01*
X156980000Y-133954000D02*
X156980000Y-132840000D01*
X156980000Y-131160000D02*
X156980000Y-130046000D01*
X156940000Y-133939000D02*
X156940000Y-132840000D01*
X156940000Y-131160000D02*
X156940000Y-130061000D01*
X156900000Y-133923000D02*
X156900000Y-132840000D01*
X156900000Y-131160000D02*
X156900000Y-130077000D01*
X156860000Y-133906000D02*
X156860000Y-132840000D01*
X156860000Y-131160000D02*
X156860000Y-130094000D01*
X156820000Y-133889000D02*
X156820000Y-132840000D01*
X156820000Y-131160000D02*
X156820000Y-130111000D01*
X156780000Y-133870000D02*
X156780000Y-132840000D01*
X156780000Y-131160000D02*
X156780000Y-130130000D01*
X156740000Y-133850000D02*
X156740000Y-132840000D01*
X156740000Y-131160000D02*
X156740000Y-130150000D01*
X156700000Y-133829000D02*
X156700000Y-132840000D01*
X156700000Y-131160000D02*
X156700000Y-130171000D01*
X156660000Y-133807000D02*
X156660000Y-132840000D01*
X156660000Y-131160000D02*
X156660000Y-130193000D01*
X156620000Y-133784000D02*
X156620000Y-132840000D01*
X156620000Y-131160000D02*
X156620000Y-130216000D01*
X156580000Y-133760000D02*
X156580000Y-132840000D01*
X156580000Y-131160000D02*
X156580000Y-130240000D01*
X156540000Y-133734000D02*
X156540000Y-132840000D01*
X156540000Y-131160000D02*
X156540000Y-130266000D01*
X156500000Y-133708000D02*
X156500000Y-132840000D01*
X156500000Y-131160000D02*
X156500000Y-130292000D01*
X156460000Y-133680000D02*
X156460000Y-132840000D01*
X156460000Y-131160000D02*
X156460000Y-130320000D01*
X156420000Y-133650000D02*
X156420000Y-132840000D01*
X156420000Y-131160000D02*
X156420000Y-130350000D01*
X156380000Y-133619000D02*
X156380000Y-132840000D01*
X156380000Y-131160000D02*
X156380000Y-130381000D01*
X156340000Y-133586000D02*
X156340000Y-132840000D01*
X156340000Y-131160000D02*
X156340000Y-130414000D01*
X156300000Y-133552000D02*
X156300000Y-132840000D01*
X156300000Y-131160000D02*
X156300000Y-130448000D01*
X156260000Y-133516000D02*
X156260000Y-132840000D01*
X156260000Y-131160000D02*
X156260000Y-130484000D01*
X156220000Y-133478000D02*
X156220000Y-132840000D01*
X156220000Y-131160000D02*
X156220000Y-130522000D01*
X156180000Y-133438000D02*
X156180000Y-132840000D01*
X156180000Y-131160000D02*
X156180000Y-130562000D01*
X156140000Y-133396000D02*
X156140000Y-132840000D01*
X156140000Y-131160000D02*
X156140000Y-130604000D01*
X156100000Y-133351000D02*
X156100000Y-130649000D01*
X156060000Y-133303000D02*
X156060000Y-130697000D01*
X156020000Y-133253000D02*
X156020000Y-130747000D01*
X155980000Y-133199000D02*
X155980000Y-130801000D01*
X155940000Y-133142000D02*
X155940000Y-130858000D01*
X155900000Y-133080000D02*
X155900000Y-130920000D01*
X155860000Y-133013000D02*
X155860000Y-130987000D01*
X155820000Y-132940000D02*
X155820000Y-131060000D01*
X155780000Y-132859000D02*
X155780000Y-131141000D01*
X155740000Y-132768000D02*
X155740000Y-131232000D01*
X155700000Y-132663000D02*
X155700000Y-131337000D01*
X155660000Y-132537000D02*
X155660000Y-131463000D01*
X155620000Y-132370000D02*
X155620000Y-131630000D01*
X159820000Y-132000000D02*
G75*
G02*
X155580000Y-132000000I-2120000J0D01*
G01*
X155580000Y-132000000D02*
G75*
G02*
X159820000Y-132000000I2120000J0D01*
G01*
D12*
%TO.C,G\u002A\u002A\u002A*%
G36*
X155057594Y-116211916D02*
G01*
X155281018Y-116212071D01*
X155526630Y-116212370D01*
X155696890Y-116212638D01*
X157508065Y-116215710D01*
X157552012Y-116259656D01*
X157595958Y-116303603D01*
X157598894Y-118108944D01*
X157599280Y-118348886D01*
X157599613Y-118566598D01*
X157599879Y-118763188D01*
X157600068Y-118939761D01*
X157600167Y-119097424D01*
X157600163Y-119237282D01*
X157600045Y-119360441D01*
X157599801Y-119468008D01*
X157599417Y-119561089D01*
X157598882Y-119640789D01*
X157598184Y-119708215D01*
X157597311Y-119764473D01*
X157596250Y-119810669D01*
X157594989Y-119847908D01*
X157593516Y-119877298D01*
X157591819Y-119899943D01*
X157589885Y-119916951D01*
X157587703Y-119929426D01*
X157585261Y-119938476D01*
X157582545Y-119945206D01*
X157579544Y-119950722D01*
X157578583Y-119952312D01*
X157551684Y-119985286D01*
X157518619Y-120012710D01*
X157517309Y-120013522D01*
X157511901Y-120016611D01*
X157505553Y-120019412D01*
X157497158Y-120021939D01*
X157485606Y-120024208D01*
X157469789Y-120026230D01*
X157448598Y-120028022D01*
X157420924Y-120029595D01*
X157385658Y-120030965D01*
X157341692Y-120032144D01*
X157287917Y-120033148D01*
X157223224Y-120033990D01*
X157146504Y-120034684D01*
X157056648Y-120035243D01*
X156952548Y-120035682D01*
X156833095Y-120036015D01*
X156697180Y-120036255D01*
X156543694Y-120036417D01*
X156371528Y-120036515D01*
X156179575Y-120036561D01*
X155966724Y-120036571D01*
X155731868Y-120036558D01*
X155682499Y-120036554D01*
X153885714Y-120036401D01*
X153847360Y-120011841D01*
X153837820Y-120006313D01*
X153829152Y-120001797D01*
X153821314Y-119997207D01*
X153814265Y-119991455D01*
X153807963Y-119983454D01*
X153802366Y-119972117D01*
X153797433Y-119956357D01*
X153793123Y-119935086D01*
X153789393Y-119907217D01*
X153786203Y-119871664D01*
X153785603Y-119861782D01*
X153949885Y-119861782D01*
X155694166Y-119861782D01*
X157438448Y-119861782D01*
X157438448Y-118117501D01*
X157438448Y-116373220D01*
X155694166Y-116373220D01*
X153949885Y-116373220D01*
X153949885Y-118117501D01*
X153949885Y-119861782D01*
X153785603Y-119861782D01*
X153783510Y-119827339D01*
X153781273Y-119773155D01*
X153779450Y-119708025D01*
X153778000Y-119630862D01*
X153776882Y-119540578D01*
X153776053Y-119436087D01*
X153775472Y-119316300D01*
X153775098Y-119180132D01*
X153774889Y-119026495D01*
X153774803Y-118854302D01*
X153774799Y-118662465D01*
X153774835Y-118449898D01*
X153774870Y-118215514D01*
X153774874Y-118117501D01*
X153774874Y-118116541D01*
X153774878Y-117876649D01*
X153774899Y-117658986D01*
X153774951Y-117462445D01*
X153775048Y-117285920D01*
X153775205Y-117128306D01*
X153775435Y-116988495D01*
X153775753Y-116865382D01*
X153776172Y-116757861D01*
X153776706Y-116664825D01*
X153777371Y-116585168D01*
X153778179Y-116517785D01*
X153779145Y-116461568D01*
X153780282Y-116415411D01*
X153781606Y-116378209D01*
X153783130Y-116348856D01*
X153784868Y-116326244D01*
X153786834Y-116309268D01*
X153789042Y-116296822D01*
X153791506Y-116287799D01*
X153794241Y-116281094D01*
X153797261Y-116275600D01*
X153798312Y-116273880D01*
X153822643Y-116244731D01*
X153850831Y-116224068D01*
X153853732Y-116222762D01*
X153865215Y-116220878D01*
X153890529Y-116219186D01*
X153930370Y-116217680D01*
X153985435Y-116216358D01*
X154056420Y-116215215D01*
X154144022Y-116214247D01*
X154248937Y-116213452D01*
X154371862Y-116212824D01*
X154513494Y-116212360D01*
X154674529Y-116212057D01*
X154855663Y-116211910D01*
X155057594Y-116211916D01*
G37*
G36*
X155216862Y-118228486D02*
G01*
X155367478Y-118228631D01*
X155393730Y-118269159D01*
X155410241Y-118297122D01*
X155419355Y-118317364D01*
X155419982Y-118320729D01*
X155416395Y-118334795D01*
X155406418Y-118367282D01*
X155391226Y-118414536D01*
X155371994Y-118472904D01*
X155349895Y-118538732D01*
X155349700Y-118539307D01*
X155316943Y-118632473D01*
X155289312Y-118703393D01*
X155266876Y-118751906D01*
X155250164Y-118777379D01*
X155231143Y-118804121D01*
X155227726Y-118825649D01*
X155227896Y-118826119D01*
X155223495Y-118846695D01*
X155197325Y-118872950D01*
X155195072Y-118874689D01*
X155158700Y-118898021D01*
X155131988Y-118902895D01*
X155110393Y-118889369D01*
X155100200Y-118875884D01*
X155090141Y-118862521D01*
X155077778Y-118854017D01*
X155058069Y-118849279D01*
X155025975Y-118847211D01*
X154976453Y-118846721D01*
X154965835Y-118846716D01*
X154850583Y-118846716D01*
X154824553Y-118802963D01*
X154798523Y-118759210D01*
X154816866Y-118703790D01*
X154965036Y-118703790D01*
X154969657Y-118724272D01*
X154977406Y-118730042D01*
X154984873Y-118721117D01*
X154983428Y-118709624D01*
X154987132Y-118688732D01*
X155012088Y-118665413D01*
X155014727Y-118663594D01*
X155051782Y-118640081D01*
X155076205Y-118631138D01*
X155093732Y-118636940D01*
X155110099Y-118657663D01*
X155115562Y-118666684D01*
X155132412Y-118691267D01*
X155145129Y-118702807D01*
X155148062Y-118702497D01*
X155155741Y-118687512D01*
X155168384Y-118655218D01*
X155184326Y-118610682D01*
X155201901Y-118558968D01*
X155219447Y-118505143D01*
X155235299Y-118454271D01*
X155247791Y-118411419D01*
X155255260Y-118381652D01*
X155256638Y-118372068D01*
X155254957Y-118357339D01*
X155246364Y-118349226D01*
X155225533Y-118345771D01*
X155187139Y-118345018D01*
X155183029Y-118345016D01*
X155140259Y-118347306D01*
X155105501Y-118353281D01*
X155089225Y-118359784D01*
X155078555Y-118375677D01*
X155062938Y-118408924D01*
X155044171Y-118454545D01*
X155024053Y-118507555D01*
X155004383Y-118562972D01*
X154986959Y-118615812D01*
X154973582Y-118661095D01*
X154966049Y-118693835D01*
X154965036Y-118703790D01*
X154816866Y-118703790D01*
X154871049Y-118540085D01*
X154943574Y-118320960D01*
X155004910Y-118274651D01*
X155066246Y-118228342D01*
X155216862Y-118228486D01*
G37*
G36*
X155974442Y-118229097D02*
G01*
X155994326Y-118232370D01*
X156000099Y-118239674D01*
X155997917Y-118248760D01*
X155991951Y-118265463D01*
X155979705Y-118300752D01*
X155962389Y-118351110D01*
X155941209Y-118413021D01*
X155917372Y-118482970D01*
X155907357Y-118512433D01*
X155824731Y-118755688D01*
X155767152Y-118801202D01*
X155709572Y-118846716D01*
X155559980Y-118846716D01*
X155410389Y-118846716D01*
X155380183Y-118810818D01*
X155360885Y-118784528D01*
X155350534Y-118763892D01*
X155349977Y-118760471D01*
X155353561Y-118745687D01*
X155363609Y-118712119D01*
X155379072Y-118663077D01*
X155398895Y-118601866D01*
X155422028Y-118531795D01*
X155435974Y-118490098D01*
X155521972Y-118234176D01*
X155593485Y-118230702D01*
X155630827Y-118229615D01*
X155656705Y-118230250D01*
X155664998Y-118232132D01*
X155661411Y-118244161D01*
X155651402Y-118274883D01*
X155636098Y-118320912D01*
X155616628Y-118378860D01*
X155594117Y-118445342D01*
X155589160Y-118459923D01*
X155565974Y-118529201D01*
X155545651Y-118592096D01*
X155529347Y-118644849D01*
X155518219Y-118683702D01*
X155513424Y-118704895D01*
X155513321Y-118706426D01*
X155515463Y-118718846D01*
X155525228Y-118725952D01*
X155547620Y-118729197D01*
X155587649Y-118730034D01*
X155594724Y-118730042D01*
X155638900Y-118729143D01*
X155666036Y-118725336D01*
X155682394Y-118716951D01*
X155693289Y-118703790D01*
X155702457Y-118684581D01*
X155717421Y-118647288D01*
X155736652Y-118595985D01*
X155758620Y-118534742D01*
X155779852Y-118473358D01*
X155802420Y-118407171D01*
X155822844Y-118347663D01*
X155839769Y-118298751D01*
X155851840Y-118264352D01*
X155857547Y-118248760D01*
X155867378Y-118236839D01*
X155888205Y-118230532D01*
X155925562Y-118228396D01*
X155935845Y-118228342D01*
X155974442Y-118229097D01*
G37*
G36*
X155857767Y-117272367D02*
G01*
X155877651Y-117275640D01*
X155883424Y-117282945D01*
X155881242Y-117292030D01*
X155875276Y-117308734D01*
X155863031Y-117344022D01*
X155845715Y-117394380D01*
X155824534Y-117456292D01*
X155800698Y-117526241D01*
X155790683Y-117555704D01*
X155708057Y-117798959D01*
X155650477Y-117844472D01*
X155592898Y-117889986D01*
X155443306Y-117889986D01*
X155293714Y-117889986D01*
X155263509Y-117854089D01*
X155244210Y-117827799D01*
X155233859Y-117807163D01*
X155233303Y-117803742D01*
X155236886Y-117788957D01*
X155246935Y-117755390D01*
X155262397Y-117706347D01*
X155282221Y-117645136D01*
X155305353Y-117575065D01*
X155319300Y-117533369D01*
X155405297Y-117277446D01*
X155476810Y-117273973D01*
X155514153Y-117272885D01*
X155540031Y-117273520D01*
X155548324Y-117275402D01*
X155544737Y-117287431D01*
X155534728Y-117318153D01*
X155519424Y-117364182D01*
X155499953Y-117422131D01*
X155477443Y-117488613D01*
X155472485Y-117503194D01*
X155449300Y-117572471D01*
X155428977Y-117635367D01*
X155412673Y-117688120D01*
X155401545Y-117726972D01*
X155396749Y-117748165D01*
X155396647Y-117749697D01*
X155398789Y-117762116D01*
X155408553Y-117769223D01*
X155430946Y-117772468D01*
X155470974Y-117773304D01*
X155478050Y-117773312D01*
X155522226Y-117772414D01*
X155549362Y-117768606D01*
X155565720Y-117760222D01*
X155576615Y-117747060D01*
X155585783Y-117727851D01*
X155600747Y-117690559D01*
X155619978Y-117639255D01*
X155641946Y-117578012D01*
X155663178Y-117516629D01*
X155685746Y-117450441D01*
X155706170Y-117390934D01*
X155723095Y-117342022D01*
X155735166Y-117307622D01*
X155740872Y-117292030D01*
X155750703Y-117280110D01*
X155771530Y-117273803D01*
X155808888Y-117271666D01*
X155819171Y-117271612D01*
X155857767Y-117272367D01*
G37*
G36*
X157026883Y-120127448D02*
G01*
X157079910Y-120129514D01*
X157133368Y-120132296D01*
X157182228Y-120135541D01*
X157221464Y-120138997D01*
X157246048Y-120142410D01*
X157251853Y-120144718D01*
X157251822Y-120158989D01*
X157251797Y-120192099D01*
X157251778Y-120239551D01*
X157251769Y-120296851D01*
X157251769Y-120315671D01*
X157251769Y-120477874D01*
X157216766Y-120490075D01*
X157181764Y-120502277D01*
X157181764Y-120694055D01*
X157181673Y-120764945D01*
X157181069Y-120816152D01*
X157179452Y-120851328D01*
X157176325Y-120874124D01*
X157171188Y-120888192D01*
X157163543Y-120897184D01*
X157153006Y-120904676D01*
X157117090Y-120918628D01*
X157073557Y-120922924D01*
X157033136Y-120917304D01*
X157013396Y-120908052D01*
X157005229Y-120899929D01*
X156999526Y-120887001D01*
X156995905Y-120865536D01*
X156993984Y-120831800D01*
X156993380Y-120782060D01*
X156993685Y-120715652D01*
X156994039Y-120647332D01*
X156993492Y-120598270D01*
X156991570Y-120564392D01*
X156987800Y-120541626D01*
X156981705Y-120525899D01*
X156972813Y-120513137D01*
X156969667Y-120509437D01*
X156945918Y-120489054D01*
X156923633Y-120480170D01*
X156922977Y-120480156D01*
X156914777Y-120478509D01*
X156909002Y-120471270D01*
X156905232Y-120454995D01*
X156903046Y-120426238D01*
X156902025Y-120381555D01*
X156901749Y-120317501D01*
X156901746Y-120306000D01*
X156902033Y-120237965D01*
X156903138Y-120189831D01*
X156905426Y-120158171D01*
X156909260Y-120139554D01*
X156915007Y-120130552D01*
X156920667Y-120128072D01*
X156942234Y-120126474D01*
X156979315Y-120126350D01*
X157026883Y-120127448D01*
G37*
G36*
X157047589Y-118230897D02*
G01*
X157129261Y-118234176D01*
X157126622Y-118310014D01*
X157125404Y-118345969D01*
X157123614Y-118400016D01*
X157121425Y-118466923D01*
X157119006Y-118541458D01*
X157116597Y-118616284D01*
X157109210Y-118846716D01*
X157034646Y-118846716D01*
X156960083Y-118846716D01*
X156960083Y-118782545D01*
X156960083Y-118718374D01*
X156879982Y-118718374D01*
X156799882Y-118718374D01*
X156760391Y-118779628D01*
X156720900Y-118840882D01*
X156647979Y-118844356D01*
X156610225Y-118845349D01*
X156583875Y-118844505D01*
X156575058Y-118842295D01*
X156581036Y-118830711D01*
X156597011Y-118804476D01*
X156620041Y-118768358D01*
X156631158Y-118751316D01*
X156654606Y-118715279D01*
X156687688Y-118663988D01*
X156727546Y-118601899D01*
X156730546Y-118597209D01*
X156878411Y-118597209D01*
X156888751Y-118600063D01*
X156914478Y-118601609D01*
X156923495Y-118601700D01*
X156950968Y-118600594D01*
X156965181Y-118593161D01*
X156972125Y-118573226D01*
X156975998Y-118547568D01*
X156980681Y-118503654D01*
X156983192Y-118461064D01*
X156983331Y-118451312D01*
X156982773Y-118432391D01*
X156979739Y-118425292D01*
X156972036Y-118432087D01*
X156957474Y-118454846D01*
X156933861Y-118495643D01*
X156930828Y-118500952D01*
X156907724Y-118541863D01*
X156889819Y-118574447D01*
X156879720Y-118593919D01*
X156878411Y-118597209D01*
X156730546Y-118597209D01*
X156771321Y-118533466D01*
X156816154Y-118463145D01*
X156826587Y-118446745D01*
X156965917Y-118227618D01*
X157047589Y-118230897D01*
G37*
G36*
X156393736Y-117297864D02*
G01*
X156383415Y-117331352D01*
X156373252Y-117354656D01*
X156359080Y-117369806D01*
X156336735Y-117378831D01*
X156302051Y-117383760D01*
X156250861Y-117386625D01*
X156208146Y-117388287D01*
X156057332Y-117394121D01*
X156037236Y-117452369D01*
X156026874Y-117486716D01*
X156022034Y-117511805D01*
X156022602Y-117519456D01*
X156035945Y-117523382D01*
X156067025Y-117526412D01*
X156110248Y-117528097D01*
X156132384Y-117528296D01*
X156182125Y-117528710D01*
X156212979Y-117530598D01*
X156229387Y-117534931D01*
X156235792Y-117542678D01*
X156236702Y-117551082D01*
X156231889Y-117579124D01*
X156223339Y-117603196D01*
X156216048Y-117616541D01*
X156205641Y-117625247D01*
X156187370Y-117630499D01*
X156156486Y-117633480D01*
X156108240Y-117635375D01*
X156092453Y-117635830D01*
X155974929Y-117639137D01*
X155932830Y-117761645D01*
X155890730Y-117884153D01*
X155817223Y-117887665D01*
X155776823Y-117888675D01*
X155755474Y-117886268D01*
X155749040Y-117879635D01*
X155750087Y-117874575D01*
X155755533Y-117859198D01*
X155767366Y-117825036D01*
X155784450Y-117775393D01*
X155805648Y-117713574D01*
X155829827Y-117642884D01*
X155845533Y-117596878D01*
X155871391Y-117521270D01*
X155895376Y-117451478D01*
X155916256Y-117391065D01*
X155932799Y-117343590D01*
X155943770Y-117312615D01*
X155947062Y-117303698D01*
X155959515Y-117271612D01*
X156180567Y-117271612D01*
X156401619Y-117271612D01*
X156393736Y-117297864D01*
G37*
G36*
X154881146Y-115325669D02*
G01*
X154914161Y-115330614D01*
X154925135Y-115335664D01*
X154931475Y-115345764D01*
X154936051Y-115365969D01*
X154939101Y-115399325D01*
X154940862Y-115448872D01*
X154941572Y-115517655D01*
X154941617Y-115546261D01*
X154941617Y-115743179D01*
X154969689Y-115743179D01*
X154988510Y-115747324D01*
X155002408Y-115763383D01*
X155016027Y-115796790D01*
X155016359Y-115797761D01*
X155029107Y-115842116D01*
X155034512Y-115876579D01*
X155032379Y-115897233D01*
X155022513Y-115900160D01*
X155021438Y-115899545D01*
X155015325Y-115901696D01*
X155012554Y-115919559D01*
X155012985Y-115955727D01*
X155015840Y-116003864D01*
X155023760Y-116116537D01*
X154842679Y-116116537D01*
X154661599Y-116116537D01*
X154661599Y-115949167D01*
X154662059Y-115878072D01*
X154662089Y-115877354D01*
X155011622Y-115877354D01*
X155017455Y-115883188D01*
X155023289Y-115877354D01*
X155017455Y-115871521D01*
X155011622Y-115877354D01*
X154662089Y-115877354D01*
X154664222Y-115826604D01*
X154669259Y-115791062D01*
X154678340Y-115767743D01*
X154692638Y-115752947D01*
X154713324Y-115742971D01*
X154728414Y-115738025D01*
X154737845Y-115734331D01*
X154744733Y-115727612D01*
X154749551Y-115714490D01*
X154752770Y-115691584D01*
X154754865Y-115655516D01*
X154756307Y-115602907D01*
X154757569Y-115530378D01*
X154757583Y-115529548D01*
X154760772Y-115328985D01*
X154834712Y-115325485D01*
X154881146Y-115325669D01*
G37*
G36*
X158048279Y-116583234D02*
G01*
X158066612Y-116629904D01*
X158264970Y-116629904D01*
X158463328Y-116629904D01*
X158469359Y-116661989D01*
X158472792Y-116698808D01*
X158472112Y-116729077D01*
X158469024Y-116764359D01*
X158467008Y-116790331D01*
X158465771Y-116799769D01*
X158461406Y-116806621D01*
X158450664Y-116811301D01*
X158430295Y-116814223D01*
X158397050Y-116815801D01*
X158347680Y-116816449D01*
X158278934Y-116816582D01*
X158261002Y-116816583D01*
X158187529Y-116816699D01*
X158134179Y-116817292D01*
X158097738Y-116818730D01*
X158074994Y-116821379D01*
X158062735Y-116825606D01*
X158057749Y-116831779D01*
X158056821Y-116839917D01*
X158048903Y-116865317D01*
X158033487Y-116886587D01*
X158021910Y-116896086D01*
X158006695Y-116902611D01*
X157983604Y-116906708D01*
X157948402Y-116908924D01*
X157896855Y-116909806D01*
X157852641Y-116909922D01*
X157789427Y-116909790D01*
X157745848Y-116908987D01*
X157718205Y-116906901D01*
X157702798Y-116902922D01*
X157695927Y-116896438D01*
X157693893Y-116886839D01*
X157693695Y-116883670D01*
X157691068Y-116824853D01*
X157689214Y-116761647D01*
X157688181Y-116699383D01*
X157688017Y-116643395D01*
X157688767Y-116599015D01*
X157690479Y-116571574D01*
X157690929Y-116568650D01*
X157696985Y-116536564D01*
X157863466Y-116536564D01*
X158029947Y-116536564D01*
X158048279Y-116583234D01*
G37*
G36*
X154743492Y-118277417D02*
G01*
X154742920Y-118303768D01*
X154741194Y-118349206D01*
X154738506Y-118409523D01*
X154735047Y-118480510D01*
X154731008Y-118557959D01*
X154729422Y-118587115D01*
X154715129Y-118846716D01*
X154640855Y-118846716D01*
X154566580Y-118846716D01*
X154574598Y-118782545D01*
X154582615Y-118718374D01*
X154496230Y-118718374D01*
X154409846Y-118718374D01*
X154370954Y-118782545D01*
X154332062Y-118846716D01*
X154257238Y-118846716D01*
X154217234Y-118846148D01*
X154196304Y-118843516D01*
X154190196Y-118837432D01*
X154194660Y-118826504D01*
X154194784Y-118826298D01*
X154204089Y-118811512D01*
X154224299Y-118779767D01*
X154253705Y-118733735D01*
X154290598Y-118676091D01*
X154333269Y-118609504D01*
X154338276Y-118601700D01*
X154485236Y-118601700D01*
X154531742Y-118601700D01*
X154578248Y-118601700D01*
X154585534Y-118534612D01*
X154590504Y-118491986D01*
X154595427Y-118454700D01*
X154597956Y-118438356D01*
X154603092Y-118409187D01*
X154582759Y-118437367D01*
X154566270Y-118462411D01*
X154543818Y-118499230D01*
X154523831Y-118533623D01*
X154485236Y-118601700D01*
X154338276Y-118601700D01*
X154380008Y-118536649D01*
X154390678Y-118520028D01*
X154574201Y-118234176D01*
X154658736Y-118230748D01*
X154743271Y-118227320D01*
X154743492Y-118277417D01*
G37*
G36*
X153678921Y-118394456D02*
G01*
X153677329Y-118463838D01*
X153675221Y-118513081D01*
X153672228Y-118545381D01*
X153667978Y-118563933D01*
X153662100Y-118571934D01*
X153658200Y-118572988D01*
X153640620Y-118572819D01*
X153604511Y-118571834D01*
X153554660Y-118570185D01*
X153495851Y-118568021D01*
X153477354Y-118567301D01*
X153314010Y-118560864D01*
X153310318Y-118528778D01*
X153306627Y-118496693D01*
X153104470Y-118496693D01*
X153028463Y-118496756D01*
X152972671Y-118495940D01*
X152933981Y-118492739D01*
X152909281Y-118485647D01*
X152895460Y-118473156D01*
X152889405Y-118453762D01*
X152888003Y-118425956D01*
X152888149Y-118391980D01*
X152889960Y-118350071D01*
X152896170Y-118326533D01*
X152906604Y-118317096D01*
X152924082Y-118314709D01*
X152960528Y-118312666D01*
X153011577Y-118311113D01*
X153072863Y-118310197D01*
X153116618Y-118310014D01*
X153187391Y-118309931D01*
X153238160Y-118309380D01*
X153272257Y-118307903D01*
X153293013Y-118305047D01*
X153303760Y-118300354D01*
X153307828Y-118293370D01*
X153308548Y-118283762D01*
X153310576Y-118259397D01*
X153318009Y-118241736D01*
X153334058Y-118229713D01*
X153361936Y-118222265D01*
X153404853Y-118218328D01*
X153466021Y-118216837D01*
X153511030Y-118216674D01*
X153682142Y-118216674D01*
X153678921Y-118394456D01*
G37*
G36*
X156773389Y-117271639D02*
G01*
X156831995Y-117272365D01*
X156872521Y-117274760D01*
X156897595Y-117279792D01*
X156909843Y-117288432D01*
X156911891Y-117301648D01*
X156906367Y-117320409D01*
X156895898Y-117345686D01*
X156895755Y-117346026D01*
X156878098Y-117388287D01*
X156803979Y-117388287D01*
X156729861Y-117388287D01*
X156705875Y-117455375D01*
X156693773Y-117489886D01*
X156676188Y-117540892D01*
X156655051Y-117602760D01*
X156632287Y-117669858D01*
X156620017Y-117706224D01*
X156558144Y-117889986D01*
X156490763Y-117889986D01*
X156454631Y-117888302D01*
X156430175Y-117883939D01*
X156423381Y-117879258D01*
X156426942Y-117866075D01*
X156436729Y-117834840D01*
X156451396Y-117789570D01*
X156469596Y-117734286D01*
X156489984Y-117673006D01*
X156511213Y-117609749D01*
X156531939Y-117548536D01*
X156550815Y-117493384D01*
X156566495Y-117448314D01*
X156577633Y-117417344D01*
X156580955Y-117408705D01*
X156582990Y-117397443D01*
X156574475Y-117391273D01*
X156550852Y-117388720D01*
X156517969Y-117388287D01*
X156475067Y-117386682D01*
X156452280Y-117379007D01*
X156446457Y-117360972D01*
X156454446Y-117328286D01*
X156460727Y-117310360D01*
X156474738Y-117271612D01*
X156694076Y-117271612D01*
X156773389Y-117271639D01*
G37*
G36*
X155441182Y-115325669D02*
G01*
X155474198Y-115330614D01*
X155485171Y-115335664D01*
X155491512Y-115345764D01*
X155496088Y-115365969D01*
X155499138Y-115399325D01*
X155500899Y-115448872D01*
X155501609Y-115517655D01*
X155501654Y-115546261D01*
X155501654Y-115743179D01*
X155530036Y-115743179D01*
X155543185Y-115743891D01*
X155553563Y-115747644D01*
X155561453Y-115756864D01*
X155567139Y-115773979D01*
X155570903Y-115801415D01*
X155573028Y-115841598D01*
X155573797Y-115896955D01*
X155573492Y-115969912D01*
X155572398Y-116062895D01*
X155571861Y-116101952D01*
X155565751Y-116107910D01*
X155545922Y-116112135D01*
X155509843Y-116114837D01*
X155454982Y-116116227D01*
X155396647Y-116116537D01*
X155221635Y-116116537D01*
X155221635Y-115949167D01*
X155222096Y-115878072D01*
X155224259Y-115826604D01*
X155229296Y-115791062D01*
X155238377Y-115767743D01*
X155252675Y-115752947D01*
X155273361Y-115742971D01*
X155288451Y-115738025D01*
X155297882Y-115734331D01*
X155304770Y-115727612D01*
X155309588Y-115714490D01*
X155312807Y-115691584D01*
X155314901Y-115655516D01*
X155316343Y-115602907D01*
X155317606Y-115530378D01*
X155317619Y-115529548D01*
X155320809Y-115328985D01*
X155394749Y-115325485D01*
X155441182Y-115325669D01*
G37*
G36*
X153681534Y-116723243D02*
G01*
X153681534Y-116909922D01*
X153526941Y-116909455D01*
X153454564Y-116908378D01*
X153401973Y-116905427D01*
X153365670Y-116900267D01*
X153342156Y-116892564D01*
X153340262Y-116891581D01*
X153313830Y-116867731D01*
X153308177Y-116845379D01*
X153308177Y-116816583D01*
X153112164Y-116816583D01*
X153029214Y-116815898D01*
X152968106Y-116813779D01*
X152927384Y-116810128D01*
X152905592Y-116804850D01*
X152902150Y-116802582D01*
X152894534Y-116783512D01*
X152889729Y-116749798D01*
X152888120Y-116710006D01*
X152890090Y-116672701D01*
X152895231Y-116648359D01*
X152900657Y-116641584D01*
X152913087Y-116636664D01*
X152935722Y-116633317D01*
X152971765Y-116631263D01*
X153024419Y-116630220D01*
X153096884Y-116629906D01*
X153105245Y-116629904D01*
X153178397Y-116629831D01*
X153231450Y-116629335D01*
X153267641Y-116627998D01*
X153290207Y-116625402D01*
X153302382Y-116621128D01*
X153307405Y-116614760D01*
X153308510Y-116605878D01*
X153308548Y-116603652D01*
X153310581Y-116579271D01*
X153318030Y-116561602D01*
X153334108Y-116549579D01*
X153362028Y-116542136D01*
X153405006Y-116538206D01*
X153466253Y-116536723D01*
X153510726Y-116536564D01*
X153681534Y-116536564D01*
X153681534Y-116723243D01*
G37*
G36*
X154991405Y-117273127D02*
G01*
X155016180Y-117277056D01*
X155023289Y-117281385D01*
X155019736Y-117294243D01*
X155009970Y-117325184D01*
X154995329Y-117370212D01*
X154977150Y-117425329D01*
X154956772Y-117486541D01*
X154935532Y-117549850D01*
X154914769Y-117611259D01*
X154895821Y-117666774D01*
X154880025Y-117712397D01*
X154868720Y-117744132D01*
X154865424Y-117752894D01*
X154863847Y-117761341D01*
X154869249Y-117767081D01*
X154885146Y-117770631D01*
X154915053Y-117772506D01*
X154962484Y-117773223D01*
X155004540Y-117773312D01*
X155067288Y-117773416D01*
X155109932Y-117774893D01*
X155135701Y-117779488D01*
X155147822Y-117788947D01*
X155149523Y-117805017D01*
X155144033Y-117829444D01*
X155139350Y-117846234D01*
X155127199Y-117889986D01*
X154906066Y-117889986D01*
X154837115Y-117889548D01*
X154776926Y-117888329D01*
X154729090Y-117886470D01*
X154697198Y-117884113D01*
X154684841Y-117881401D01*
X154684799Y-117881236D01*
X154688343Y-117868285D01*
X154698408Y-117836180D01*
X154714030Y-117787871D01*
X154734249Y-117726305D01*
X154758101Y-117654433D01*
X154784624Y-117575202D01*
X154785684Y-117572049D01*
X154886703Y-117271612D01*
X154954996Y-117271612D01*
X154991405Y-117273127D01*
G37*
G36*
X153508494Y-119336748D02*
G01*
X153681534Y-119336748D01*
X153681534Y-119511759D01*
X153681534Y-119686771D01*
X153509440Y-119685850D01*
X153447590Y-119685141D01*
X153393548Y-119683813D01*
X153351856Y-119682031D01*
X153327051Y-119679960D01*
X153322761Y-119679044D01*
X153311483Y-119664125D01*
X153308177Y-119644963D01*
X153308177Y-119616766D01*
X153105245Y-119616766D01*
X153029082Y-119616830D01*
X152973140Y-119616024D01*
X152934311Y-119612848D01*
X152909489Y-119605805D01*
X152895568Y-119593396D01*
X152889441Y-119574124D01*
X152888002Y-119546488D01*
X152888149Y-119512054D01*
X152890367Y-119468224D01*
X152897490Y-119444215D01*
X152904875Y-119437833D01*
X152921785Y-119435523D01*
X152957670Y-119433296D01*
X153008168Y-119431336D01*
X153068920Y-119429826D01*
X153110018Y-119429195D01*
X153181461Y-119428073D01*
X153232883Y-119426411D01*
X153267598Y-119423850D01*
X153288918Y-119420031D01*
X153300158Y-119414594D01*
X153304364Y-119408113D01*
X153313009Y-119381179D01*
X153321821Y-119362042D01*
X153334604Y-119349371D01*
X153355164Y-119341837D01*
X153387306Y-119338108D01*
X153434835Y-119336855D01*
X153501556Y-119336747D01*
X153508494Y-119336748D01*
G37*
G36*
X158048279Y-117703307D02*
G01*
X158066612Y-117749977D01*
X158265368Y-117749977D01*
X158464124Y-117749977D01*
X158471954Y-117791715D01*
X158474555Y-117831378D01*
X158470849Y-117875118D01*
X158469525Y-117882137D01*
X158459265Y-117930822D01*
X158262755Y-117934026D01*
X158066245Y-117937231D01*
X158053142Y-117971946D01*
X158037060Y-117997880D01*
X158019261Y-118006661D01*
X158001737Y-118012079D01*
X157998484Y-118018328D01*
X157987726Y-118023513D01*
X157958988Y-118027223D01*
X157917580Y-118029489D01*
X157868809Y-118030337D01*
X157817982Y-118029798D01*
X157770408Y-118027899D01*
X157731394Y-118024669D01*
X157706248Y-118020136D01*
X157699973Y-118016723D01*
X157696494Y-118000093D01*
X157693404Y-117965566D01*
X157690841Y-117918576D01*
X157688942Y-117864558D01*
X157687845Y-117808947D01*
X157687690Y-117757180D01*
X157688612Y-117714692D01*
X157690752Y-117686917D01*
X157691497Y-117682889D01*
X157694765Y-117672583D01*
X157701378Y-117665403D01*
X157715039Y-117660784D01*
X157739453Y-117658162D01*
X157778325Y-117656972D01*
X157835359Y-117656650D01*
X157863804Y-117656638D01*
X158029947Y-117656638D01*
X158048279Y-117703307D01*
G37*
G36*
X155998746Y-115325080D02*
G01*
X156031365Y-115330187D01*
X156047690Y-115337152D01*
X156053566Y-115352615D01*
X156057779Y-115386496D01*
X156060427Y-115440250D01*
X156061607Y-115515331D01*
X156061691Y-115547166D01*
X156061691Y-115743179D01*
X156089718Y-115743179D01*
X156108196Y-115747289D01*
X156121490Y-115761415D01*
X156130148Y-115788255D01*
X156134715Y-115830503D01*
X156135740Y-115890857D01*
X156134117Y-115961943D01*
X156128936Y-116116537D01*
X155955304Y-116116537D01*
X155781672Y-116116537D01*
X155781672Y-115949167D01*
X155782131Y-115878080D01*
X155784291Y-115826617D01*
X155789330Y-115791077D01*
X155798423Y-115767754D01*
X155812746Y-115752947D01*
X155833476Y-115742950D01*
X155848760Y-115737939D01*
X155858362Y-115734289D01*
X155865280Y-115727817D01*
X155869956Y-115715104D01*
X155872827Y-115692729D01*
X155874334Y-115657272D01*
X155874915Y-115605313D01*
X155875012Y-115533627D01*
X155875282Y-115460381D01*
X155876290Y-115407210D01*
X155878331Y-115370860D01*
X155881700Y-115348075D01*
X155886694Y-115335600D01*
X155893467Y-115330233D01*
X155921232Y-115324719D01*
X155959180Y-115323129D01*
X155998746Y-115325080D01*
G37*
G36*
X154318636Y-115325080D02*
G01*
X154351254Y-115330187D01*
X154367579Y-115337152D01*
X154373455Y-115352615D01*
X154377669Y-115386496D01*
X154380317Y-115440250D01*
X154381496Y-115515331D01*
X154381580Y-115547166D01*
X154381580Y-115743179D01*
X154409784Y-115743179D01*
X154435475Y-115752520D01*
X154454314Y-115781115D01*
X154466532Y-115829821D01*
X154472359Y-115899496D01*
X154472441Y-115976528D01*
X154469086Y-116110703D01*
X154285324Y-116113916D01*
X154101562Y-116117129D01*
X154101562Y-115953489D01*
X154101877Y-115887424D01*
X154103147Y-115840603D01*
X154105861Y-115808942D01*
X154110505Y-115788353D01*
X154117568Y-115774752D01*
X154123745Y-115767666D01*
X154150253Y-115747442D01*
X154170415Y-115737711D01*
X154179381Y-115733857D01*
X154185841Y-115726594D01*
X154190205Y-115712506D01*
X154192884Y-115688178D01*
X154194286Y-115650196D01*
X154194822Y-115595146D01*
X154194901Y-115533627D01*
X154195172Y-115460381D01*
X154196180Y-115407210D01*
X154198221Y-115370860D01*
X154201590Y-115348075D01*
X154206583Y-115335600D01*
X154213357Y-115330233D01*
X154241122Y-115324719D01*
X154279070Y-115323129D01*
X154318636Y-115325080D01*
G37*
G36*
X157862248Y-118219277D02*
G01*
X158027372Y-118222508D01*
X158043898Y-118257511D01*
X158059045Y-118284332D01*
X158072831Y-118300823D01*
X158073207Y-118301085D01*
X158088719Y-118303998D01*
X158123317Y-118306510D01*
X158172755Y-118308434D01*
X158232786Y-118309588D01*
X158274338Y-118309835D01*
X158345944Y-118310193D01*
X158397540Y-118311319D01*
X158432446Y-118313530D01*
X158453983Y-118317143D01*
X158465471Y-118322475D01*
X158469767Y-118328469D01*
X158475795Y-118361296D01*
X158476054Y-118404788D01*
X158470911Y-118447097D01*
X158465470Y-118466765D01*
X158454092Y-118496693D01*
X158256384Y-118496693D01*
X158058676Y-118496693D01*
X158051117Y-118531105D01*
X158043559Y-118565516D01*
X157874040Y-118569024D01*
X157810433Y-118569608D01*
X157757616Y-118568666D01*
X157719393Y-118566357D01*
X157699567Y-118562840D01*
X157697792Y-118561604D01*
X157694452Y-118545151D01*
X157691563Y-118510966D01*
X157689254Y-118464650D01*
X157687652Y-118411803D01*
X157686887Y-118358027D01*
X157687086Y-118308923D01*
X157688380Y-118270090D01*
X157690606Y-118248446D01*
X157697123Y-118216046D01*
X157862248Y-118219277D01*
G37*
G36*
X153681534Y-117843317D02*
G01*
X153681534Y-118029996D01*
X153542214Y-118029996D01*
X153478327Y-118028954D01*
X153430794Y-118025977D01*
X153402251Y-118021288D01*
X153395191Y-118017533D01*
X153379300Y-118010033D01*
X153370322Y-118011657D01*
X153342533Y-118011628D01*
X153319032Y-117994898D01*
X153308239Y-117967731D01*
X153308177Y-117965414D01*
X153308177Y-117936656D01*
X153104219Y-117936656D01*
X153027333Y-117936717D01*
X152970775Y-117935805D01*
X152931548Y-117932275D01*
X152906654Y-117924484D01*
X152893096Y-117910787D01*
X152887876Y-117889539D01*
X152887998Y-117859098D01*
X152890377Y-117819358D01*
X152893983Y-117755811D01*
X153101080Y-117752625D01*
X153175087Y-117751406D01*
X153228965Y-117750070D01*
X153265916Y-117748166D01*
X153289142Y-117745244D01*
X153301846Y-117740854D01*
X153307232Y-117734545D01*
X153308501Y-117725867D01*
X153308548Y-117723456D01*
X153310595Y-117699170D01*
X153318080Y-117681571D01*
X153334216Y-117669595D01*
X153362216Y-117662182D01*
X153405293Y-117658269D01*
X153466660Y-117656794D01*
X153510726Y-117656638D01*
X153681534Y-117656638D01*
X153681534Y-117843317D01*
G37*
G36*
X154774421Y-120125434D02*
G01*
X154833564Y-120126351D01*
X154912742Y-120127923D01*
X154918282Y-120128040D01*
X155017455Y-120130137D01*
X155016306Y-120290562D01*
X155015852Y-120360215D01*
X155015177Y-120410101D01*
X155013570Y-120443783D01*
X155010324Y-120464824D01*
X155004730Y-120476787D01*
X154996078Y-120483234D01*
X154983661Y-120487728D01*
X154976619Y-120490075D01*
X154941617Y-120502277D01*
X154941526Y-120698314D01*
X154941435Y-120894350D01*
X154910031Y-120908934D01*
X154869608Y-120920377D01*
X154825486Y-120922106D01*
X154787863Y-120914231D01*
X154775654Y-120907495D01*
X154768015Y-120898947D01*
X154762396Y-120884312D01*
X154758402Y-120860090D01*
X154755638Y-120822784D01*
X154753710Y-120768896D01*
X154752319Y-120700778D01*
X154749104Y-120509342D01*
X154705383Y-120485999D01*
X154661662Y-120462655D01*
X154661630Y-120297643D01*
X154662221Y-120227151D01*
X154664165Y-120177501D01*
X154667676Y-120146226D01*
X154672964Y-120130859D01*
X154676183Y-120128413D01*
X154686195Y-120126662D01*
X154703838Y-120125584D01*
X154732213Y-120125177D01*
X154774421Y-120125434D01*
G37*
G36*
X158027653Y-119336811D02*
G01*
X158050997Y-119380532D01*
X158074341Y-119424254D01*
X158268473Y-119427447D01*
X158339865Y-119428733D01*
X158391347Y-119430208D01*
X158426341Y-119432368D01*
X158448269Y-119435710D01*
X158460553Y-119440731D01*
X158466616Y-119447926D01*
X158469567Y-119456615D01*
X158476340Y-119507889D01*
X158471937Y-119559392D01*
X158463309Y-119587049D01*
X158449769Y-119616766D01*
X158255853Y-119616766D01*
X158061937Y-119616766D01*
X158048725Y-119651769D01*
X158035514Y-119686771D01*
X157865322Y-119686771D01*
X157794750Y-119686242D01*
X157744953Y-119684512D01*
X157713391Y-119681363D01*
X157697524Y-119676579D01*
X157694399Y-119672187D01*
X157692125Y-119616554D01*
X157690489Y-119555933D01*
X157689533Y-119495571D01*
X157689299Y-119440718D01*
X157689829Y-119396619D01*
X157691165Y-119368524D01*
X157691922Y-119363000D01*
X157695026Y-119352664D01*
X157701522Y-119345475D01*
X157715119Y-119340862D01*
X157739524Y-119338255D01*
X157778448Y-119337086D01*
X157835599Y-119336785D01*
X157862657Y-119336780D01*
X158027653Y-119336811D01*
G37*
G36*
X156391550Y-118229858D02*
G01*
X156416298Y-118233791D01*
X156423381Y-118238114D01*
X156419828Y-118250972D01*
X156410062Y-118281913D01*
X156395421Y-118326941D01*
X156377242Y-118382059D01*
X156356863Y-118443270D01*
X156335624Y-118506579D01*
X156314861Y-118567989D01*
X156295913Y-118623503D01*
X156280117Y-118669126D01*
X156268812Y-118700861D01*
X156265516Y-118709624D01*
X156263939Y-118718070D01*
X156269341Y-118723811D01*
X156285238Y-118727360D01*
X156315145Y-118729236D01*
X156362576Y-118729953D01*
X156404632Y-118730042D01*
X156467380Y-118730146D01*
X156510024Y-118731622D01*
X156535793Y-118736217D01*
X156547914Y-118745676D01*
X156549615Y-118761746D01*
X156544124Y-118786173D01*
X156539442Y-118802963D01*
X156527291Y-118846716D01*
X156304798Y-118846716D01*
X156082305Y-118846716D01*
X156088193Y-118820464D01*
X156093469Y-118802538D01*
X156105232Y-118765830D01*
X156122394Y-118713631D01*
X156143867Y-118649231D01*
X156168561Y-118575919D01*
X156190514Y-118511277D01*
X156286946Y-118228342D01*
X156355164Y-118228342D01*
X156391550Y-118229858D01*
G37*
G36*
X155463258Y-120125058D02*
G01*
X155511756Y-120127710D01*
X155548651Y-120131718D01*
X155568719Y-120136872D01*
X155570461Y-120138270D01*
X155572761Y-120152754D01*
X155574240Y-120186073D01*
X155574805Y-120233742D01*
X155574367Y-120291271D01*
X155573988Y-120311559D01*
X155570484Y-120475484D01*
X155536069Y-120488474D01*
X155501654Y-120501464D01*
X155501654Y-120692397D01*
X155501460Y-120763730D01*
X155500606Y-120815420D01*
X155498680Y-120851161D01*
X155495272Y-120874643D01*
X155489972Y-120889558D01*
X155482369Y-120899598D01*
X155478186Y-120903425D01*
X155447863Y-120917421D01*
X155406600Y-120922857D01*
X155365287Y-120919423D01*
X155335691Y-120907495D01*
X155328052Y-120898947D01*
X155322432Y-120884312D01*
X155318438Y-120860090D01*
X155315675Y-120822784D01*
X155313746Y-120768896D01*
X155312356Y-120700778D01*
X155309141Y-120509342D01*
X155265420Y-120485999D01*
X155221698Y-120462655D01*
X155221667Y-120298070D01*
X155221635Y-120133484D01*
X155300391Y-120127354D01*
X155352351Y-120124669D01*
X155408382Y-120123975D01*
X155463258Y-120125058D01*
G37*
G36*
X154305797Y-120125200D02*
G01*
X154366707Y-120128026D01*
X154369913Y-120128268D01*
X154469086Y-120135967D01*
X154472655Y-120264309D01*
X154472952Y-120345180D01*
X154468313Y-120405513D01*
X154458118Y-120447699D01*
X154441743Y-120474132D01*
X154418567Y-120487207D01*
X154414480Y-120488161D01*
X154381580Y-120494741D01*
X154381580Y-120690287D01*
X154381494Y-120761965D01*
X154380914Y-120813918D01*
X154379355Y-120849755D01*
X154376333Y-120873086D01*
X154371365Y-120887519D01*
X154363965Y-120896665D01*
X154353650Y-120904133D01*
X154352822Y-120904676D01*
X154317312Y-120918430D01*
X154274391Y-120922533D01*
X154234741Y-120916765D01*
X154215617Y-120907495D01*
X154207978Y-120898947D01*
X154202359Y-120884312D01*
X154198365Y-120860090D01*
X154195601Y-120822784D01*
X154193673Y-120768896D01*
X154192282Y-120700778D01*
X154189068Y-120509342D01*
X154145346Y-120485999D01*
X154101625Y-120462655D01*
X154101593Y-120298004D01*
X154101562Y-120133352D01*
X154186151Y-120126961D01*
X154241119Y-120124813D01*
X154305797Y-120125200D01*
G37*
G36*
X153681534Y-118951723D02*
G01*
X153681534Y-119126734D01*
X153509440Y-119125813D01*
X153447590Y-119125104D01*
X153393548Y-119123776D01*
X153351856Y-119121994D01*
X153327051Y-119119923D01*
X153322761Y-119119007D01*
X153311483Y-119104089D01*
X153308177Y-119084926D01*
X153308177Y-119056730D01*
X153105245Y-119056730D01*
X153029082Y-119056794D01*
X152973140Y-119055987D01*
X152934311Y-119052811D01*
X152909489Y-119045768D01*
X152895568Y-119033360D01*
X152889441Y-119014087D01*
X152888002Y-118986452D01*
X152888149Y-118952017D01*
X152889960Y-118910107D01*
X152896170Y-118886570D01*
X152906604Y-118877133D01*
X152924082Y-118874746D01*
X152960528Y-118872703D01*
X153011577Y-118871150D01*
X153072863Y-118870234D01*
X153116618Y-118870051D01*
X153308177Y-118870051D01*
X153308177Y-118840049D01*
X153310027Y-118817109D01*
X153317687Y-118800447D01*
X153334324Y-118789077D01*
X153363104Y-118782011D01*
X153407193Y-118778265D01*
X153469757Y-118776852D01*
X153511523Y-118776711D01*
X153681534Y-118776711D01*
X153681534Y-118951723D01*
G37*
G36*
X153681534Y-117283280D02*
G01*
X153681534Y-117469959D01*
X153526941Y-117469492D01*
X153454564Y-117468414D01*
X153401973Y-117465464D01*
X153365670Y-117460304D01*
X153342156Y-117452601D01*
X153340262Y-117451618D01*
X153313830Y-117427768D01*
X153308177Y-117405415D01*
X153308177Y-117376619D01*
X153105245Y-117376619D01*
X153029082Y-117376683D01*
X152973140Y-117375877D01*
X152934311Y-117372701D01*
X152909489Y-117365658D01*
X152895568Y-117353249D01*
X152889441Y-117333977D01*
X152888002Y-117306341D01*
X152888149Y-117271907D01*
X152889960Y-117229997D01*
X152896170Y-117206460D01*
X152906604Y-117197022D01*
X152924082Y-117194636D01*
X152960528Y-117192593D01*
X153011577Y-117191039D01*
X153072863Y-117190124D01*
X153116618Y-117189940D01*
X153308177Y-117189940D01*
X153308177Y-117159938D01*
X153310027Y-117136999D01*
X153317687Y-117120337D01*
X153334324Y-117108966D01*
X153363104Y-117101901D01*
X153407193Y-117098155D01*
X153469757Y-117096741D01*
X153511523Y-117096601D01*
X153681534Y-117096601D01*
X153681534Y-117283280D01*
G37*
G36*
X157862319Y-118776743D02*
G01*
X158027653Y-118776774D01*
X158050996Y-118820496D01*
X158074340Y-118864217D01*
X158266341Y-118867434D01*
X158346577Y-118869428D01*
X158405148Y-118872435D01*
X158443707Y-118876598D01*
X158463906Y-118882061D01*
X158467417Y-118884936D01*
X158473938Y-118908369D01*
X158476379Y-118945126D01*
X158474911Y-118985584D01*
X158469703Y-119020123D01*
X158464771Y-119034162D01*
X158458798Y-119042456D01*
X158448814Y-119048433D01*
X158431343Y-119052468D01*
X158402909Y-119054937D01*
X158360034Y-119056217D01*
X158299244Y-119056683D01*
X158256216Y-119056730D01*
X158059738Y-119056730D01*
X158052738Y-119091732D01*
X158045737Y-119126734D01*
X157870434Y-119126734D01*
X157695131Y-119126734D01*
X157694046Y-119094649D01*
X157693139Y-119068914D01*
X157691624Y-119027074D01*
X157689764Y-118976340D01*
X157688854Y-118951723D01*
X157687672Y-118899328D01*
X157687969Y-118852463D01*
X157689643Y-118818335D01*
X157690866Y-118808797D01*
X157696985Y-118776711D01*
X157862319Y-118776743D01*
G37*
G36*
X155918586Y-120124222D02*
G01*
X155994471Y-120125726D01*
X156052940Y-120127484D01*
X156131695Y-120130133D01*
X156131695Y-120304004D01*
X156131695Y-120477874D01*
X156096693Y-120490075D01*
X156061691Y-120502277D01*
X156061691Y-120694055D01*
X156061600Y-120764945D01*
X156060996Y-120816152D01*
X156059379Y-120851328D01*
X156056251Y-120874124D01*
X156051114Y-120888192D01*
X156043469Y-120897184D01*
X156032932Y-120904676D01*
X155997422Y-120918430D01*
X155954501Y-120922533D01*
X155914851Y-120916765D01*
X155895728Y-120907495D01*
X155888088Y-120898947D01*
X155882469Y-120884312D01*
X155878475Y-120860090D01*
X155875711Y-120822784D01*
X155873783Y-120768896D01*
X155872393Y-120700778D01*
X155869178Y-120509342D01*
X155825457Y-120485999D01*
X155781735Y-120462655D01*
X155781704Y-120297643D01*
X155782305Y-120226925D01*
X155784280Y-120177069D01*
X155787838Y-120145630D01*
X155793188Y-120130162D01*
X155796256Y-120127755D01*
X155817018Y-120125239D01*
X155858615Y-120124060D01*
X155918586Y-120124222D01*
G37*
G36*
X157862313Y-117099204D02*
G01*
X158027502Y-117102435D01*
X158048087Y-117146188D01*
X158068673Y-117189940D01*
X158266398Y-117189940D01*
X158464124Y-117189940D01*
X158471800Y-117230854D01*
X158474879Y-117269231D01*
X158472961Y-117313548D01*
X158471614Y-117324194D01*
X158463752Y-117376619D01*
X158265870Y-117376619D01*
X158067989Y-117376619D01*
X158053797Y-117408705D01*
X158041990Y-117431973D01*
X158027860Y-117448393D01*
X158007396Y-117459161D01*
X157976588Y-117465475D01*
X157931423Y-117468530D01*
X157867892Y-117469524D01*
X157849725Y-117469588D01*
X157787195Y-117469602D01*
X157744265Y-117468878D01*
X157717198Y-117466796D01*
X157702260Y-117462737D01*
X157695715Y-117456082D01*
X157693827Y-117446210D01*
X157693675Y-117443707D01*
X157691255Y-117389119D01*
X157689538Y-117328389D01*
X157688565Y-117267024D01*
X157688378Y-117210531D01*
X157689019Y-117164414D01*
X157690530Y-117134181D01*
X157691272Y-117128372D01*
X157697123Y-117095972D01*
X157862313Y-117099204D01*
G37*
G36*
X156691732Y-120304004D02*
G01*
X156691732Y-120477874D01*
X156656730Y-120490075D01*
X156621727Y-120502277D01*
X156621727Y-120694055D01*
X156621637Y-120764945D01*
X156621032Y-120816152D01*
X156619416Y-120851328D01*
X156616288Y-120874124D01*
X156611151Y-120888192D01*
X156603506Y-120897184D01*
X156592969Y-120904676D01*
X156557263Y-120918488D01*
X156514171Y-120922512D01*
X156474392Y-120916544D01*
X156455466Y-120907277D01*
X156447534Y-120898722D01*
X156441936Y-120884605D01*
X156438280Y-120861232D01*
X156436175Y-120824908D01*
X156435231Y-120771937D01*
X156435048Y-120714369D01*
X156434321Y-120650883D01*
X156432320Y-120594513D01*
X156429312Y-120549934D01*
X156425566Y-120521817D01*
X156423627Y-120515619D01*
X156404830Y-120496667D01*
X156376958Y-120481991D01*
X156341709Y-120469703D01*
X156341709Y-120299918D01*
X156341709Y-120130133D01*
X156516720Y-120130133D01*
X156691732Y-120130133D01*
X156691732Y-120304004D01*
G37*
G36*
X156183891Y-118228876D02*
G01*
X156203699Y-118231857D01*
X156209802Y-118239354D01*
X156207013Y-118253435D01*
X156206649Y-118254594D01*
X156200688Y-118272557D01*
X156188280Y-118309280D01*
X156170551Y-118361454D01*
X156148629Y-118425765D01*
X156123639Y-118498904D01*
X156102430Y-118560864D01*
X156006501Y-118840882D01*
X155933446Y-118844394D01*
X155893203Y-118845401D01*
X155872005Y-118842964D01*
X155865708Y-118836269D01*
X155866762Y-118831304D01*
X155872207Y-118815927D01*
X155884040Y-118781765D01*
X155901124Y-118732122D01*
X155922323Y-118670304D01*
X155946501Y-118599613D01*
X155962208Y-118553608D01*
X155988065Y-118477999D01*
X156012050Y-118408208D01*
X156032931Y-118347794D01*
X156049473Y-118300320D01*
X156060444Y-118269345D01*
X156063736Y-118260427D01*
X156072516Y-118242470D01*
X156085400Y-118232860D01*
X156108981Y-118229013D01*
X156145564Y-118228342D01*
X156183891Y-118228876D01*
G37*
G36*
X157118086Y-115325067D02*
G01*
X157152033Y-115329981D01*
X157165205Y-115335600D01*
X157171567Y-115345642D01*
X157176159Y-115365643D01*
X157179220Y-115398665D01*
X157180992Y-115447772D01*
X157181714Y-115516025D01*
X157181764Y-115546261D01*
X157181764Y-115743179D01*
X157209684Y-115743179D01*
X157234036Y-115750063D01*
X157244687Y-115761634D01*
X157247226Y-115779499D01*
X157249362Y-115815961D01*
X157250915Y-115866283D01*
X157251706Y-115925728D01*
X157251769Y-115948313D01*
X157251769Y-116116537D01*
X157076757Y-116116537D01*
X156901746Y-116116537D01*
X156901746Y-115942369D01*
X156901746Y-115768202D01*
X156948415Y-115747611D01*
X156995085Y-115727021D01*
X156995085Y-115526925D01*
X156995085Y-115326829D01*
X157071865Y-115324343D01*
X157118086Y-115325067D01*
G37*
G36*
X156559705Y-115325198D02*
G01*
X156593322Y-115330703D01*
X156607726Y-115337152D01*
X156613602Y-115352615D01*
X156617816Y-115386496D01*
X156620464Y-115440250D01*
X156621643Y-115515331D01*
X156621727Y-115547166D01*
X156621727Y-115743179D01*
X156649648Y-115743179D01*
X156673999Y-115750063D01*
X156684650Y-115761634D01*
X156687190Y-115779499D01*
X156689326Y-115815961D01*
X156690879Y-115866283D01*
X156691669Y-115925728D01*
X156691732Y-115948313D01*
X156691732Y-116116537D01*
X156516720Y-116116537D01*
X156341709Y-116116537D01*
X156341709Y-115942369D01*
X156341709Y-115768202D01*
X156388379Y-115747611D01*
X156435048Y-115727021D01*
X156435048Y-115525086D01*
X156435048Y-115323151D01*
X156514387Y-115323151D01*
X156559705Y-115325198D01*
G37*
G36*
X154358769Y-119347786D02*
G01*
X154404604Y-119375717D01*
X154438007Y-119417514D01*
X154459483Y-119471356D01*
X154459691Y-119522132D01*
X154445698Y-119562500D01*
X154412163Y-119607850D01*
X154365571Y-119637767D01*
X154311748Y-119650524D01*
X154256523Y-119644393D01*
X154221720Y-119628906D01*
X154178510Y-119590321D01*
X154154523Y-119541302D01*
X154150683Y-119485890D01*
X154167910Y-119428129D01*
X154173477Y-119417514D01*
X154210181Y-119372865D01*
X154256601Y-119346360D01*
X154307782Y-119338001D01*
X154358769Y-119347786D01*
G37*
G36*
X155031067Y-115992084D02*
G01*
X155032464Y-116005931D01*
X155031067Y-116007641D01*
X155024131Y-116006039D01*
X155023289Y-115999862D01*
X155027558Y-115990259D01*
X155031067Y-115992084D01*
G37*
G36*
X155031067Y-115933747D02*
G01*
X155032464Y-115947593D01*
X155031067Y-115949303D01*
X155024131Y-115947702D01*
X155023289Y-115941525D01*
X155027558Y-115931922D01*
X155031067Y-115933747D01*
G37*
G36*
X155034957Y-120334313D02*
G01*
X155029123Y-120340147D01*
X155023289Y-120334313D01*
X155029123Y-120328480D01*
X155034957Y-120334313D01*
G37*
D11*
%TO.C,U2*%
X165250000Y-106900000D02*
G75*
G02*
X163250000Y-106900000I-1000000J0D01*
G01*
X166900000Y-117180000D02*
X166900000Y-106900000D01*
X166900000Y-106900000D02*
X165250000Y-106900000D01*
X163250000Y-106900000D02*
X161600000Y-106900000D01*
X161600000Y-117180000D02*
X166900000Y-117180000D01*
X161600000Y-106900000D02*
X161600000Y-117180000D01*
%TO.C,R2*%
X173030000Y-115320000D02*
X172700000Y-115320000D01*
X173030000Y-108780000D02*
X173030000Y-115320000D01*
X172700000Y-108780000D02*
X173030000Y-108780000D01*
X170620000Y-108780000D02*
X170290000Y-108780000D01*
X170290000Y-115320000D02*
X170620000Y-115320000D01*
X170290000Y-108780000D02*
X170290000Y-115320000D01*
%TO.C,C3*%
X149580000Y-136615000D02*
X149580000Y-135085000D01*
X151420000Y-135085000D02*
X151420000Y-136615000D01*
%TO.C,C1*%
X176665000Y-118420000D02*
X175135000Y-118420000D01*
X175135000Y-116580000D02*
X176665000Y-116580000D01*
%TO.C,J2*%
X148570000Y-137120000D02*
X148570000Y-138500000D01*
X147190000Y-137120000D02*
X148570000Y-137120000D01*
X145920000Y-137120000D02*
X140730000Y-137120000D01*
X145920000Y-137120000D02*
X145920000Y-139880000D01*
X140730000Y-137120000D02*
X140730000Y-139880000D01*
X145920000Y-139880000D02*
X140730000Y-139880000D01*
%TO.C,C4*%
X151990113Y-135275000D02*
X152490113Y-135275000D01*
X152240113Y-135025000D02*
X152240113Y-135525000D01*
X154794888Y-134170000D02*
X154794888Y-139330000D01*
X154834888Y-134170000D02*
X154834888Y-139330000D01*
X154874888Y-134171000D02*
X154874888Y-139329000D01*
X154914888Y-134173000D02*
X154914888Y-139327000D01*
X154954888Y-134175000D02*
X154954888Y-139325000D01*
X154994888Y-134178000D02*
X154994888Y-139322000D01*
X155034888Y-134181000D02*
X155034888Y-135710000D01*
X155034888Y-137790000D02*
X155034888Y-139319000D01*
X155074888Y-134185000D02*
X155074888Y-135710000D01*
X155074888Y-137790000D02*
X155074888Y-139315000D01*
X155114888Y-134190000D02*
X155114888Y-135710000D01*
X155114888Y-137790000D02*
X155114888Y-139310000D01*
X155154888Y-134195000D02*
X155154888Y-135710000D01*
X155154888Y-137790000D02*
X155154888Y-139305000D01*
X155194888Y-134201000D02*
X155194888Y-135710000D01*
X155194888Y-137790000D02*
X155194888Y-139299000D01*
X155234888Y-134207000D02*
X155234888Y-135710000D01*
X155234888Y-137790000D02*
X155234888Y-139293000D01*
X155274888Y-134214000D02*
X155274888Y-135710000D01*
X155274888Y-137790000D02*
X155274888Y-139286000D01*
X155314888Y-134222000D02*
X155314888Y-135710000D01*
X155314888Y-137790000D02*
X155314888Y-139278000D01*
X155354888Y-134231000D02*
X155354888Y-135710000D01*
X155354888Y-137790000D02*
X155354888Y-139269000D01*
X155394888Y-134240000D02*
X155394888Y-135710000D01*
X155394888Y-137790000D02*
X155394888Y-139260000D01*
X155434888Y-134249000D02*
X155434888Y-135710000D01*
X155434888Y-137790000D02*
X155434888Y-139251000D01*
X155474888Y-134260000D02*
X155474888Y-135710000D01*
X155474888Y-137790000D02*
X155474888Y-139240000D01*
X155514888Y-134271000D02*
X155514888Y-135710000D01*
X155514888Y-137790000D02*
X155514888Y-139229000D01*
X155554888Y-134283000D02*
X155554888Y-135710000D01*
X155554888Y-137790000D02*
X155554888Y-139217000D01*
X155594888Y-134295000D02*
X155594888Y-135710000D01*
X155594888Y-137790000D02*
X155594888Y-139205000D01*
X155634888Y-134308000D02*
X155634888Y-135710000D01*
X155634888Y-137790000D02*
X155634888Y-139192000D01*
X155674888Y-134322000D02*
X155674888Y-135710000D01*
X155674888Y-137790000D02*
X155674888Y-139178000D01*
X155714888Y-134337000D02*
X155714888Y-135710000D01*
X155714888Y-137790000D02*
X155714888Y-139163000D01*
X155754888Y-134352000D02*
X155754888Y-135710000D01*
X155754888Y-137790000D02*
X155754888Y-139148000D01*
X155794888Y-134368000D02*
X155794888Y-135710000D01*
X155794888Y-137790000D02*
X155794888Y-139132000D01*
X155834888Y-134385000D02*
X155834888Y-135710000D01*
X155834888Y-137790000D02*
X155834888Y-139115000D01*
X155874888Y-134403000D02*
X155874888Y-135710000D01*
X155874888Y-137790000D02*
X155874888Y-139097000D01*
X155914888Y-134421000D02*
X155914888Y-135710000D01*
X155914888Y-137790000D02*
X155914888Y-139079000D01*
X155954888Y-134441000D02*
X155954888Y-135710000D01*
X155954888Y-137790000D02*
X155954888Y-139059000D01*
X155994888Y-134461000D02*
X155994888Y-135710000D01*
X155994888Y-137790000D02*
X155994888Y-139039000D01*
X156034888Y-134482000D02*
X156034888Y-135710000D01*
X156034888Y-137790000D02*
X156034888Y-139018000D01*
X156074888Y-134504000D02*
X156074888Y-135710000D01*
X156074888Y-137790000D02*
X156074888Y-138996000D01*
X156114888Y-134527000D02*
X156114888Y-135710000D01*
X156114888Y-137790000D02*
X156114888Y-138973000D01*
X156154888Y-134551000D02*
X156154888Y-135710000D01*
X156154888Y-137790000D02*
X156154888Y-138949000D01*
X156194888Y-134575000D02*
X156194888Y-135710000D01*
X156194888Y-137790000D02*
X156194888Y-138925000D01*
X156234888Y-134601000D02*
X156234888Y-135710000D01*
X156234888Y-137790000D02*
X156234888Y-138899000D01*
X156274888Y-134628000D02*
X156274888Y-135710000D01*
X156274888Y-137790000D02*
X156274888Y-138872000D01*
X156314888Y-134656000D02*
X156314888Y-135710000D01*
X156314888Y-137790000D02*
X156314888Y-138844000D01*
X156354888Y-134685000D02*
X156354888Y-135710000D01*
X156354888Y-137790000D02*
X156354888Y-138815000D01*
X156394888Y-134715000D02*
X156394888Y-135710000D01*
X156394888Y-137790000D02*
X156394888Y-138785000D01*
X156434888Y-134747000D02*
X156434888Y-135710000D01*
X156434888Y-137790000D02*
X156434888Y-138753000D01*
X156474888Y-134780000D02*
X156474888Y-135710000D01*
X156474888Y-137790000D02*
X156474888Y-138720000D01*
X156514888Y-134814000D02*
X156514888Y-135710000D01*
X156514888Y-137790000D02*
X156514888Y-138686000D01*
X156554888Y-134849000D02*
X156554888Y-135710000D01*
X156554888Y-137790000D02*
X156554888Y-138651000D01*
X156594888Y-134886000D02*
X156594888Y-135710000D01*
X156594888Y-137790000D02*
X156594888Y-138614000D01*
X156634888Y-134925000D02*
X156634888Y-135710000D01*
X156634888Y-137790000D02*
X156634888Y-138575000D01*
X156674888Y-134965000D02*
X156674888Y-135710000D01*
X156674888Y-137790000D02*
X156674888Y-138535000D01*
X156714888Y-135007000D02*
X156714888Y-135710000D01*
X156714888Y-137790000D02*
X156714888Y-138493000D01*
X156754888Y-135051000D02*
X156754888Y-135710000D01*
X156754888Y-137790000D02*
X156754888Y-138449000D01*
X156794888Y-135098000D02*
X156794888Y-135710000D01*
X156794888Y-137790000D02*
X156794888Y-138402000D01*
X156834888Y-135146000D02*
X156834888Y-135710000D01*
X156834888Y-137790000D02*
X156834888Y-138354000D01*
X156874888Y-135197000D02*
X156874888Y-135710000D01*
X156874888Y-137790000D02*
X156874888Y-138303000D01*
X156914888Y-135251000D02*
X156914888Y-135710000D01*
X156914888Y-137790000D02*
X156914888Y-138249000D01*
X156954888Y-135307000D02*
X156954888Y-135710000D01*
X156954888Y-137790000D02*
X156954888Y-138193000D01*
X156994888Y-135367000D02*
X156994888Y-135710000D01*
X156994888Y-137790000D02*
X156994888Y-138133000D01*
X157034888Y-135431000D02*
X157034888Y-135710000D01*
X157034888Y-137790000D02*
X157034888Y-138069000D01*
X157074888Y-135499000D02*
X157074888Y-135710000D01*
X157074888Y-137790000D02*
X157074888Y-138001000D01*
X157114888Y-135573000D02*
X157114888Y-137927000D01*
X157154888Y-135652000D02*
X157154888Y-137848000D01*
X157194888Y-135739000D02*
X157194888Y-137761000D01*
X157234888Y-135836000D02*
X157234888Y-137664000D01*
X157274888Y-135945000D02*
X157274888Y-137555000D01*
X157314888Y-136073000D02*
X157314888Y-137427000D01*
X157354888Y-136233000D02*
X157354888Y-137267000D01*
X157394888Y-136467000D02*
X157394888Y-137033000D01*
X157414888Y-136750000D02*
G75*
G02*
X152174888Y-136750000I-2620000J0D01*
G01*
X152174888Y-136750000D02*
G75*
G02*
X157414888Y-136750000I2620000J0D01*
G01*
%TO.C,C2*%
X173707600Y-112655000D02*
X174107600Y-112655000D01*
X173907600Y-112455000D02*
X173907600Y-112855000D01*
X175977401Y-111770000D02*
X175977401Y-113010000D01*
X175977401Y-114690000D02*
X175977401Y-115930000D01*
X176017401Y-111770000D02*
X176017401Y-113010000D01*
X176017401Y-114690000D02*
X176017401Y-115930000D01*
X176057401Y-111772000D02*
X176057401Y-113010000D01*
X176057401Y-114690000D02*
X176057401Y-115928000D01*
X176097401Y-111773000D02*
X176097401Y-113010000D01*
X176097401Y-114690000D02*
X176097401Y-115927000D01*
X176137401Y-111776000D02*
X176137401Y-113010000D01*
X176137401Y-114690000D02*
X176137401Y-115924000D01*
X176177401Y-111779000D02*
X176177401Y-113010000D01*
X176177401Y-114690000D02*
X176177401Y-115921000D01*
X176217401Y-111784000D02*
X176217401Y-113010000D01*
X176217401Y-114690000D02*
X176217401Y-115916000D01*
X176257401Y-111789000D02*
X176257401Y-113010000D01*
X176257401Y-114690000D02*
X176257401Y-115911000D01*
X176297401Y-111794000D02*
X176297401Y-113010000D01*
X176297401Y-114690000D02*
X176297401Y-115906000D01*
X176337401Y-111801000D02*
X176337401Y-113010000D01*
X176337401Y-114690000D02*
X176337401Y-115899000D01*
X176377401Y-111808000D02*
X176377401Y-113010000D01*
X176377401Y-114690000D02*
X176377401Y-115892000D01*
X176417401Y-111816000D02*
X176417401Y-113010000D01*
X176417401Y-114690000D02*
X176417401Y-115884000D01*
X176457401Y-111825000D02*
X176457401Y-113010000D01*
X176457401Y-114690000D02*
X176457401Y-115875000D01*
X176497401Y-111835000D02*
X176497401Y-113010000D01*
X176497401Y-114690000D02*
X176497401Y-115865000D01*
X176537401Y-111845000D02*
X176537401Y-113010000D01*
X176537401Y-114690000D02*
X176537401Y-115855000D01*
X176577401Y-111857000D02*
X176577401Y-113010000D01*
X176577401Y-114690000D02*
X176577401Y-115843000D01*
X176617401Y-111869000D02*
X176617401Y-113010000D01*
X176617401Y-114690000D02*
X176617401Y-115831000D01*
X176657401Y-111882000D02*
X176657401Y-113010000D01*
X176657401Y-114690000D02*
X176657401Y-115818000D01*
X176697401Y-111896000D02*
X176697401Y-113010000D01*
X176697401Y-114690000D02*
X176697401Y-115804000D01*
X176737401Y-111911000D02*
X176737401Y-113010000D01*
X176737401Y-114690000D02*
X176737401Y-115789000D01*
X176777401Y-111927000D02*
X176777401Y-113010000D01*
X176777401Y-114690000D02*
X176777401Y-115773000D01*
X176817401Y-111944000D02*
X176817401Y-113010000D01*
X176817401Y-114690000D02*
X176817401Y-115756000D01*
X176857401Y-111961000D02*
X176857401Y-113010000D01*
X176857401Y-114690000D02*
X176857401Y-115739000D01*
X176897401Y-111980000D02*
X176897401Y-113010000D01*
X176897401Y-114690000D02*
X176897401Y-115720000D01*
X176937401Y-112000000D02*
X176937401Y-113010000D01*
X176937401Y-114690000D02*
X176937401Y-115700000D01*
X176977401Y-112021000D02*
X176977401Y-113010000D01*
X176977401Y-114690000D02*
X176977401Y-115679000D01*
X177017401Y-112043000D02*
X177017401Y-113010000D01*
X177017401Y-114690000D02*
X177017401Y-115657000D01*
X177057401Y-112066000D02*
X177057401Y-113010000D01*
X177057401Y-114690000D02*
X177057401Y-115634000D01*
X177097401Y-112090000D02*
X177097401Y-113010000D01*
X177097401Y-114690000D02*
X177097401Y-115610000D01*
X177137401Y-112116000D02*
X177137401Y-113010000D01*
X177137401Y-114690000D02*
X177137401Y-115584000D01*
X177177401Y-112142000D02*
X177177401Y-113010000D01*
X177177401Y-114690000D02*
X177177401Y-115558000D01*
X177217401Y-112170000D02*
X177217401Y-113010000D01*
X177217401Y-114690000D02*
X177217401Y-115530000D01*
X177257401Y-112200000D02*
X177257401Y-113010000D01*
X177257401Y-114690000D02*
X177257401Y-115500000D01*
X177297401Y-112231000D02*
X177297401Y-113010000D01*
X177297401Y-114690000D02*
X177297401Y-115469000D01*
X177337401Y-112264000D02*
X177337401Y-113010000D01*
X177337401Y-114690000D02*
X177337401Y-115436000D01*
X177377401Y-112298000D02*
X177377401Y-113010000D01*
X177377401Y-114690000D02*
X177377401Y-115402000D01*
X177417401Y-112334000D02*
X177417401Y-113010000D01*
X177417401Y-114690000D02*
X177417401Y-115366000D01*
X177457401Y-112372000D02*
X177457401Y-113010000D01*
X177457401Y-114690000D02*
X177457401Y-115328000D01*
X177497401Y-112412000D02*
X177497401Y-113010000D01*
X177497401Y-114690000D02*
X177497401Y-115288000D01*
X177537401Y-112454000D02*
X177537401Y-113010000D01*
X177537401Y-114690000D02*
X177537401Y-115246000D01*
X177577401Y-112499000D02*
X177577401Y-115201000D01*
X177617401Y-112547000D02*
X177617401Y-115153000D01*
X177657401Y-112597000D02*
X177657401Y-115103000D01*
X177697401Y-112651000D02*
X177697401Y-115049000D01*
X177737401Y-112708000D02*
X177737401Y-114992000D01*
X177777401Y-112770000D02*
X177777401Y-114930000D01*
X177817401Y-112837000D02*
X177817401Y-114863000D01*
X177857401Y-112910000D02*
X177857401Y-114790000D01*
X177897401Y-112991000D02*
X177897401Y-114709000D01*
X177937401Y-113082000D02*
X177937401Y-114618000D01*
X177977401Y-113187000D02*
X177977401Y-114513000D01*
X178017401Y-113313000D02*
X178017401Y-114387000D01*
X178057401Y-113480000D02*
X178057401Y-114220000D01*
X178097401Y-113850000D02*
G75*
G02*
X173857401Y-113850000I-2120000J0D01*
G01*
X173857401Y-113850000D02*
G75*
G02*
X178097401Y-113850000I2120000J0D01*
G01*
%TO.C,D1*%
X165810000Y-120250000D02*
X166830000Y-120250000D01*
X167610000Y-118780000D02*
X167610000Y-121720000D01*
X167730000Y-118780000D02*
X167730000Y-121720000D01*
X167850000Y-118780000D02*
X167850000Y-121720000D01*
X173290000Y-120250000D02*
X172270000Y-120250000D01*
X166830000Y-118780000D02*
X172270000Y-118780000D01*
X172270000Y-121720000D01*
X166830000Y-121720000D01*
X166830000Y-118780000D01*
%TO.C,U3*%
X156040000Y-122940000D02*
X157300000Y-122940000D01*
X156040000Y-126700000D02*
X156040000Y-122940000D01*
X162860000Y-122940000D02*
X161600000Y-122940000D01*
X162860000Y-126700000D02*
X162860000Y-122940000D01*
X156140000Y-127980000D02*
X155810000Y-128220000D01*
X155810000Y-127740000D01*
X156140000Y-127980000D01*
G36*
X156140000Y-127980000D02*
G01*
X155810000Y-128220000D01*
X155810000Y-127740000D01*
X156140000Y-127980000D01*
G37*
%TO.C,R6*%
X136630000Y-123565000D02*
X136960000Y-123565000D01*
X136630000Y-130105000D02*
X136630000Y-123565000D01*
X136960000Y-130105000D02*
X136630000Y-130105000D01*
X139040000Y-130105000D02*
X139370000Y-130105000D01*
X139370000Y-123565000D02*
X139040000Y-123565000D01*
X139370000Y-130105000D02*
X139370000Y-123565000D01*
%TO.C,R1*%
X144230000Y-118380000D02*
X150770000Y-118380000D01*
X144230000Y-118710000D02*
X144230000Y-118380000D01*
X144230000Y-120790000D02*
X144230000Y-121120000D01*
X144230000Y-121120000D02*
X150770000Y-121120000D01*
X150770000Y-118380000D02*
X150770000Y-118710000D01*
X150770000Y-121120000D02*
X150770000Y-120790000D01*
%TO.C,R5*%
X151680000Y-123980000D02*
X151680000Y-130520000D01*
X151680000Y-130520000D02*
X152010000Y-130520000D01*
X152010000Y-123980000D02*
X151680000Y-123980000D01*
X154090000Y-123980000D02*
X154420000Y-123980000D01*
X154420000Y-123980000D02*
X154420000Y-130520000D01*
X154420000Y-130520000D02*
X154090000Y-130520000D01*
%TO.C,R3*%
X140130000Y-133080000D02*
X146670000Y-133080000D01*
X140130000Y-133410000D02*
X140130000Y-133080000D01*
X140130000Y-135490000D02*
X140130000Y-135820000D01*
X140130000Y-135820000D02*
X146670000Y-135820000D01*
X146670000Y-133080000D02*
X146670000Y-133410000D01*
X146670000Y-135820000D02*
X146670000Y-135490000D01*
%TO.C,K1*%
X165520000Y-124370000D02*
X167720000Y-124370000D01*
X165520000Y-126470000D02*
X165520000Y-124370000D01*
X165720000Y-124570000D02*
X173520000Y-124570000D01*
X165720000Y-139770000D02*
X165720000Y-124570000D01*
X167820000Y-127370000D02*
X167820000Y-127648000D01*
X167820000Y-127648000D02*
X168542000Y-127648000D01*
X168542000Y-127140000D02*
X168542000Y-128156000D01*
X168542000Y-128156000D02*
X170447000Y-128156000D01*
X170066000Y-127140000D02*
X169431000Y-128156000D01*
X170447000Y-127140000D02*
X168542000Y-127140000D01*
X170447000Y-127140000D02*
X170447000Y-128156000D01*
X171082000Y-127013000D02*
X171082000Y-127648000D01*
X171082000Y-127648000D02*
X170447000Y-127648000D01*
X173520000Y-124570000D02*
X173520000Y-139770000D01*
X173520000Y-139770000D02*
X165720000Y-139770000D01*
%TO.C,J1*%
X175520000Y-129560000D02*
X176900000Y-129560000D01*
X175520000Y-130940000D02*
X175520000Y-129560000D01*
X175520000Y-132210000D02*
X175520000Y-139940000D01*
X175520000Y-132210000D02*
X178280000Y-132210000D01*
X175520000Y-139940000D02*
X178280000Y-139940000D01*
X178280000Y-132210000D02*
X178280000Y-139940000D01*
%TO.C,R8*%
X133180000Y-123530000D02*
X133510000Y-123530000D01*
X133180000Y-130070000D02*
X133180000Y-123530000D01*
X133510000Y-130070000D02*
X133180000Y-130070000D01*
X135590000Y-130070000D02*
X135920000Y-130070000D01*
X135920000Y-123530000D02*
X135590000Y-123530000D01*
X135920000Y-130070000D02*
X135920000Y-123530000D01*
%TO.C,R4*%
X150980000Y-111930000D02*
X150980000Y-112260000D01*
X150980000Y-114670000D02*
X150980000Y-114340000D01*
X157520000Y-111930000D02*
X150980000Y-111930000D01*
X157520000Y-112260000D02*
X157520000Y-111930000D01*
X157520000Y-114340000D02*
X157520000Y-114670000D01*
X157520000Y-114670000D02*
X150980000Y-114670000D01*
%TO.C,R7*%
X150390000Y-106880000D02*
X156930000Y-106880000D01*
X150390000Y-107210000D02*
X150390000Y-106880000D01*
X150390000Y-109290000D02*
X150390000Y-109620000D01*
X150390000Y-109620000D02*
X156930000Y-109620000D01*
X156930000Y-106880000D02*
X156930000Y-107210000D01*
X156930000Y-109620000D02*
X156930000Y-109290000D01*
%TO.C,Q3*%
X136210000Y-113800000D02*
X139810000Y-113800000D01*
X135653600Y-110851193D02*
G75*
G02*
X138010000Y-109350000I2356400J-1098807D01*
G01*
X136210000Y-113800000D02*
G75*
G02*
X135685816Y-113072795I1800000J1850000D01*
G01*
X138010000Y-109350000D02*
G75*
G02*
X140366400Y-110851193I0J-2600000D01*
G01*
X140334184Y-113072795D02*
G75*
G02*
X139810000Y-113800000I-2324184J1122795D01*
G01*
%TO.C,Q1*%
X136200000Y-120235000D02*
X139800000Y-120235000D01*
X135643600Y-117286193D02*
G75*
G02*
X138000000Y-115785000I2356400J-1098807D01*
G01*
X136200000Y-120235000D02*
G75*
G02*
X135675816Y-119507795I1800000J1850000D01*
G01*
X138000000Y-115785000D02*
G75*
G02*
X140356400Y-117286193I0J-2600000D01*
G01*
X140324184Y-119507795D02*
G75*
G02*
X139800000Y-120235000I-2324184J1122795D01*
G01*
%TO.C,Q2*%
X143740000Y-117150000D02*
X147340000Y-117150000D01*
X143183600Y-114201193D02*
G75*
G02*
X145540000Y-112700000I2356400J-1098807D01*
G01*
X143740000Y-117150000D02*
G75*
G02*
X143215816Y-116422795I1800000J1850000D01*
G01*
X145540000Y-112700000D02*
G75*
G02*
X147896400Y-114201193I0J-2600000D01*
G01*
X147864184Y-116422795D02*
G75*
G02*
X147340000Y-117150000I-2324184J1122795D01*
G01*
%TO.C,U1*%
X142855000Y-122110000D02*
X142855000Y-132390000D01*
X142855000Y-132390000D02*
X148155000Y-132390000D01*
X144505000Y-122110000D02*
X142855000Y-122110000D01*
X148155000Y-122110000D02*
X146505000Y-122110000D01*
X148155000Y-132390000D02*
X148155000Y-122110000D01*
X146505000Y-122110000D02*
G75*
G02*
X144505000Y-122110000I-1000000J0D01*
G01*
%TD*%
%LPC*%
D13*
%TO.C,C6*%
X161977401Y-132000000D03*
D14*
X163477401Y-132000000D03*
%TD*%
D15*
%TO.C,C5*%
X158450000Y-132000000D03*
D14*
X156950000Y-132000000D03*
%TD*%
D16*
%TO.C,REF\u002A\u002A*%
X176150000Y-108400000D03*
D17*
X176150000Y-108400000D03*
%TD*%
D18*
%TO.C,U2*%
X168060000Y-108230000D03*
X168060000Y-110770000D03*
X168060000Y-113310000D03*
X168060000Y-115850000D03*
X160440000Y-115850000D03*
X160440000Y-113310000D03*
X160440000Y-110770000D03*
D19*
X160440000Y-108230000D03*
%TD*%
D18*
%TO.C,R2*%
X171660000Y-115860000D03*
X171660000Y-108240000D03*
%TD*%
D17*
%TO.C,REF\u002A\u002A*%
X135650000Y-136400000D03*
D16*
X135650000Y-136400000D03*
%TD*%
D18*
%TO.C,C3*%
X150500000Y-137100000D03*
X150500000Y-134600000D03*
%TD*%
%TO.C,C1*%
X177150000Y-117500000D03*
X174650000Y-117500000D03*
%TD*%
D20*
%TO.C,J2*%
X147190000Y-138500000D03*
D21*
X144650000Y-138500000D03*
X142110000Y-138500000D03*
%TD*%
D19*
%TO.C,C4*%
X153544888Y-136750000D03*
D18*
X156044888Y-136750000D03*
%TD*%
D17*
%TO.C,REF\u002A\u002A*%
X161150000Y-136400000D03*
D16*
X161150000Y-136400000D03*
%TD*%
D13*
%TO.C,C2*%
X175227401Y-113850000D03*
D14*
X176727401Y-113850000D03*
%TD*%
D22*
%TO.C,D1*%
X164470000Y-120250000D03*
D23*
X174630000Y-120250000D03*
%TD*%
D24*
%TO.C,U3*%
X157150000Y-128000000D03*
X159450000Y-128000000D03*
D25*
X159450000Y-121700000D03*
D24*
X161750000Y-128000000D03*
%TD*%
D18*
%TO.C,R6*%
X138000000Y-130645000D03*
X138000000Y-123025000D03*
%TD*%
%TO.C,R1*%
X143690000Y-119750000D03*
X151310000Y-119750000D03*
%TD*%
%TO.C,R5*%
X153050000Y-123440000D03*
X153050000Y-131060000D03*
%TD*%
%TO.C,R3*%
X139590000Y-134450000D03*
X147210000Y-134450000D03*
%TD*%
D26*
%TO.C,K1*%
X167120000Y-125870000D03*
D27*
X167120000Y-130950000D03*
X167120000Y-133490000D03*
X167120000Y-136030000D03*
X172200000Y-136030000D03*
X172200000Y-133490000D03*
X172200000Y-130950000D03*
X172200000Y-125870000D03*
%TD*%
D17*
%TO.C,REF\u002A\u002A*%
X144650000Y-108400000D03*
D16*
X144650000Y-108400000D03*
%TD*%
D20*
%TO.C,J1*%
X176900000Y-130940000D03*
D21*
X176900000Y-133480000D03*
X176900000Y-136020000D03*
X176900000Y-138560000D03*
%TD*%
D18*
%TO.C,R8*%
X134550000Y-130610000D03*
X134550000Y-122990000D03*
%TD*%
%TO.C,R4*%
X158060000Y-113300000D03*
X150440000Y-113300000D03*
%TD*%
%TO.C,R7*%
X149850000Y-108250000D03*
X157470000Y-108250000D03*
%TD*%
D28*
%TO.C,Q3*%
X135470000Y-111950000D03*
D29*
X138010000Y-111950000D03*
X140550000Y-111950000D03*
%TD*%
D28*
%TO.C,Q1*%
X135460000Y-118385000D03*
D29*
X138000000Y-118385000D03*
X140540000Y-118385000D03*
%TD*%
D28*
%TO.C,Q2*%
X143000000Y-115300000D03*
D29*
X145540000Y-115300000D03*
X148080000Y-115300000D03*
%TD*%
D19*
%TO.C,U1*%
X141695000Y-123440000D03*
D18*
X141695000Y-125980000D03*
X141695000Y-128520000D03*
X141695000Y-131060000D03*
X149315000Y-131060000D03*
X149315000Y-128520000D03*
X149315000Y-125980000D03*
X149315000Y-123440000D03*
%TD*%
%LPD*%
M02*
