%TF.GenerationSoftware,KiCad,Pcbnew,9.0.6*%
%TF.CreationDate,2025-12-23T12:21:06+09:00*%
%TF.ProjectId,ils,696c732e-6b69-4636-9164-5f7063625858,rev?*%
%TF.SameCoordinates,Original*%
%TF.FileFunction,Copper,L1,Top*%
%TF.FilePolarity,Positive*%
%FSLAX46Y46*%
G04 Gerber Fmt 4.6, Leading zero omitted, Abs format (unit mm)*
G04 Created by KiCad (PCBNEW 9.0.6) date 2025-12-23 12:21:06*
%MOMM*%
%LPD*%
G01*
G04 APERTURE LIST*
G04 Aperture macros list*
%AMRoundRect*
0 Rectangle with rounded corners*
0 $1 Rounding radius*
0 $2 $3 $4 $5 $6 $7 $8 $9 X,Y pos of 4 corners*
0 Add a 4 corners polygon primitive as box body*
4,1,4,$2,$3,$4,$5,$6,$7,$8,$9,$2,$3,0*
0 Add four circle primitives for the rounded corners*
1,1,$1+$1,$2,$3*
1,1,$1+$1,$4,$5*
1,1,$1+$1,$6,$7*
1,1,$1+$1,$8,$9*
0 Add four rect primitives between the rounded corners*
20,1,$1+$1,$2,$3,$4,$5,0*
20,1,$1+$1,$4,$5,$6,$7,0*
20,1,$1+$1,$6,$7,$8,$9,0*
20,1,$1+$1,$8,$9,$2,$3,0*%
G04 Aperture macros list end*
%TA.AperFunction,ComponentPad*%
%ADD10RoundRect,0.250000X-0.350000X-0.350000X0.350000X-0.350000X0.350000X0.350000X-0.350000X0.350000X0*%
%TD*%
%TA.AperFunction,ComponentPad*%
%ADD11C,1.200000*%
%TD*%
%TA.AperFunction,ComponentPad*%
%ADD12RoundRect,0.250000X0.350000X0.350000X-0.350000X0.350000X-0.350000X-0.350000X0.350000X-0.350000X0*%
%TD*%
%TA.AperFunction,ConnectorPad*%
%ADD13C,3.800000*%
%TD*%
%TA.AperFunction,ComponentPad*%
%ADD14C,2.600000*%
%TD*%
%TA.AperFunction,ComponentPad*%
%ADD15C,1.600000*%
%TD*%
%TA.AperFunction,ComponentPad*%
%ADD16RoundRect,0.250000X-0.550000X-0.550000X0.550000X-0.550000X0.550000X0.550000X-0.550000X0.550000X0*%
%TD*%
%TA.AperFunction,ComponentPad*%
%ADD17R,1.700000X1.700000*%
%TD*%
%TA.AperFunction,ComponentPad*%
%ADD18C,1.700000*%
%TD*%
%TA.AperFunction,ComponentPad*%
%ADD19RoundRect,0.249999X-0.850001X-0.850001X0.850001X-0.850001X0.850001X0.850001X-0.850001X0.850001X0*%
%TD*%
%TA.AperFunction,ComponentPad*%
%ADD20C,2.200000*%
%TD*%
%TA.AperFunction,SMDPad,CuDef*%
%ADD21RoundRect,0.375000X0.375000X-0.625000X0.375000X0.625000X-0.375000X0.625000X-0.375000X-0.625000X0*%
%TD*%
%TA.AperFunction,SMDPad,CuDef*%
%ADD22RoundRect,0.500000X1.400000X-0.500000X1.400000X0.500000X-1.400000X0.500000X-1.400000X-0.500000X0*%
%TD*%
%TA.AperFunction,ComponentPad*%
%ADD23R,2.000000X2.000000*%
%TD*%
%TA.AperFunction,ComponentPad*%
%ADD24C,2.000000*%
%TD*%
%TA.AperFunction,ComponentPad*%
%ADD25R,1.500000X1.500000*%
%TD*%
%TA.AperFunction,ComponentPad*%
%ADD26C,1.500000*%
%TD*%
%TA.AperFunction,Conductor*%
%ADD27C,0.200000*%
%TD*%
G04 APERTURE END LIST*
D10*
%TO.P,C6,1*%
%TO.N,+12V*%
X161977401Y-132000000D03*
D11*
%TO.P,C6,2*%
%TO.N,GND*%
X163477401Y-132000000D03*
%TD*%
D12*
%TO.P,C5,1*%
%TO.N,+5V*%
X158450000Y-132000000D03*
D11*
%TO.P,C5,2*%
%TO.N,GND*%
X156950000Y-132000000D03*
%TD*%
D13*
%TO.P,REF\u002A\u002A,1*%
%TO.N,N/C*%
X176150000Y-108400000D03*
D14*
X176150000Y-108400000D03*
%TD*%
D15*
%TO.P,U2,8,VCC*%
%TO.N,+5V*%
X168060000Y-108230000D03*
%TO.P,U2,7,DIS*%
%TO.N,Net-(U2-DIS)*%
X168060000Y-110770000D03*
%TO.P,U2,6,THR*%
X168060000Y-113310000D03*
%TO.P,U2,5,CV*%
%TO.N,Net-(U2-CV)*%
X168060000Y-115850000D03*
%TO.P,U2,4,R*%
%TO.N,+5V*%
X160440000Y-115850000D03*
%TO.P,U2,3,Q*%
%TO.N,Net-(U2-Q)*%
X160440000Y-113310000D03*
%TO.P,U2,2,TR*%
%TO.N,/COOL*%
X160440000Y-110770000D03*
D16*
%TO.P,U2,1,GND*%
%TO.N,GND*%
X160440000Y-108230000D03*
%TD*%
D15*
%TO.P,R2,2*%
%TO.N,Net-(U2-DIS)*%
X171660000Y-115860000D03*
%TO.P,R2,1*%
%TO.N,+5V*%
X171660000Y-108240000D03*
%TD*%
D14*
%TO.P,REF\u002A\u002A,1*%
%TO.N,N/C*%
X135650000Y-136400000D03*
D13*
X135650000Y-136400000D03*
%TD*%
D15*
%TO.P,C3,1*%
%TO.N,GND*%
X150500000Y-137100000D03*
%TO.P,C3,2*%
%TO.N,Net-(U1-CV)*%
X150500000Y-134600000D03*
%TD*%
%TO.P,C1,1*%
%TO.N,GND*%
X177150000Y-117500000D03*
%TO.P,C1,2*%
%TO.N,Net-(U2-CV)*%
X174650000Y-117500000D03*
%TD*%
D17*
%TO.P,J2,1,Pin_1*%
%TO.N,+5V*%
X147190000Y-138500000D03*
D18*
%TO.P,J2,2,Pin_2*%
%TO.N,/SENS*%
X144650000Y-138500000D03*
%TO.P,J2,3,Pin_3*%
%TO.N,GND*%
X142110000Y-138500000D03*
%TD*%
D16*
%TO.P,C4,1*%
%TO.N,Net-(U1-DIS)*%
X153544888Y-136750000D03*
D15*
%TO.P,C4,2*%
%TO.N,GND*%
X156044888Y-136750000D03*
%TD*%
D14*
%TO.P,REF\u002A\u002A,1*%
%TO.N,N/C*%
X161150000Y-136400000D03*
D13*
X161150000Y-136400000D03*
%TD*%
D10*
%TO.P,C2,1*%
%TO.N,Net-(U2-DIS)*%
X175227401Y-113850000D03*
D11*
%TO.P,C2,2*%
%TO.N,GND*%
X176727401Y-113850000D03*
%TD*%
D19*
%TO.P,D1,1,K*%
%TO.N,+12V*%
X164470000Y-120250000D03*
D20*
%TO.P,D1,2,A*%
%TO.N,/RELAY*%
X174630000Y-120250000D03*
%TD*%
D21*
%TO.P,U3,1,GND*%
%TO.N,GND*%
X157150000Y-128000000D03*
%TO.P,U3,2,VO*%
%TO.N,+5V*%
X159450000Y-128000000D03*
D22*
X159450000Y-121700000D03*
D21*
%TO.P,U3,3,VI*%
%TO.N,+12V*%
X161750000Y-128000000D03*
%TD*%
D15*
%TO.P,R6,1*%
%TO.N,/TRIG*%
X138000000Y-130645000D03*
%TO.P,R6,2*%
%TO.N,Net-(Q1-B)*%
X138000000Y-123025000D03*
%TD*%
%TO.P,R1,1*%
%TO.N,/SENS*%
X143690000Y-119750000D03*
%TO.P,R1,2*%
%TO.N,+5V*%
X151310000Y-119750000D03*
%TD*%
%TO.P,R5,1*%
%TO.N,+5V*%
X153050000Y-123440000D03*
%TO.P,R5,2*%
%TO.N,Net-(U1-DIS)*%
X153050000Y-131060000D03*
%TD*%
%TO.P,R3,1*%
%TO.N,/LOCK*%
X139590000Y-134450000D03*
%TO.P,R3,2*%
%TO.N,+5V*%
X147210000Y-134450000D03*
%TD*%
D23*
%TO.P,K1,1*%
%TO.N,+12V*%
X167120000Y-125870000D03*
D24*
%TO.P,K1,3*%
%TO.N,unconnected-(K1-Pad3)*%
X167120000Y-130950000D03*
%TO.P,K1,4*%
%TO.N,unconnected-(K1-Pad4)*%
X167120000Y-133490000D03*
%TO.P,K1,5*%
%TO.N,unconnected-(K1-Pad5)*%
X167120000Y-136030000D03*
%TO.P,K1,8*%
%TO.N,Net-(J1-Pin_3)*%
X172200000Y-136030000D03*
%TO.P,K1,9*%
%TO.N,/COM*%
X172200000Y-133490000D03*
%TO.P,K1,10*%
%TO.N,unconnected-(K1-Pad10)*%
X172200000Y-130950000D03*
%TO.P,K1,12*%
%TO.N,/RELAY*%
X172200000Y-125870000D03*
%TD*%
D14*
%TO.P,REF\u002A\u002A,1*%
%TO.N,N/C*%
X144650000Y-108400000D03*
D13*
X144650000Y-108400000D03*
%TD*%
D17*
%TO.P,J1,1,Pin_1*%
%TO.N,+12V*%
X176900000Y-130940000D03*
D18*
%TO.P,J1,2,Pin_2*%
%TO.N,/COM*%
X176900000Y-133480000D03*
%TO.P,J1,3,Pin_3*%
%TO.N,Net-(J1-Pin_3)*%
X176900000Y-136020000D03*
%TO.P,J1,4,Pin_4*%
%TO.N,GND*%
X176900000Y-138560000D03*
%TD*%
D15*
%TO.P,R8,1*%
%TO.N,/TRIG*%
X134550000Y-130610000D03*
%TO.P,R8,2*%
%TO.N,Net-(Q3-B)*%
X134550000Y-122990000D03*
%TD*%
%TO.P,R4,1*%
%TO.N,Net-(U2-Q)*%
X158060000Y-113300000D03*
%TO.P,R4,2*%
%TO.N,Net-(Q2-B)*%
X150440000Y-113300000D03*
%TD*%
%TO.P,R7,1*%
%TO.N,/COOL*%
X149850000Y-108250000D03*
%TO.P,R7,2*%
%TO.N,+5V*%
X157470000Y-108250000D03*
%TD*%
D25*
%TO.P,Q3,1,E*%
%TO.N,GND*%
X135470000Y-111950000D03*
D26*
%TO.P,Q3,2,B*%
%TO.N,Net-(Q3-B)*%
X138010000Y-111950000D03*
%TO.P,Q3,3,C*%
%TO.N,/COOL*%
X140550000Y-111950000D03*
%TD*%
D25*
%TO.P,Q1,1,E*%
%TO.N,GND*%
X135460000Y-118385000D03*
D26*
%TO.P,Q1,2,B*%
%TO.N,Net-(Q1-B)*%
X138000000Y-118385000D03*
%TO.P,Q1,3,C*%
%TO.N,/RELAY*%
X140540000Y-118385000D03*
%TD*%
D25*
%TO.P,Q2,1,E*%
%TO.N,GND*%
X143000000Y-115300000D03*
D26*
%TO.P,Q2,2,B*%
%TO.N,Net-(Q2-B)*%
X145540000Y-115300000D03*
%TO.P,Q2,3,C*%
%TO.N,/LOCK*%
X148080000Y-115300000D03*
%TD*%
D16*
%TO.P,U1,1,GND*%
%TO.N,GND*%
X141695000Y-123440000D03*
D15*
%TO.P,U1,2,TR*%
%TO.N,/SENS*%
X141695000Y-125980000D03*
%TO.P,U1,3,Q*%
%TO.N,/TRIG*%
X141695000Y-128520000D03*
%TO.P,U1,4,R*%
%TO.N,/LOCK*%
X141695000Y-131060000D03*
%TO.P,U1,5,CV*%
%TO.N,Net-(U1-CV)*%
X149315000Y-131060000D03*
%TO.P,U1,6,THR*%
%TO.N,Net-(U1-DIS)*%
X149315000Y-128520000D03*
%TO.P,U1,7,DIS*%
X149315000Y-125980000D03*
%TO.P,U1,8,VCC*%
%TO.N,+5V*%
X149315000Y-123440000D03*
%TD*%
D27*
%TO.N,+12V*%
X161750000Y-131772599D02*
X161977401Y-132000000D01*
X161750000Y-128000000D02*
X161750000Y-131772599D01*
%TO.N,+5V*%
X159450000Y-131000000D02*
X158450000Y-132000000D01*
X159450000Y-128000000D02*
X159450000Y-131000000D01*
%TO.N,GND*%
X157150000Y-131800000D02*
X156950000Y-132000000D01*
X157150000Y-128000000D02*
X157150000Y-131800000D01*
%TO.N,Net-(U1-DIS)*%
X153050000Y-136255112D02*
X153544888Y-136750000D01*
X153050000Y-131060000D02*
X153050000Y-136255112D01*
X150510000Y-128520000D02*
X153050000Y-131060000D01*
X149315000Y-128520000D02*
X150510000Y-128520000D01*
%TO.N,Net-(U1-CV)*%
X149315000Y-133665000D02*
X150100000Y-134450000D01*
X149315000Y-131060000D02*
X149315000Y-133665000D01*
%TO.N,Net-(U2-DIS)*%
X173217401Y-115860000D02*
X175227401Y-113850000D01*
X171660000Y-115860000D02*
X173217401Y-115860000D01*
%TO.N,Net-(U2-CV)*%
X169710000Y-117500000D02*
X168060000Y-115850000D01*
X174650000Y-117500000D02*
X169710000Y-117500000D01*
%TO.N,Net-(U2-DIS)*%
X168060000Y-113310000D02*
X170610000Y-115860000D01*
X168060000Y-110770000D02*
X168060000Y-113310000D01*
X170610000Y-115860000D02*
X171660000Y-115860000D01*
%TO.N,Net-(U1-DIS)*%
X149325000Y-128510000D02*
X149315000Y-128520000D01*
X149315000Y-125980000D02*
X149315000Y-128520000D01*
%TO.N,+12V*%
X165000000Y-128000000D02*
X161750000Y-128000000D01*
X164470000Y-123220000D02*
X167120000Y-125870000D01*
X167170000Y-125870000D02*
X167120000Y-125870000D01*
X174200000Y-128250000D02*
X169550000Y-128250000D01*
X169550000Y-128250000D02*
X167170000Y-125870000D01*
X176890000Y-130940000D02*
X174200000Y-128250000D01*
X176900000Y-130940000D02*
X176890000Y-130940000D01*
X167120000Y-125880000D02*
X165000000Y-128000000D01*
X167120000Y-125870000D02*
X167120000Y-125880000D01*
X164470000Y-120250000D02*
X164470000Y-123220000D01*
X176500000Y-130940000D02*
X176900000Y-130940000D01*
%TO.N,/RELAY*%
X174630000Y-123440000D02*
X172200000Y-125870000D01*
X174630000Y-120250000D02*
X174630000Y-123440000D01*
%TO.N,/SENS*%
X143690000Y-123985000D02*
X141695000Y-125980000D01*
X143690000Y-119750000D02*
X143690000Y-123985000D01*
%TO.N,Net-(Q1-B)*%
X138000000Y-118385000D02*
X138000000Y-123115000D01*
%TO.N,Net-(Q2-B)*%
X146060000Y-115300000D02*
X148060000Y-113300000D01*
X150440000Y-113300000D02*
X148060000Y-113300000D01*
%TO.N,/LOCK*%
X141695000Y-131060000D02*
X141695000Y-132345000D01*
X148050000Y-115300000D02*
X145500000Y-117850000D01*
X148080000Y-115300000D02*
X148050000Y-115300000D01*
X145500000Y-127255000D02*
X141695000Y-131060000D01*
X145500000Y-117850000D02*
X145500000Y-127255000D01*
X141695000Y-132345000D02*
X139590000Y-134450000D01*
%TO.N,/COOL*%
X160440000Y-110770000D02*
X152370000Y-110770000D01*
X146150000Y-111950000D02*
X140550000Y-111950000D01*
X152370000Y-110770000D02*
X149850000Y-108250000D01*
X149850000Y-108250000D02*
X146150000Y-111950000D01*
%TO.N,Net-(Q3-B)*%
X138010000Y-111950000D02*
X138010000Y-111990000D01*
X133750000Y-116250000D02*
X133750000Y-122190000D01*
X138010000Y-111990000D02*
X133750000Y-116250000D01*
X133750000Y-122190000D02*
X134550000Y-122990000D01*
%TO.N,Net-(U2-Q)*%
X160430000Y-113300000D02*
X160440000Y-113310000D01*
X157620000Y-113300000D02*
X160430000Y-113300000D01*
%TO.N,/TRIG*%
X134585000Y-130645000D02*
X134550000Y-130610000D01*
X141695000Y-128520000D02*
X140125000Y-128520000D01*
X140125000Y-128520000D02*
X138000000Y-130645000D01*
X138000000Y-130645000D02*
X134585000Y-130645000D01*
%TO.N,Net-(J1-Pin_3)*%
X172210000Y-136020000D02*
X172200000Y-136030000D01*
X176900000Y-136020000D02*
X172210000Y-136020000D01*
%TO.N,/COM*%
X176900000Y-133480000D02*
X172210000Y-133480000D01*
X176500000Y-133480000D02*
X176900000Y-133480000D01*
X172210000Y-133480000D02*
X172200000Y-133490000D01*
%TO.N,+5V*%
X158640000Y-120890000D02*
X159450000Y-121700000D01*
X154800000Y-121700000D02*
X154790000Y-121700000D01*
X153050000Y-123440000D02*
X149315000Y-123440000D01*
X159450000Y-128000000D02*
X159450000Y-121700000D01*
X168060000Y-108230000D02*
X166630000Y-106800000D01*
X149315000Y-123440000D02*
X149160000Y-123440000D01*
X159450000Y-121700000D02*
X154800000Y-121700000D01*
X166630000Y-106800000D02*
X158920000Y-106800000D01*
X168070000Y-108240000D02*
X168060000Y-108230000D01*
X147190000Y-134470000D02*
X147210000Y-134450000D01*
X171660000Y-108240000D02*
X168070000Y-108240000D01*
X159450000Y-121700000D02*
X159450000Y-116840000D01*
X158920000Y-106800000D02*
X157470000Y-108250000D01*
X159450000Y-116840000D02*
X160440000Y-115850000D01*
X154800000Y-121700000D02*
X152850000Y-119750000D01*
X149315000Y-123440000D02*
X147210000Y-125545000D01*
X147210000Y-125545000D02*
X147210000Y-134450000D01*
X159480000Y-121670000D02*
X159450000Y-121700000D01*
X154790000Y-121700000D02*
X153050000Y-123440000D01*
X160440000Y-115850000D02*
X168060000Y-108230000D01*
X147190000Y-138050000D02*
X147190000Y-134470000D01*
X152850000Y-119750000D02*
X151310000Y-119750000D01*
%TD*%
M02*
