%TF.GenerationSoftware,KiCad,Pcbnew,9.0.6*%
%TF.CreationDate,2025-12-23T12:21:06+09:00*%
%TF.ProjectId,ils,696c732e-6b69-4636-9164-5f7063625858,rev?*%
%TF.SameCoordinates,Original*%
%TF.FileFunction,Copper,L2,Bot*%
%TF.FilePolarity,Positive*%
%FSLAX46Y46*%
G04 Gerber Fmt 4.6, Leading zero omitted, Abs format (unit mm)*
G04 Created by KiCad (PCBNEW 9.0.6) date 2025-12-23 12:21:06*
%MOMM*%
%LPD*%
G01*
G04 APERTURE LIST*
G04 Aperture macros list*
%AMRoundRect*
0 Rectangle with rounded corners*
0 $1 Rounding radius*
0 $2 $3 $4 $5 $6 $7 $8 $9 X,Y pos of 4 corners*
0 Add a 4 corners polygon primitive as box body*
4,1,4,$2,$3,$4,$5,$6,$7,$8,$9,$2,$3,0*
0 Add four circle primitives for the rounded corners*
1,1,$1+$1,$2,$3*
1,1,$1+$1,$4,$5*
1,1,$1+$1,$6,$7*
1,1,$1+$1,$8,$9*
0 Add four rect primitives between the rounded corners*
20,1,$1+$1,$2,$3,$4,$5,0*
20,1,$1+$1,$4,$5,$6,$7,0*
20,1,$1+$1,$6,$7,$8,$9,0*
20,1,$1+$1,$8,$9,$2,$3,0*%
G04 Aperture macros list end*
%TA.AperFunction,ComponentPad*%
%ADD10RoundRect,0.250000X-0.350000X-0.350000X0.350000X-0.350000X0.350000X0.350000X-0.350000X0.350000X0*%
%TD*%
%TA.AperFunction,ComponentPad*%
%ADD11C,1.200000*%
%TD*%
%TA.AperFunction,ComponentPad*%
%ADD12RoundRect,0.250000X0.350000X0.350000X-0.350000X0.350000X-0.350000X-0.350000X0.350000X-0.350000X0*%
%TD*%
%TA.AperFunction,ConnectorPad*%
%ADD13C,3.800000*%
%TD*%
%TA.AperFunction,ComponentPad*%
%ADD14C,2.600000*%
%TD*%
%TA.AperFunction,ComponentPad*%
%ADD15C,1.600000*%
%TD*%
%TA.AperFunction,ComponentPad*%
%ADD16RoundRect,0.250000X-0.550000X-0.550000X0.550000X-0.550000X0.550000X0.550000X-0.550000X0.550000X0*%
%TD*%
%TA.AperFunction,ComponentPad*%
%ADD17R,1.700000X1.700000*%
%TD*%
%TA.AperFunction,ComponentPad*%
%ADD18C,1.700000*%
%TD*%
%TA.AperFunction,ComponentPad*%
%ADD19RoundRect,0.249999X-0.850001X-0.850001X0.850001X-0.850001X0.850001X0.850001X-0.850001X0.850001X0*%
%TD*%
%TA.AperFunction,ComponentPad*%
%ADD20C,2.200000*%
%TD*%
%TA.AperFunction,ComponentPad*%
%ADD21R,2.000000X2.000000*%
%TD*%
%TA.AperFunction,ComponentPad*%
%ADD22C,2.000000*%
%TD*%
%TA.AperFunction,ComponentPad*%
%ADD23R,1.500000X1.500000*%
%TD*%
%TA.AperFunction,ComponentPad*%
%ADD24C,1.500000*%
%TD*%
%TA.AperFunction,Conductor*%
%ADD25C,0.200000*%
%TD*%
G04 APERTURE END LIST*
D10*
%TO.P,C6,1*%
%TO.N,+12V*%
X161977401Y-132000000D03*
D11*
%TO.P,C6,2*%
%TO.N,GND*%
X163477401Y-132000000D03*
%TD*%
D12*
%TO.P,C5,1*%
%TO.N,+5V*%
X158450000Y-132000000D03*
D11*
%TO.P,C5,2*%
%TO.N,GND*%
X156950000Y-132000000D03*
%TD*%
D13*
%TO.P,REF\u002A\u002A,1*%
%TO.N,N/C*%
X176150000Y-108400000D03*
D14*
X176150000Y-108400000D03*
%TD*%
D15*
%TO.P,U2,8,VCC*%
%TO.N,+5V*%
X168060000Y-108230000D03*
%TO.P,U2,7,DIS*%
%TO.N,Net-(U2-DIS)*%
X168060000Y-110770000D03*
%TO.P,U2,6,THR*%
X168060000Y-113310000D03*
%TO.P,U2,5,CV*%
%TO.N,Net-(U2-CV)*%
X168060000Y-115850000D03*
%TO.P,U2,4,R*%
%TO.N,+5V*%
X160440000Y-115850000D03*
%TO.P,U2,3,Q*%
%TO.N,Net-(U2-Q)*%
X160440000Y-113310000D03*
%TO.P,U2,2,TR*%
%TO.N,/COOL*%
X160440000Y-110770000D03*
D16*
%TO.P,U2,1,GND*%
%TO.N,GND*%
X160440000Y-108230000D03*
%TD*%
D15*
%TO.P,R2,2*%
%TO.N,Net-(U2-DIS)*%
X171660000Y-115860000D03*
%TO.P,R2,1*%
%TO.N,+5V*%
X171660000Y-108240000D03*
%TD*%
D14*
%TO.P,REF\u002A\u002A,1*%
%TO.N,N/C*%
X135650000Y-136400000D03*
D13*
X135650000Y-136400000D03*
%TD*%
D15*
%TO.P,C3,1*%
%TO.N,GND*%
X150500000Y-137100000D03*
%TO.P,C3,2*%
%TO.N,Net-(U1-CV)*%
X150500000Y-134600000D03*
%TD*%
%TO.P,C1,1*%
%TO.N,GND*%
X177150000Y-117500000D03*
%TO.P,C1,2*%
%TO.N,Net-(U2-CV)*%
X174650000Y-117500000D03*
%TD*%
D17*
%TO.P,J2,1,Pin_1*%
%TO.N,+5V*%
X147190000Y-138500000D03*
D18*
%TO.P,J2,2,Pin_2*%
%TO.N,/SENS*%
X144650000Y-138500000D03*
%TO.P,J2,3,Pin_3*%
%TO.N,GND*%
X142110000Y-138500000D03*
%TD*%
D16*
%TO.P,C4,1*%
%TO.N,Net-(U1-DIS)*%
X153544888Y-136750000D03*
D15*
%TO.P,C4,2*%
%TO.N,GND*%
X156044888Y-136750000D03*
%TD*%
D14*
%TO.P,REF\u002A\u002A,1*%
%TO.N,N/C*%
X161150000Y-136400000D03*
D13*
X161150000Y-136400000D03*
%TD*%
D10*
%TO.P,C2,1*%
%TO.N,Net-(U2-DIS)*%
X175227401Y-113850000D03*
D11*
%TO.P,C2,2*%
%TO.N,GND*%
X176727401Y-113850000D03*
%TD*%
D19*
%TO.P,D1,1,K*%
%TO.N,+12V*%
X164470000Y-120250000D03*
D20*
%TO.P,D1,2,A*%
%TO.N,/RELAY*%
X174630000Y-120250000D03*
%TD*%
D15*
%TO.P,R6,1*%
%TO.N,/TRIG*%
X138000000Y-130645000D03*
%TO.P,R6,2*%
%TO.N,Net-(Q1-B)*%
X138000000Y-123025000D03*
%TD*%
%TO.P,R1,1*%
%TO.N,/SENS*%
X143690000Y-119750000D03*
%TO.P,R1,2*%
%TO.N,+5V*%
X151310000Y-119750000D03*
%TD*%
%TO.P,R5,1*%
%TO.N,+5V*%
X153050000Y-123440000D03*
%TO.P,R5,2*%
%TO.N,Net-(U1-DIS)*%
X153050000Y-131060000D03*
%TD*%
%TO.P,R3,1*%
%TO.N,/LOCK*%
X139590000Y-134450000D03*
%TO.P,R3,2*%
%TO.N,+5V*%
X147210000Y-134450000D03*
%TD*%
D21*
%TO.P,K1,1*%
%TO.N,+12V*%
X167120000Y-125870000D03*
D22*
%TO.P,K1,3*%
%TO.N,unconnected-(K1-Pad3)*%
X167120000Y-130950000D03*
%TO.P,K1,4*%
%TO.N,unconnected-(K1-Pad4)*%
X167120000Y-133490000D03*
%TO.P,K1,5*%
%TO.N,unconnected-(K1-Pad5)*%
X167120000Y-136030000D03*
%TO.P,K1,8*%
%TO.N,Net-(J1-Pin_3)*%
X172200000Y-136030000D03*
%TO.P,K1,9*%
%TO.N,/COM*%
X172200000Y-133490000D03*
%TO.P,K1,10*%
%TO.N,unconnected-(K1-Pad10)*%
X172200000Y-130950000D03*
%TO.P,K1,12*%
%TO.N,/RELAY*%
X172200000Y-125870000D03*
%TD*%
D14*
%TO.P,REF\u002A\u002A,1*%
%TO.N,N/C*%
X144650000Y-108400000D03*
D13*
X144650000Y-108400000D03*
%TD*%
D17*
%TO.P,J1,1,Pin_1*%
%TO.N,+12V*%
X176900000Y-130940000D03*
D18*
%TO.P,J1,2,Pin_2*%
%TO.N,/COM*%
X176900000Y-133480000D03*
%TO.P,J1,3,Pin_3*%
%TO.N,Net-(J1-Pin_3)*%
X176900000Y-136020000D03*
%TO.P,J1,4,Pin_4*%
%TO.N,GND*%
X176900000Y-138560000D03*
%TD*%
D15*
%TO.P,R8,1*%
%TO.N,/TRIG*%
X134550000Y-130610000D03*
%TO.P,R8,2*%
%TO.N,Net-(Q3-B)*%
X134550000Y-122990000D03*
%TD*%
%TO.P,R4,1*%
%TO.N,Net-(U2-Q)*%
X158060000Y-113300000D03*
%TO.P,R4,2*%
%TO.N,Net-(Q2-B)*%
X150440000Y-113300000D03*
%TD*%
%TO.P,R7,1*%
%TO.N,/COOL*%
X149850000Y-108250000D03*
%TO.P,R7,2*%
%TO.N,+5V*%
X157470000Y-108250000D03*
%TD*%
D23*
%TO.P,Q3,1,E*%
%TO.N,GND*%
X135470000Y-111950000D03*
D24*
%TO.P,Q3,2,B*%
%TO.N,Net-(Q3-B)*%
X138010000Y-111950000D03*
%TO.P,Q3,3,C*%
%TO.N,/COOL*%
X140550000Y-111950000D03*
%TD*%
D23*
%TO.P,Q1,1,E*%
%TO.N,GND*%
X135460000Y-118385000D03*
D24*
%TO.P,Q1,2,B*%
%TO.N,Net-(Q1-B)*%
X138000000Y-118385000D03*
%TO.P,Q1,3,C*%
%TO.N,/RELAY*%
X140540000Y-118385000D03*
%TD*%
D23*
%TO.P,Q2,1,E*%
%TO.N,GND*%
X143000000Y-115300000D03*
D24*
%TO.P,Q2,2,B*%
%TO.N,Net-(Q2-B)*%
X145540000Y-115300000D03*
%TO.P,Q2,3,C*%
%TO.N,/LOCK*%
X148080000Y-115300000D03*
%TD*%
D16*
%TO.P,U1,1,GND*%
%TO.N,GND*%
X141695000Y-123440000D03*
D15*
%TO.P,U1,2,TR*%
%TO.N,/SENS*%
X141695000Y-125980000D03*
%TO.P,U1,3,Q*%
%TO.N,/TRIG*%
X141695000Y-128520000D03*
%TO.P,U1,4,R*%
%TO.N,/LOCK*%
X141695000Y-131060000D03*
%TO.P,U1,5,CV*%
%TO.N,Net-(U1-CV)*%
X149315000Y-131060000D03*
%TO.P,U1,6,THR*%
%TO.N,Net-(U1-DIS)*%
X149315000Y-128520000D03*
%TO.P,U1,7,DIS*%
X149315000Y-125980000D03*
%TO.P,U1,8,VCC*%
%TO.N,+5V*%
X149315000Y-123440000D03*
%TD*%
D25*
%TO.N,/RELAY*%
X140540000Y-118385000D02*
X172765000Y-118385000D01*
X172765000Y-118385000D02*
X174630000Y-120250000D01*
%TO.N,/SENS*%
X141695000Y-125980000D02*
X144650000Y-128935000D01*
X144650000Y-128935000D02*
X144650000Y-138050000D01*
%TD*%
%TA.AperFunction,Conductor*%
%TO.N,GND*%
G36*
X174470573Y-106471758D02*
G01*
X174516393Y-106524505D01*
X174526422Y-106593651D01*
X174497475Y-106657243D01*
X174491344Y-106663837D01*
X174357261Y-106797920D01*
X174189161Y-107008712D01*
X174045714Y-107237005D01*
X173928734Y-107479917D01*
X173839687Y-107734397D01*
X173839684Y-107734405D01*
X173779688Y-107997268D01*
X173779686Y-107997280D01*
X173749500Y-108265186D01*
X173749500Y-108534813D01*
X173779686Y-108802719D01*
X173779688Y-108802731D01*
X173839684Y-109065594D01*
X173839687Y-109065602D01*
X173928734Y-109320082D01*
X174045714Y-109562994D01*
X174045716Y-109562997D01*
X174189162Y-109791289D01*
X174357266Y-110002085D01*
X174547915Y-110192734D01*
X174758711Y-110360838D01*
X174987003Y-110504284D01*
X175229921Y-110621267D01*
X175362471Y-110667648D01*
X175484397Y-110710312D01*
X175484405Y-110710315D01*
X175484408Y-110710315D01*
X175484409Y-110710316D01*
X175747268Y-110770312D01*
X176015187Y-110800499D01*
X176015188Y-110800500D01*
X176015191Y-110800500D01*
X176284812Y-110800500D01*
X176284812Y-110800499D01*
X176552732Y-110770312D01*
X176815591Y-110710316D01*
X177070079Y-110621267D01*
X177312997Y-110504284D01*
X177541289Y-110360838D01*
X177752085Y-110192734D01*
X177888319Y-110056500D01*
X177949642Y-110023015D01*
X178019334Y-110027999D01*
X178075267Y-110069871D01*
X178099684Y-110135335D01*
X178100000Y-110144181D01*
X178100000Y-116339962D01*
X178080315Y-116407001D01*
X178027511Y-116452756D01*
X177958353Y-116462700D01*
X177903115Y-116440280D01*
X177831353Y-116388142D01*
X177649031Y-116295244D01*
X177454417Y-116232009D01*
X177252317Y-116200000D01*
X177047683Y-116200000D01*
X176845582Y-116232009D01*
X176650968Y-116295244D01*
X176468644Y-116388143D01*
X176424077Y-116420523D01*
X176424077Y-116420524D01*
X177103553Y-117100000D01*
X177097339Y-117100000D01*
X176995606Y-117127259D01*
X176904394Y-117179920D01*
X176829920Y-117254394D01*
X176777259Y-117345606D01*
X176750000Y-117447339D01*
X176750000Y-117453553D01*
X176070524Y-116774077D01*
X176070523Y-116774077D01*
X176038143Y-116818644D01*
X176010765Y-116872378D01*
X175962790Y-116923174D01*
X175894969Y-116939969D01*
X175828834Y-116917431D01*
X175789795Y-116872378D01*
X175779397Y-116851971D01*
X175762287Y-116818390D01*
X175762285Y-116818387D01*
X175762284Y-116818385D01*
X175641971Y-116652786D01*
X175497213Y-116508028D01*
X175331613Y-116387715D01*
X175331612Y-116387714D01*
X175331610Y-116387713D01*
X175274653Y-116358691D01*
X175149223Y-116294781D01*
X174954534Y-116231522D01*
X174779995Y-116203878D01*
X174752352Y-116199500D01*
X174547648Y-116199500D01*
X174523329Y-116203351D01*
X174345465Y-116231522D01*
X174150776Y-116294781D01*
X173968386Y-116387715D01*
X173802786Y-116508028D01*
X173658028Y-116652786D01*
X173537715Y-116818386D01*
X173444781Y-117000776D01*
X173381522Y-117195465D01*
X173349500Y-117397648D01*
X173349500Y-117602351D01*
X173381523Y-117804535D01*
X173381524Y-117804542D01*
X173389291Y-117828445D01*
X173391286Y-117898286D01*
X173355205Y-117958118D01*
X173292504Y-117988946D01*
X173223090Y-117980981D01*
X173197770Y-117966564D01*
X173190269Y-117961033D01*
X173133716Y-117904480D01*
X173046904Y-117854360D01*
X172996785Y-117825423D01*
X172844057Y-117784499D01*
X172685943Y-117784499D01*
X172678347Y-117784499D01*
X172678331Y-117784500D01*
X141712596Y-117784500D01*
X141645557Y-117764815D01*
X141612278Y-117733386D01*
X141605682Y-117724307D01*
X141493828Y-117570354D01*
X141354646Y-117431172D01*
X141195405Y-117315476D01*
X141158879Y-117296865D01*
X141020029Y-117226117D01*
X140832826Y-117165290D01*
X140638422Y-117134500D01*
X140638417Y-117134500D01*
X140441583Y-117134500D01*
X140441578Y-117134500D01*
X140247173Y-117165290D01*
X140059970Y-117226117D01*
X139884594Y-117315476D01*
X139814288Y-117366557D01*
X139725354Y-117431172D01*
X139725352Y-117431174D01*
X139725351Y-117431174D01*
X139586174Y-117570351D01*
X139586174Y-117570352D01*
X139586172Y-117570354D01*
X139573953Y-117587172D01*
X139470476Y-117729594D01*
X139380485Y-117906213D01*
X139332511Y-117957009D01*
X139264690Y-117973804D01*
X139198555Y-117951267D01*
X139159515Y-117906213D01*
X139107711Y-117804542D01*
X139069524Y-117729595D01*
X138953828Y-117570354D01*
X138814646Y-117431172D01*
X138655405Y-117315476D01*
X138618879Y-117296865D01*
X138480029Y-117226117D01*
X138292826Y-117165290D01*
X138098422Y-117134500D01*
X138098417Y-117134500D01*
X137901583Y-117134500D01*
X137901578Y-117134500D01*
X137707173Y-117165290D01*
X137519970Y-117226117D01*
X137344594Y-117315476D01*
X137274288Y-117366557D01*
X137185354Y-117431172D01*
X137185352Y-117431174D01*
X137185351Y-117431174D01*
X137046174Y-117570351D01*
X137046174Y-117570352D01*
X137046172Y-117570354D01*
X137033953Y-117587172D01*
X136934318Y-117724307D01*
X136878988Y-117766972D01*
X136809374Y-117772951D01*
X136747579Y-117740345D01*
X136713222Y-117679506D01*
X136710000Y-117651421D01*
X136710000Y-117587172D01*
X136709999Y-117587155D01*
X136703598Y-117527627D01*
X136703596Y-117527620D01*
X136653354Y-117392913D01*
X136653350Y-117392906D01*
X136567190Y-117277812D01*
X136567187Y-117277809D01*
X136452093Y-117191649D01*
X136452086Y-117191645D01*
X136317379Y-117141403D01*
X136317372Y-117141401D01*
X136257844Y-117135000D01*
X135710000Y-117135000D01*
X135710000Y-118069314D01*
X135705606Y-118064920D01*
X135614394Y-118012259D01*
X135512661Y-117985000D01*
X135407339Y-117985000D01*
X135305606Y-118012259D01*
X135214394Y-118064920D01*
X135210000Y-118069314D01*
X135210000Y-117135000D01*
X134662155Y-117135000D01*
X134602627Y-117141401D01*
X134602620Y-117141403D01*
X134467913Y-117191645D01*
X134467906Y-117191649D01*
X134352812Y-117277809D01*
X134352809Y-117277812D01*
X134266649Y-117392906D01*
X134266645Y-117392913D01*
X134216403Y-117527620D01*
X134216401Y-117527627D01*
X134210000Y-117587155D01*
X134210000Y-118135000D01*
X135144314Y-118135000D01*
X135139920Y-118139394D01*
X135087259Y-118230606D01*
X135060000Y-118332339D01*
X135060000Y-118437661D01*
X135087259Y-118539394D01*
X135139920Y-118630606D01*
X135144314Y-118635000D01*
X134210000Y-118635000D01*
X134210000Y-119182844D01*
X134216401Y-119242372D01*
X134216403Y-119242379D01*
X134266645Y-119377086D01*
X134266649Y-119377093D01*
X134352809Y-119492187D01*
X134352812Y-119492190D01*
X134467906Y-119578350D01*
X134467913Y-119578354D01*
X134602620Y-119628596D01*
X134602627Y-119628598D01*
X134662155Y-119634999D01*
X134662172Y-119635000D01*
X135210000Y-119635000D01*
X135210000Y-118700686D01*
X135214394Y-118705080D01*
X135305606Y-118757741D01*
X135407339Y-118785000D01*
X135512661Y-118785000D01*
X135614394Y-118757741D01*
X135705606Y-118705080D01*
X135710000Y-118700686D01*
X135710000Y-119635000D01*
X136257828Y-119635000D01*
X136257844Y-119634999D01*
X136317372Y-119628598D01*
X136317379Y-119628596D01*
X136452086Y-119578354D01*
X136452093Y-119578350D01*
X136567187Y-119492190D01*
X136567190Y-119492187D01*
X136653350Y-119377093D01*
X136653354Y-119377086D01*
X136703596Y-119242379D01*
X136703598Y-119242372D01*
X136709999Y-119182844D01*
X136710000Y-119182827D01*
X136710000Y-119118578D01*
X136729685Y-119051539D01*
X136782489Y-119005784D01*
X136851647Y-118995840D01*
X136915203Y-119024865D01*
X136934314Y-119045688D01*
X137046172Y-119199646D01*
X137185354Y-119338828D01*
X137344595Y-119454524D01*
X137418513Y-119492187D01*
X137519970Y-119543882D01*
X137519972Y-119543882D01*
X137519975Y-119543884D01*
X137620317Y-119576487D01*
X137707173Y-119604709D01*
X137901578Y-119635500D01*
X137901583Y-119635500D01*
X138098422Y-119635500D01*
X138292826Y-119604709D01*
X138480025Y-119543884D01*
X138655405Y-119454524D01*
X138814646Y-119338828D01*
X138953828Y-119199646D01*
X139069524Y-119040405D01*
X139158884Y-118865025D01*
X139159515Y-118863787D01*
X139207489Y-118812990D01*
X139275310Y-118796195D01*
X139341445Y-118818732D01*
X139380485Y-118863787D01*
X139470474Y-119040403D01*
X139490808Y-119068390D01*
X139586172Y-119199646D01*
X139725354Y-119338828D01*
X139884595Y-119454524D01*
X139958513Y-119492187D01*
X140059970Y-119543882D01*
X140059972Y-119543882D01*
X140059975Y-119543884D01*
X140160317Y-119576487D01*
X140247173Y-119604709D01*
X140441578Y-119635500D01*
X140441583Y-119635500D01*
X140638422Y-119635500D01*
X140832826Y-119604709D01*
X141020025Y-119543884D01*
X141195405Y-119454524D01*
X141354646Y-119338828D01*
X141493828Y-119199646D01*
X141609524Y-119040405D01*
X141609524Y-119040403D01*
X141612278Y-119036614D01*
X141667608Y-118993949D01*
X141712596Y-118985500D01*
X142417598Y-118985500D01*
X142484637Y-119005185D01*
X142530392Y-119057989D01*
X142540336Y-119127147D01*
X142528082Y-119165795D01*
X142484783Y-119250771D01*
X142421522Y-119445465D01*
X142389500Y-119647648D01*
X142389500Y-119852351D01*
X142421522Y-120054534D01*
X142484781Y-120249223D01*
X142577715Y-120431613D01*
X142698028Y-120597213D01*
X142842786Y-120741971D01*
X142997749Y-120854556D01*
X143008390Y-120862287D01*
X143124607Y-120921503D01*
X143190776Y-120955218D01*
X143190778Y-120955218D01*
X143190781Y-120955220D01*
X143295137Y-120989127D01*
X143385465Y-121018477D01*
X143486557Y-121034488D01*
X143587648Y-121050500D01*
X143587649Y-121050500D01*
X143792351Y-121050500D01*
X143792352Y-121050500D01*
X143994534Y-121018477D01*
X144189219Y-120955220D01*
X144371610Y-120862287D01*
X144464590Y-120794732D01*
X144537213Y-120741971D01*
X144537215Y-120741968D01*
X144537219Y-120741966D01*
X144681966Y-120597219D01*
X144681968Y-120597215D01*
X144681971Y-120597213D01*
X144734732Y-120524590D01*
X144802287Y-120431610D01*
X144895220Y-120249219D01*
X144958477Y-120054534D01*
X144990500Y-119852352D01*
X144990500Y-119647648D01*
X144979524Y-119578350D01*
X144958477Y-119445465D01*
X144936259Y-119377086D01*
X144895220Y-119250781D01*
X144895217Y-119250776D01*
X144895216Y-119250771D01*
X144851918Y-119165795D01*
X144839021Y-119097126D01*
X144865297Y-119032386D01*
X144922403Y-118992128D01*
X144962402Y-118985500D01*
X150037598Y-118985500D01*
X150104637Y-119005185D01*
X150150392Y-119057989D01*
X150160336Y-119127147D01*
X150148082Y-119165795D01*
X150104783Y-119250771D01*
X150041522Y-119445465D01*
X150009500Y-119647648D01*
X150009500Y-119852351D01*
X150041522Y-120054534D01*
X150104781Y-120249223D01*
X150197715Y-120431613D01*
X150318028Y-120597213D01*
X150462786Y-120741971D01*
X150617749Y-120854556D01*
X150628390Y-120862287D01*
X150744607Y-120921503D01*
X150810776Y-120955218D01*
X150810778Y-120955218D01*
X150810781Y-120955220D01*
X150915137Y-120989127D01*
X151005465Y-121018477D01*
X151106557Y-121034488D01*
X151207648Y-121050500D01*
X151207649Y-121050500D01*
X151412351Y-121050500D01*
X151412352Y-121050500D01*
X151614534Y-121018477D01*
X151809219Y-120955220D01*
X151991610Y-120862287D01*
X152084590Y-120794732D01*
X152157213Y-120741971D01*
X152157215Y-120741968D01*
X152157219Y-120741966D01*
X152301966Y-120597219D01*
X152301968Y-120597215D01*
X152301971Y-120597213D01*
X152354732Y-120524590D01*
X152422287Y-120431610D01*
X152515220Y-120249219D01*
X152578477Y-120054534D01*
X152610500Y-119852352D01*
X152610500Y-119647648D01*
X152599524Y-119578350D01*
X152578477Y-119445465D01*
X152556259Y-119377086D01*
X152515220Y-119250781D01*
X152515217Y-119250776D01*
X152515216Y-119250771D01*
X152471918Y-119165795D01*
X152459021Y-119097126D01*
X152485297Y-119032386D01*
X152542403Y-118992128D01*
X152582402Y-118985500D01*
X162795001Y-118985500D01*
X162862040Y-119005185D01*
X162907795Y-119057989D01*
X162917739Y-119127147D01*
X162912708Y-119148497D01*
X162906977Y-119165795D01*
X162880000Y-119247203D01*
X162869500Y-119349982D01*
X162869500Y-121150017D01*
X162880000Y-121252796D01*
X162935185Y-121419332D01*
X162935186Y-121419335D01*
X163027288Y-121568656D01*
X163151344Y-121692712D01*
X163300665Y-121784814D01*
X163467202Y-121839999D01*
X163569990Y-121850500D01*
X163569995Y-121850500D01*
X165370005Y-121850500D01*
X165370010Y-121850500D01*
X165472798Y-121839999D01*
X165639335Y-121784814D01*
X165788656Y-121692712D01*
X165912712Y-121568656D01*
X166004814Y-121419335D01*
X166059999Y-121252798D01*
X166070500Y-121150010D01*
X166070500Y-119349990D01*
X166059999Y-119247202D01*
X166027292Y-119148501D01*
X166024891Y-119078676D01*
X166060623Y-119018634D01*
X166123143Y-118987441D01*
X166144999Y-118985500D01*
X172464903Y-118985500D01*
X172531942Y-119005185D01*
X172552584Y-119021819D01*
X173097841Y-119567076D01*
X173131326Y-119628399D01*
X173128091Y-119693076D01*
X173068910Y-119875214D01*
X173029500Y-120124038D01*
X173029500Y-120375961D01*
X173068910Y-120624785D01*
X173146760Y-120864383D01*
X173261132Y-121088848D01*
X173409201Y-121292649D01*
X173409205Y-121292654D01*
X173587345Y-121470794D01*
X173587350Y-121470798D01*
X173765117Y-121599952D01*
X173791155Y-121618870D01*
X173929774Y-121689500D01*
X174015616Y-121733239D01*
X174015618Y-121733239D01*
X174015621Y-121733241D01*
X174255215Y-121811090D01*
X174504038Y-121850500D01*
X174504039Y-121850500D01*
X174755961Y-121850500D01*
X174755962Y-121850500D01*
X175004785Y-121811090D01*
X175244379Y-121733241D01*
X175468845Y-121618870D01*
X175672656Y-121470793D01*
X175850793Y-121292656D01*
X175998870Y-121088845D01*
X176113241Y-120864379D01*
X176191090Y-120624785D01*
X176230500Y-120375962D01*
X176230500Y-120124038D01*
X176191090Y-119875215D01*
X176113241Y-119635621D01*
X176113239Y-119635618D01*
X176113239Y-119635616D01*
X176040159Y-119492190D01*
X175998870Y-119411155D01*
X175974123Y-119377093D01*
X175850798Y-119207350D01*
X175850794Y-119207345D01*
X175672654Y-119029205D01*
X175672649Y-119029201D01*
X175468848Y-118881132D01*
X175468847Y-118881131D01*
X175468845Y-118881130D01*
X175350975Y-118821072D01*
X175300180Y-118773099D01*
X175283385Y-118705278D01*
X175305922Y-118639143D01*
X175334382Y-118610272D01*
X175497219Y-118491966D01*
X175641966Y-118347219D01*
X175641968Y-118347215D01*
X175641971Y-118347213D01*
X175762286Y-118181611D01*
X175762415Y-118181359D01*
X175789795Y-118127621D01*
X175837769Y-118076826D01*
X175905589Y-118060030D01*
X175971725Y-118082567D01*
X176010765Y-118127621D01*
X176038141Y-118181350D01*
X176038147Y-118181359D01*
X176070523Y-118225921D01*
X176070524Y-118225922D01*
X176750000Y-117546446D01*
X176750000Y-117552661D01*
X176777259Y-117654394D01*
X176829920Y-117745606D01*
X176904394Y-117820080D01*
X176995606Y-117872741D01*
X177097339Y-117900000D01*
X177103552Y-117900000D01*
X176424076Y-118579474D01*
X176468650Y-118611859D01*
X176650968Y-118704755D01*
X176845582Y-118767990D01*
X177047683Y-118800000D01*
X177252317Y-118800000D01*
X177454417Y-118767990D01*
X177649031Y-118704755D01*
X177831349Y-118611859D01*
X177903114Y-118559719D01*
X177968920Y-118536239D01*
X178036974Y-118552064D01*
X178085669Y-118602170D01*
X178100000Y-118660037D01*
X178100000Y-129507768D01*
X178080315Y-129574807D01*
X178027511Y-129620562D01*
X177958353Y-129630506D01*
X177932668Y-129623950D01*
X177857485Y-129595909D01*
X177857483Y-129595908D01*
X177797883Y-129589501D01*
X177797881Y-129589500D01*
X177797873Y-129589500D01*
X177797864Y-129589500D01*
X176002129Y-129589500D01*
X176002123Y-129589501D01*
X175942516Y-129595908D01*
X175807671Y-129646202D01*
X175807664Y-129646206D01*
X175692455Y-129732452D01*
X175692452Y-129732455D01*
X175606206Y-129847664D01*
X175606202Y-129847671D01*
X175555908Y-129982517D01*
X175549501Y-130042116D01*
X175549500Y-130042135D01*
X175549500Y-131837870D01*
X175549501Y-131837876D01*
X175555908Y-131897483D01*
X175606202Y-132032328D01*
X175606206Y-132032335D01*
X175692452Y-132147544D01*
X175692455Y-132147547D01*
X175807664Y-132233793D01*
X175807671Y-132233797D01*
X175939082Y-132282810D01*
X175995016Y-132324681D01*
X176019433Y-132390145D01*
X176004582Y-132458418D01*
X175983431Y-132486673D01*
X175869889Y-132600215D01*
X175744951Y-132772179D01*
X175648444Y-132961585D01*
X175582753Y-133163760D01*
X175549787Y-133371902D01*
X175549500Y-133373713D01*
X175549500Y-133586287D01*
X175552954Y-133608092D01*
X175582753Y-133796239D01*
X175648444Y-133998414D01*
X175744951Y-134187820D01*
X175869890Y-134359786D01*
X176020213Y-134510109D01*
X176192182Y-134635050D01*
X176200946Y-134639516D01*
X176251742Y-134687491D01*
X176268536Y-134755312D01*
X176245998Y-134821447D01*
X176200946Y-134860484D01*
X176192182Y-134864949D01*
X176020213Y-134989890D01*
X175869890Y-135140213D01*
X175744951Y-135312179D01*
X175648444Y-135501585D01*
X175582753Y-135703760D01*
X175549500Y-135913713D01*
X175549500Y-136126286D01*
X175571499Y-136265186D01*
X175582754Y-136336243D01*
X175647272Y-136534809D01*
X175648444Y-136538414D01*
X175744951Y-136727820D01*
X175869890Y-136899786D01*
X176020213Y-137050109D01*
X176192179Y-137175048D01*
X176192181Y-137175049D01*
X176192184Y-137175051D01*
X176201493Y-137179794D01*
X176252290Y-137227766D01*
X176269087Y-137295587D01*
X176246552Y-137361722D01*
X176201505Y-137400760D01*
X176192446Y-137405376D01*
X176192440Y-137405380D01*
X176138282Y-137444727D01*
X176138282Y-137444728D01*
X176596777Y-137903223D01*
X176243223Y-138256777D01*
X175784728Y-137798282D01*
X175784727Y-137798282D01*
X175745380Y-137852439D01*
X175648904Y-138041782D01*
X175583242Y-138243869D01*
X175583242Y-138243871D01*
X175582999Y-138245407D01*
X175582745Y-138245941D01*
X175582107Y-138248602D01*
X175581547Y-138248467D01*
X175553065Y-138308539D01*
X175493751Y-138345466D01*
X175460527Y-138350000D01*
X162894181Y-138350000D01*
X162827142Y-138330315D01*
X162781387Y-138277511D01*
X162771443Y-138208353D01*
X162800468Y-138144797D01*
X162806500Y-138138319D01*
X162859865Y-138084954D01*
X162942734Y-138002085D01*
X163110838Y-137791289D01*
X163254284Y-137562997D01*
X163371267Y-137320079D01*
X163460316Y-137065591D01*
X163520312Y-136802732D01*
X163550500Y-136534809D01*
X163550500Y-136265191D01*
X163520312Y-135997268D01*
X163460316Y-135734409D01*
X163449591Y-135703760D01*
X163432606Y-135655218D01*
X163371267Y-135479921D01*
X163254284Y-135237003D01*
X163110838Y-135008711D01*
X162942734Y-134797915D01*
X162752085Y-134607266D01*
X162541289Y-134439162D01*
X162312997Y-134295716D01*
X162312994Y-134295714D01*
X162070082Y-134178734D01*
X161815602Y-134089687D01*
X161815594Y-134089684D01*
X161618446Y-134044687D01*
X161552732Y-134029688D01*
X161552728Y-134029687D01*
X161552719Y-134029686D01*
X161284813Y-133999500D01*
X161284809Y-133999500D01*
X161015191Y-133999500D01*
X161015186Y-133999500D01*
X160747280Y-134029686D01*
X160747268Y-134029688D01*
X160484405Y-134089684D01*
X160484397Y-134089687D01*
X160229917Y-134178734D01*
X159987005Y-134295714D01*
X159758712Y-134439161D01*
X159547915Y-134607265D01*
X159357265Y-134797915D01*
X159189161Y-135008712D01*
X159045714Y-135237005D01*
X158928734Y-135479917D01*
X158839687Y-135734397D01*
X158839684Y-135734405D01*
X158779688Y-135997268D01*
X158779686Y-135997280D01*
X158749500Y-136265186D01*
X158749500Y-136534813D01*
X158779686Y-136802719D01*
X158779687Y-136802728D01*
X158779688Y-136802732D01*
X158791480Y-136854394D01*
X158839684Y-137065594D01*
X158839687Y-137065602D01*
X158928734Y-137320082D01*
X159045714Y-137562994D01*
X159045716Y-137562997D01*
X159189162Y-137791289D01*
X159270044Y-137892712D01*
X159357265Y-138002084D01*
X159493500Y-138138319D01*
X159526985Y-138199642D01*
X159522001Y-138269334D01*
X159480129Y-138325267D01*
X159414665Y-138349684D01*
X159405819Y-138350000D01*
X151346644Y-138350000D01*
X151279605Y-138330315D01*
X151233850Y-138277511D01*
X151223026Y-138216271D01*
X151225921Y-138179474D01*
X150546447Y-137500000D01*
X150552661Y-137500000D01*
X150654394Y-137472741D01*
X150745606Y-137420080D01*
X150820080Y-137345606D01*
X150872741Y-137254394D01*
X150900000Y-137152661D01*
X150900000Y-137146447D01*
X151579474Y-137825921D01*
X151611859Y-137781349D01*
X151704755Y-137599031D01*
X151767990Y-137404417D01*
X151800000Y-137202317D01*
X151800000Y-136997682D01*
X151767990Y-136795582D01*
X151704755Y-136600968D01*
X151611859Y-136418650D01*
X151579474Y-136374077D01*
X151579474Y-136374076D01*
X150900000Y-137053551D01*
X150900000Y-137047339D01*
X150872741Y-136945606D01*
X150820080Y-136854394D01*
X150745606Y-136779920D01*
X150654394Y-136727259D01*
X150552661Y-136700000D01*
X150546446Y-136700000D01*
X151096464Y-136149983D01*
X152244388Y-136149983D01*
X152244388Y-137350001D01*
X152244389Y-137350018D01*
X152254888Y-137452796D01*
X152254889Y-137452799D01*
X152301244Y-137592686D01*
X152310074Y-137619334D01*
X152402176Y-137768656D01*
X152526232Y-137892712D01*
X152675554Y-137984814D01*
X152842091Y-138039999D01*
X152944879Y-138050500D01*
X154144896Y-138050499D01*
X154247685Y-138039999D01*
X154414222Y-137984814D01*
X154563544Y-137892712D01*
X154687600Y-137768656D01*
X154779702Y-137619334D01*
X154802990Y-137549054D01*
X154806998Y-137541050D01*
X154824948Y-137521772D01*
X154839943Y-137500116D01*
X154848383Y-137496606D01*
X154854613Y-137489917D01*
X154880137Y-137483404D01*
X154904459Y-137473292D01*
X154920722Y-137473048D01*
X154922313Y-137472643D01*
X154923411Y-137473008D01*
X154927607Y-137472946D01*
X154965413Y-137475921D01*
X155644888Y-136796446D01*
X155644888Y-136802661D01*
X155672147Y-136904394D01*
X155724808Y-136995606D01*
X155799282Y-137070080D01*
X155890494Y-137122741D01*
X155992227Y-137150000D01*
X155998441Y-137150000D01*
X155318964Y-137829474D01*
X155363538Y-137861859D01*
X155545856Y-137954755D01*
X155740470Y-138017990D01*
X155942571Y-138050000D01*
X156147205Y-138050000D01*
X156349305Y-138017990D01*
X156543919Y-137954755D01*
X156726237Y-137861859D01*
X156770809Y-137829474D01*
X156091335Y-137150000D01*
X156097549Y-137150000D01*
X156199282Y-137122741D01*
X156290494Y-137070080D01*
X156364968Y-136995606D01*
X156417629Y-136904394D01*
X156444888Y-136802661D01*
X156444888Y-136796447D01*
X157124362Y-137475921D01*
X157156747Y-137431349D01*
X157249643Y-137249031D01*
X157312878Y-137054417D01*
X157344888Y-136852317D01*
X157344888Y-136647682D01*
X157312878Y-136445582D01*
X157249643Y-136250968D01*
X157156747Y-136068650D01*
X157124362Y-136024077D01*
X157124362Y-136024076D01*
X156444888Y-136703551D01*
X156444888Y-136697339D01*
X156417629Y-136595606D01*
X156364968Y-136504394D01*
X156290494Y-136429920D01*
X156199282Y-136377259D01*
X156097549Y-136350000D01*
X156091334Y-136350000D01*
X156770810Y-135670524D01*
X156770809Y-135670523D01*
X156726247Y-135638147D01*
X156726238Y-135638141D01*
X156543919Y-135545244D01*
X156349305Y-135482009D01*
X156147205Y-135450000D01*
X155942571Y-135450000D01*
X155740470Y-135482009D01*
X155545856Y-135545244D01*
X155363532Y-135638143D01*
X155318965Y-135670523D01*
X155318965Y-135670524D01*
X155998442Y-136350000D01*
X155992227Y-136350000D01*
X155890494Y-136377259D01*
X155799282Y-136429920D01*
X155724808Y-136504394D01*
X155672147Y-136595606D01*
X155644888Y-136697339D01*
X155644888Y-136703553D01*
X154965412Y-136024077D01*
X154927607Y-136027053D01*
X154859229Y-136012689D01*
X154809472Y-135963638D01*
X154806998Y-135958949D01*
X154802989Y-135950942D01*
X154779702Y-135880666D01*
X154687600Y-135731344D01*
X154563544Y-135607288D01*
X154414222Y-135515186D01*
X154247685Y-135460001D01*
X154247683Y-135460000D01*
X154144898Y-135449500D01*
X152944886Y-135449500D01*
X152944869Y-135449501D01*
X152842091Y-135460000D01*
X152842088Y-135460001D01*
X152675556Y-135515185D01*
X152675551Y-135515187D01*
X152526230Y-135607289D01*
X152402177Y-135731342D01*
X152310075Y-135880663D01*
X152310073Y-135880668D01*
X152299723Y-135911902D01*
X152254889Y-136047203D01*
X152254889Y-136047204D01*
X152254888Y-136047204D01*
X152244388Y-136149983D01*
X151096464Y-136149983D01*
X151187294Y-136059153D01*
X151225922Y-136020524D01*
X151225921Y-136020523D01*
X151181359Y-135988147D01*
X151181350Y-135988141D01*
X151127621Y-135960765D01*
X151076825Y-135912791D01*
X151060030Y-135844970D01*
X151082567Y-135778835D01*
X151127621Y-135739795D01*
X151181610Y-135712287D01*
X151260157Y-135655220D01*
X151347213Y-135591971D01*
X151347215Y-135591968D01*
X151347219Y-135591966D01*
X151491966Y-135447219D01*
X151491968Y-135447215D01*
X151491971Y-135447213D01*
X151544732Y-135374590D01*
X151612287Y-135281610D01*
X151705220Y-135099219D01*
X151768477Y-134904534D01*
X151800500Y-134702352D01*
X151800500Y-134497648D01*
X151785284Y-134401577D01*
X151768477Y-134295465D01*
X151719739Y-134145466D01*
X151705220Y-134100781D01*
X151705218Y-134100778D01*
X151705218Y-134100776D01*
X151668995Y-134029686D01*
X151612287Y-133918390D01*
X151556328Y-133841368D01*
X151491971Y-133752786D01*
X151347213Y-133608028D01*
X151181613Y-133487715D01*
X151181612Y-133487714D01*
X151181610Y-133487713D01*
X151123350Y-133458028D01*
X150999223Y-133394781D01*
X150804534Y-133331522D01*
X150629995Y-133303878D01*
X150602352Y-133299500D01*
X150397648Y-133299500D01*
X150373329Y-133303351D01*
X150195465Y-133331522D01*
X150000776Y-133394781D01*
X149818386Y-133487715D01*
X149652786Y-133608028D01*
X149508028Y-133752786D01*
X149387715Y-133918386D01*
X149294781Y-134100776D01*
X149231522Y-134295465D01*
X149199500Y-134497648D01*
X149199500Y-134702351D01*
X149231522Y-134904534D01*
X149294781Y-135099223D01*
X149387715Y-135281613D01*
X149508028Y-135447213D01*
X149652786Y-135591971D01*
X149818385Y-135712284D01*
X149818387Y-135712285D01*
X149818390Y-135712287D01*
X149872378Y-135739795D01*
X149923174Y-135787769D01*
X149939969Y-135855590D01*
X149917432Y-135921725D01*
X149872378Y-135960765D01*
X149818644Y-135988143D01*
X149774077Y-136020523D01*
X149774077Y-136020524D01*
X150453554Y-136700000D01*
X150447339Y-136700000D01*
X150345606Y-136727259D01*
X150254394Y-136779920D01*
X150179920Y-136854394D01*
X150127259Y-136945606D01*
X150100000Y-137047339D01*
X150100000Y-137053553D01*
X149420524Y-136374077D01*
X149420523Y-136374077D01*
X149388143Y-136418644D01*
X149295244Y-136600968D01*
X149232009Y-136795582D01*
X149200000Y-136997682D01*
X149200000Y-137202317D01*
X149232009Y-137404417D01*
X149295244Y-137599031D01*
X149388141Y-137781350D01*
X149388147Y-137781359D01*
X149420523Y-137825921D01*
X149420524Y-137825922D01*
X150100000Y-137146446D01*
X150100000Y-137152661D01*
X150127259Y-137254394D01*
X150179920Y-137345606D01*
X150254394Y-137420080D01*
X150345606Y-137472741D01*
X150447339Y-137500000D01*
X150453553Y-137500000D01*
X149774077Y-138179474D01*
X149776973Y-138216271D01*
X149762609Y-138284648D01*
X149713557Y-138334405D01*
X149653355Y-138350000D01*
X148664499Y-138350000D01*
X148597460Y-138330315D01*
X148551705Y-138277511D01*
X148540499Y-138226000D01*
X148540499Y-137602129D01*
X148540498Y-137602123D01*
X148536292Y-137562997D01*
X148534091Y-137542517D01*
X148532810Y-137539083D01*
X148483797Y-137407671D01*
X148483793Y-137407664D01*
X148397547Y-137292455D01*
X148397544Y-137292452D01*
X148282335Y-137206206D01*
X148282328Y-137206202D01*
X148147482Y-137155908D01*
X148147483Y-137155908D01*
X148087883Y-137149501D01*
X148087881Y-137149500D01*
X148087873Y-137149500D01*
X148087864Y-137149500D01*
X146292129Y-137149500D01*
X146292123Y-137149501D01*
X146232516Y-137155908D01*
X146097671Y-137206202D01*
X146097664Y-137206206D01*
X145982455Y-137292452D01*
X145982452Y-137292455D01*
X145896206Y-137407664D01*
X145896203Y-137407669D01*
X145847189Y-137539083D01*
X145805317Y-137595016D01*
X145739853Y-137619433D01*
X145671580Y-137604581D01*
X145643326Y-137583430D01*
X145529786Y-137469890D01*
X145357815Y-137344948D01*
X145357814Y-137344947D01*
X145318205Y-137324765D01*
X145267409Y-137276791D01*
X145250500Y-137214281D01*
X145250500Y-134347648D01*
X145909500Y-134347648D01*
X145909500Y-134552351D01*
X145941522Y-134754534D01*
X146004781Y-134949223D01*
X146057398Y-135052487D01*
X146080803Y-135098423D01*
X146097715Y-135131613D01*
X146218028Y-135297213D01*
X146362786Y-135441971D01*
X146504932Y-135545244D01*
X146528390Y-135562287D01*
X146644607Y-135621503D01*
X146710776Y-135655218D01*
X146710778Y-135655218D01*
X146710781Y-135655220D01*
X146757879Y-135670523D01*
X146905465Y-135718477D01*
X146986691Y-135731342D01*
X147107648Y-135750500D01*
X147107649Y-135750500D01*
X147312351Y-135750500D01*
X147312352Y-135750500D01*
X147514534Y-135718477D01*
X147709219Y-135655220D01*
X147891610Y-135562287D01*
X148032396Y-135460001D01*
X148057213Y-135441971D01*
X148057215Y-135441968D01*
X148057219Y-135441966D01*
X148201966Y-135297219D01*
X148201968Y-135297215D01*
X148201971Y-135297213D01*
X148254732Y-135224590D01*
X148322287Y-135131610D01*
X148415220Y-134949219D01*
X148478477Y-134754534D01*
X148510500Y-134552352D01*
X148510500Y-134347648D01*
X148502235Y-134295465D01*
X148478477Y-134145465D01*
X148415218Y-133950776D01*
X148359471Y-133841368D01*
X148322287Y-133768390D01*
X148310950Y-133752786D01*
X148201971Y-133602786D01*
X148057213Y-133458028D01*
X147891613Y-133337715D01*
X147891612Y-133337714D01*
X147891610Y-133337713D01*
X147816613Y-133299500D01*
X147709223Y-133244781D01*
X147514534Y-133181522D01*
X147339995Y-133153878D01*
X147312352Y-133149500D01*
X147107648Y-133149500D01*
X147083329Y-133153351D01*
X146905465Y-133181522D01*
X146710776Y-133244781D01*
X146528386Y-133337715D01*
X146362786Y-133458028D01*
X146218028Y-133602786D01*
X146097715Y-133768386D01*
X146004781Y-133950776D01*
X145941522Y-134145465D01*
X145909500Y-134347648D01*
X145250500Y-134347648D01*
X145250500Y-128855945D01*
X145250500Y-128855943D01*
X145209577Y-128703216D01*
X145209577Y-128703215D01*
X145209577Y-128703214D01*
X145180639Y-128653095D01*
X145180637Y-128653092D01*
X145162889Y-128622351D01*
X145130520Y-128566284D01*
X145018716Y-128454480D01*
X145018715Y-128454479D01*
X145014385Y-128450149D01*
X145014374Y-128450139D01*
X142989077Y-126424842D01*
X142955592Y-126363519D01*
X142958828Y-126298841D01*
X142963477Y-126284534D01*
X142995500Y-126082352D01*
X142995500Y-125877648D01*
X142963477Y-125675465D01*
X142934127Y-125585137D01*
X142900220Y-125480781D01*
X142900218Y-125480778D01*
X142900218Y-125480776D01*
X142866503Y-125414607D01*
X142807287Y-125298390D01*
X142799556Y-125287749D01*
X142686971Y-125132786D01*
X142542217Y-124988032D01*
X142542212Y-124988028D01*
X142448051Y-124919616D01*
X142405385Y-124864286D01*
X142399406Y-124794673D01*
X142432012Y-124732878D01*
X142481933Y-124701592D01*
X142564117Y-124674359D01*
X142564124Y-124674356D01*
X142713345Y-124582315D01*
X142837315Y-124458345D01*
X142929356Y-124309124D01*
X142929358Y-124309119D01*
X142984505Y-124142697D01*
X142984506Y-124142690D01*
X142994999Y-124039986D01*
X142995000Y-124039973D01*
X142995000Y-123690000D01*
X142010686Y-123690000D01*
X142015080Y-123685606D01*
X142067741Y-123594394D01*
X142095000Y-123492661D01*
X142095000Y-123387339D01*
X142081685Y-123337648D01*
X148014500Y-123337648D01*
X148014500Y-123542351D01*
X148046522Y-123744534D01*
X148109781Y-123939223D01*
X148161117Y-124039973D01*
X148200376Y-124117024D01*
X148202715Y-124121613D01*
X148323028Y-124287213D01*
X148467786Y-124431971D01*
X148622749Y-124544556D01*
X148633390Y-124552287D01*
X148700845Y-124586657D01*
X148726080Y-124599515D01*
X148776876Y-124647490D01*
X148793671Y-124715311D01*
X148771134Y-124781446D01*
X148726080Y-124820485D01*
X148633386Y-124867715D01*
X148467786Y-124988028D01*
X148323028Y-125132786D01*
X148202715Y-125298386D01*
X148109781Y-125480776D01*
X148046522Y-125675465D01*
X148014500Y-125877648D01*
X148014500Y-126082351D01*
X148046522Y-126284534D01*
X148109781Y-126479223D01*
X148173691Y-126604653D01*
X148200075Y-126656433D01*
X148202715Y-126661613D01*
X148323028Y-126827213D01*
X148467786Y-126971971D01*
X148622749Y-127084556D01*
X148633390Y-127092287D01*
X148724840Y-127138883D01*
X148726080Y-127139515D01*
X148776876Y-127187490D01*
X148793671Y-127255311D01*
X148771134Y-127321446D01*
X148726080Y-127360485D01*
X148633386Y-127407715D01*
X148467786Y-127528028D01*
X148323028Y-127672786D01*
X148202715Y-127838386D01*
X148109781Y-128020776D01*
X148046522Y-128215465D01*
X148014500Y-128417648D01*
X148014500Y-128622351D01*
X148046522Y-128824534D01*
X148109781Y-129019223D01*
X148173691Y-129144653D01*
X148193605Y-129183735D01*
X148202715Y-129201613D01*
X148323028Y-129367213D01*
X148467786Y-129511971D01*
X148613764Y-129618028D01*
X148633390Y-129632287D01*
X148700845Y-129666657D01*
X148726080Y-129679515D01*
X148776876Y-129727490D01*
X148793671Y-129795311D01*
X148771134Y-129861446D01*
X148726080Y-129900485D01*
X148633386Y-129947715D01*
X148467786Y-130068028D01*
X148323028Y-130212786D01*
X148202715Y-130378386D01*
X148109781Y-130560776D01*
X148046522Y-130755465D01*
X148014500Y-130957648D01*
X148014500Y-131162351D01*
X148046522Y-131364534D01*
X148109781Y-131559223D01*
X148173691Y-131684653D01*
X148200075Y-131736433D01*
X148202715Y-131741613D01*
X148323028Y-131907213D01*
X148467786Y-132051971D01*
X148622749Y-132164556D01*
X148633390Y-132172287D01*
X148693931Y-132203134D01*
X148815776Y-132265218D01*
X148815778Y-132265218D01*
X148815781Y-132265220D01*
X148873860Y-132284091D01*
X149010465Y-132328477D01*
X149111557Y-132344488D01*
X149212648Y-132360500D01*
X149212649Y-132360500D01*
X149417351Y-132360500D01*
X149417352Y-132360500D01*
X149619534Y-132328477D01*
X149814219Y-132265220D01*
X149815717Y-132264457D01*
X149829205Y-132257584D01*
X149996610Y-132172287D01*
X150089590Y-132104732D01*
X150162213Y-132051971D01*
X150162215Y-132051968D01*
X150162219Y-132051966D01*
X150306966Y-131907219D01*
X150306968Y-131907215D01*
X150306971Y-131907213D01*
X150373389Y-131815795D01*
X150427287Y-131741610D01*
X150520220Y-131559219D01*
X150583477Y-131364534D01*
X150615500Y-131162352D01*
X150615500Y-130957648D01*
X151749500Y-130957648D01*
X151749500Y-131162351D01*
X151781522Y-131364534D01*
X151844781Y-131559223D01*
X151908691Y-131684653D01*
X151935075Y-131736433D01*
X151937715Y-131741613D01*
X152058028Y-131907213D01*
X152202786Y-132051971D01*
X152357749Y-132164556D01*
X152368390Y-132172287D01*
X152428931Y-132203134D01*
X152550776Y-132265218D01*
X152550778Y-132265218D01*
X152550781Y-132265220D01*
X152608860Y-132284091D01*
X152745465Y-132328477D01*
X152846557Y-132344488D01*
X152947648Y-132360500D01*
X152947649Y-132360500D01*
X153152351Y-132360500D01*
X153152352Y-132360500D01*
X153354534Y-132328477D01*
X153549219Y-132265220D01*
X153550717Y-132264457D01*
X153564205Y-132257584D01*
X153731610Y-132172287D01*
X153824590Y-132104732D01*
X153897213Y-132051971D01*
X153897215Y-132051968D01*
X153897219Y-132051966D01*
X154035757Y-131913428D01*
X155850000Y-131913428D01*
X155850000Y-132086571D01*
X155877085Y-132257584D01*
X155930592Y-132422259D01*
X156009196Y-132576525D01*
X156013709Y-132582736D01*
X156013709Y-132582737D01*
X156596446Y-132000001D01*
X156596446Y-131999999D01*
X156013709Y-131417261D01*
X156013708Y-131417261D01*
X156009203Y-131423463D01*
X156009193Y-131423480D01*
X155930592Y-131577740D01*
X155877085Y-131742415D01*
X155850000Y-131913428D01*
X154035757Y-131913428D01*
X154041966Y-131907219D01*
X154162287Y-131741610D01*
X154255220Y-131559219D01*
X154318477Y-131364534D01*
X154350500Y-131162352D01*
X154350500Y-131063708D01*
X156367261Y-131063708D01*
X156367261Y-131063709D01*
X157008697Y-131705145D01*
X156989496Y-131700000D01*
X156910504Y-131700000D01*
X156834204Y-131720444D01*
X156765795Y-131759940D01*
X156709940Y-131815795D01*
X156670444Y-131884204D01*
X156650000Y-131960504D01*
X156650000Y-132039496D01*
X156670444Y-132115796D01*
X156709940Y-132184205D01*
X156765795Y-132240060D01*
X156834204Y-132279556D01*
X156910504Y-132300000D01*
X156989496Y-132300000D01*
X157008696Y-132294855D01*
X156367261Y-132936289D01*
X156367262Y-132936290D01*
X156373471Y-132940801D01*
X156527742Y-133019408D01*
X156692415Y-133072914D01*
X156863429Y-133100000D01*
X157036571Y-133100000D01*
X157207584Y-133072914D01*
X157372259Y-133019407D01*
X157520145Y-132944054D01*
X157588814Y-132931157D01*
X157641535Y-132948998D01*
X157780666Y-133034814D01*
X157947203Y-133089999D01*
X158049991Y-133100500D01*
X158850008Y-133100499D01*
X158850016Y-133100498D01*
X158850019Y-133100498D01*
X158906302Y-133094748D01*
X158952797Y-133089999D01*
X159119334Y-133034814D01*
X159268656Y-132942712D01*
X159392712Y-132818656D01*
X159484814Y-132669334D01*
X159539999Y-132502797D01*
X159550500Y-132400009D01*
X159550499Y-131599992D01*
X159550498Y-131599983D01*
X160876901Y-131599983D01*
X160876901Y-132400001D01*
X160876902Y-132400019D01*
X160887401Y-132502796D01*
X160887402Y-132502799D01*
X160919681Y-132600208D01*
X160942587Y-132669334D01*
X161034689Y-132818656D01*
X161158745Y-132942712D01*
X161308067Y-133034814D01*
X161474604Y-133089999D01*
X161577392Y-133100500D01*
X162377409Y-133100499D01*
X162377417Y-133100498D01*
X162377420Y-133100498D01*
X162433703Y-133094748D01*
X162480198Y-133089999D01*
X162646735Y-133034814D01*
X162785865Y-132948997D01*
X162853254Y-132930559D01*
X162907255Y-132944054D01*
X163055141Y-133019407D01*
X163219816Y-133072914D01*
X163390830Y-133100000D01*
X163563972Y-133100000D01*
X163734985Y-133072914D01*
X163899658Y-133019408D01*
X164053926Y-132940803D01*
X164060137Y-132936289D01*
X163418702Y-132294854D01*
X163437905Y-132300000D01*
X163516897Y-132300000D01*
X163593197Y-132279556D01*
X163661606Y-132240060D01*
X163717461Y-132184205D01*
X163756957Y-132115796D01*
X163777401Y-132039496D01*
X163777401Y-131999999D01*
X163830954Y-131999999D01*
X163830954Y-132000000D01*
X164413690Y-132582736D01*
X164418204Y-132576525D01*
X164496809Y-132422257D01*
X164550315Y-132257584D01*
X164577401Y-132086571D01*
X164577401Y-131913428D01*
X164550315Y-131742415D01*
X164496809Y-131577742D01*
X164418202Y-131423471D01*
X164413691Y-131417262D01*
X164413690Y-131417261D01*
X163830954Y-131999999D01*
X163777401Y-131999999D01*
X163777401Y-131960504D01*
X163756957Y-131884204D01*
X163717461Y-131815795D01*
X163661606Y-131759940D01*
X163593197Y-131720444D01*
X163516897Y-131700000D01*
X163437905Y-131700000D01*
X163418701Y-131705145D01*
X164060138Y-131063709D01*
X164053926Y-131059196D01*
X163899660Y-130980592D01*
X163790017Y-130944967D01*
X163734985Y-130927085D01*
X163563972Y-130900000D01*
X163390830Y-130900000D01*
X163219816Y-130927085D01*
X163055143Y-130980591D01*
X162907254Y-131055946D01*
X162838585Y-131068842D01*
X162785863Y-131051000D01*
X162646741Y-130965189D01*
X162646736Y-130965187D01*
X162646735Y-130965186D01*
X162480198Y-130910001D01*
X162480196Y-130910000D01*
X162377411Y-130899500D01*
X161577399Y-130899500D01*
X161577381Y-130899501D01*
X161474604Y-130910000D01*
X161474601Y-130910001D01*
X161308069Y-130965185D01*
X161308064Y-130965187D01*
X161158743Y-131057289D01*
X161034690Y-131181342D01*
X160942588Y-131330663D01*
X160942587Y-131330666D01*
X160887402Y-131497203D01*
X160887402Y-131497204D01*
X160887401Y-131497204D01*
X160876901Y-131599983D01*
X159550498Y-131599983D01*
X159546334Y-131559223D01*
X159539999Y-131497203D01*
X159539998Y-131497200D01*
X159538345Y-131492213D01*
X159484814Y-131330666D01*
X159392712Y-131181344D01*
X159268656Y-131057288D01*
X159119334Y-130965186D01*
X158952797Y-130910001D01*
X158952795Y-130910000D01*
X158850010Y-130899500D01*
X158049998Y-130899500D01*
X158049980Y-130899501D01*
X157947203Y-130910000D01*
X157947200Y-130910001D01*
X157780668Y-130965185D01*
X157780659Y-130965189D01*
X157641538Y-131051000D01*
X157574146Y-131069440D01*
X157520147Y-131055946D01*
X157372257Y-130980591D01*
X157207584Y-130927085D01*
X157036571Y-130900000D01*
X156863429Y-130900000D01*
X156692415Y-130927085D01*
X156527740Y-130980592D01*
X156373480Y-131059193D01*
X156373463Y-131059203D01*
X156367261Y-131063708D01*
X154350500Y-131063708D01*
X154350500Y-130957648D01*
X154349215Y-130949534D01*
X154330584Y-130831902D01*
X165619500Y-130831902D01*
X165619500Y-131068097D01*
X165656446Y-131301368D01*
X165729433Y-131525996D01*
X165818093Y-131700000D01*
X165836657Y-131736433D01*
X165975483Y-131927510D01*
X166142490Y-132094517D01*
X166177127Y-132119683D01*
X166219792Y-132175013D01*
X166225771Y-132244626D01*
X166193165Y-132306421D01*
X166177130Y-132320315D01*
X166165897Y-132328477D01*
X166142488Y-132345484D01*
X165975485Y-132512487D01*
X165975485Y-132512488D01*
X165975483Y-132512490D01*
X165928959Y-132576525D01*
X165836657Y-132703566D01*
X165729433Y-132914003D01*
X165656446Y-133138631D01*
X165619500Y-133371902D01*
X165619500Y-133608097D01*
X165656446Y-133841368D01*
X165729433Y-134065996D01*
X165791504Y-134187816D01*
X165836657Y-134276433D01*
X165975483Y-134467510D01*
X166142490Y-134634517D01*
X166177127Y-134659683D01*
X166219792Y-134715013D01*
X166225771Y-134784626D01*
X166193165Y-134846421D01*
X166177130Y-134860315D01*
X166170750Y-134864951D01*
X166142488Y-134885484D01*
X165975485Y-135052487D01*
X165975485Y-135052488D01*
X165975483Y-135052490D01*
X165937728Y-135104455D01*
X165836657Y-135243566D01*
X165729433Y-135454003D01*
X165656446Y-135678631D01*
X165619500Y-135911902D01*
X165619500Y-136148097D01*
X165656446Y-136381368D01*
X165729433Y-136605996D01*
X165802808Y-136750001D01*
X165836657Y-136816433D01*
X165975483Y-137007510D01*
X166142490Y-137174517D01*
X166333567Y-137313343D01*
X166405526Y-137350008D01*
X166544003Y-137420566D01*
X166544005Y-137420566D01*
X166544008Y-137420568D01*
X166645525Y-137453553D01*
X166768631Y-137493553D01*
X167001903Y-137530500D01*
X167001908Y-137530500D01*
X167238097Y-137530500D01*
X167471368Y-137493553D01*
X167502603Y-137483404D01*
X167695992Y-137420568D01*
X167906433Y-137313343D01*
X168097510Y-137174517D01*
X168264517Y-137007510D01*
X168403343Y-136816433D01*
X168510568Y-136605992D01*
X168583553Y-136381368D01*
X168590701Y-136336239D01*
X168620500Y-136148097D01*
X168620500Y-135911902D01*
X168583553Y-135678631D01*
X168530446Y-135515186D01*
X168510568Y-135454008D01*
X168510566Y-135454005D01*
X168510566Y-135454003D01*
X168438305Y-135312184D01*
X168403343Y-135243567D01*
X168264517Y-135052490D01*
X168097510Y-134885483D01*
X168062872Y-134860317D01*
X168020207Y-134804989D01*
X168014228Y-134735375D01*
X168046833Y-134673580D01*
X168062873Y-134659682D01*
X168097510Y-134634517D01*
X168264517Y-134467510D01*
X168403343Y-134276433D01*
X168510568Y-134065992D01*
X168583553Y-133841368D01*
X168590701Y-133796239D01*
X168620500Y-133608097D01*
X168620500Y-133371902D01*
X168583553Y-133138631D01*
X168521937Y-132948999D01*
X168510568Y-132914008D01*
X168510566Y-132914005D01*
X168510566Y-132914003D01*
X168438305Y-132772184D01*
X168403343Y-132703567D01*
X168264517Y-132512490D01*
X168097510Y-132345483D01*
X168062872Y-132320317D01*
X168020207Y-132264989D01*
X168014228Y-132195375D01*
X168046833Y-132133580D01*
X168062873Y-132119682D01*
X168097510Y-132094517D01*
X168264517Y-131927510D01*
X168403343Y-131736433D01*
X168510568Y-131525992D01*
X168583553Y-131301368D01*
X168602563Y-131181344D01*
X168620500Y-131068097D01*
X168620500Y-130831902D01*
X170699500Y-130831902D01*
X170699500Y-131068097D01*
X170736446Y-131301368D01*
X170809433Y-131525996D01*
X170898093Y-131700000D01*
X170916657Y-131736433D01*
X171055483Y-131927510D01*
X171222490Y-132094517D01*
X171257127Y-132119683D01*
X171299792Y-132175013D01*
X171305771Y-132244626D01*
X171273165Y-132306421D01*
X171257130Y-132320315D01*
X171245897Y-132328477D01*
X171222488Y-132345484D01*
X171055485Y-132512487D01*
X171055485Y-132512488D01*
X171055483Y-132512490D01*
X171008959Y-132576525D01*
X170916657Y-132703566D01*
X170809433Y-132914003D01*
X170736446Y-133138631D01*
X170699500Y-133371902D01*
X170699500Y-133608097D01*
X170736446Y-133841368D01*
X170809433Y-134065996D01*
X170871504Y-134187816D01*
X170916657Y-134276433D01*
X171055483Y-134467510D01*
X171222490Y-134634517D01*
X171257127Y-134659683D01*
X171299792Y-134715013D01*
X171305771Y-134784626D01*
X171273165Y-134846421D01*
X171257130Y-134860315D01*
X171250750Y-134864951D01*
X171222488Y-134885484D01*
X171055485Y-135052487D01*
X171055485Y-135052488D01*
X171055483Y-135052490D01*
X171017728Y-135104455D01*
X170916657Y-135243566D01*
X170809433Y-135454003D01*
X170736446Y-135678631D01*
X170699500Y-135911902D01*
X170699500Y-136148097D01*
X170736446Y-136381368D01*
X170809433Y-136605996D01*
X170882808Y-136750001D01*
X170916657Y-136816433D01*
X171055483Y-137007510D01*
X171222490Y-137174517D01*
X171413567Y-137313343D01*
X171485526Y-137350008D01*
X171624003Y-137420566D01*
X171624005Y-137420566D01*
X171624008Y-137420568D01*
X171725525Y-137453553D01*
X171848631Y-137493553D01*
X172081903Y-137530500D01*
X172081908Y-137530500D01*
X172318097Y-137530500D01*
X172551368Y-137493553D01*
X172582603Y-137483404D01*
X172775992Y-137420568D01*
X172986433Y-137313343D01*
X173177510Y-137174517D01*
X173344517Y-137007510D01*
X173483343Y-136816433D01*
X173590568Y-136605992D01*
X173663553Y-136381368D01*
X173670701Y-136336239D01*
X173700500Y-136148097D01*
X173700500Y-135911902D01*
X173663553Y-135678631D01*
X173610446Y-135515186D01*
X173590568Y-135454008D01*
X173590566Y-135454005D01*
X173590566Y-135454003D01*
X173518305Y-135312184D01*
X173483343Y-135243567D01*
X173344517Y-135052490D01*
X173177510Y-134885483D01*
X173142872Y-134860317D01*
X173100207Y-134804989D01*
X173094228Y-134735375D01*
X173126833Y-134673580D01*
X173142873Y-134659682D01*
X173177510Y-134634517D01*
X173344517Y-134467510D01*
X173483343Y-134276433D01*
X173590568Y-134065992D01*
X173663553Y-133841368D01*
X173670701Y-133796239D01*
X173700500Y-133608097D01*
X173700500Y-133371902D01*
X173663553Y-133138631D01*
X173601937Y-132948999D01*
X173590568Y-132914008D01*
X173590566Y-132914005D01*
X173590566Y-132914003D01*
X173518305Y-132772184D01*
X173483343Y-132703567D01*
X173344517Y-132512490D01*
X173177510Y-132345483D01*
X173142872Y-132320317D01*
X173100207Y-132264989D01*
X173094228Y-132195375D01*
X173126833Y-132133580D01*
X173142873Y-132119682D01*
X173177510Y-132094517D01*
X173344517Y-131927510D01*
X173483343Y-131736433D01*
X173590568Y-131525992D01*
X173663553Y-131301368D01*
X173682563Y-131181344D01*
X173700500Y-131068097D01*
X173700500Y-130831902D01*
X173663553Y-130598631D01*
X173629689Y-130494412D01*
X173590568Y-130374008D01*
X173590566Y-130374005D01*
X173590566Y-130374003D01*
X173483342Y-130163566D01*
X173344517Y-129972490D01*
X173177510Y-129805483D01*
X172986433Y-129666657D01*
X172775996Y-129559433D01*
X172551368Y-129486446D01*
X172318097Y-129449500D01*
X172318092Y-129449500D01*
X172081908Y-129449500D01*
X172081903Y-129449500D01*
X171848631Y-129486446D01*
X171624003Y-129559433D01*
X171413566Y-129666657D01*
X171332962Y-129725220D01*
X171222490Y-129805483D01*
X171222488Y-129805485D01*
X171222487Y-129805485D01*
X171055485Y-129972487D01*
X171055485Y-129972488D01*
X171055483Y-129972490D01*
X171048198Y-129982517D01*
X170916657Y-130163566D01*
X170809433Y-130374003D01*
X170736446Y-130598631D01*
X170699500Y-130831902D01*
X168620500Y-130831902D01*
X168583553Y-130598631D01*
X168549689Y-130494412D01*
X168510568Y-130374008D01*
X168510566Y-130374005D01*
X168510566Y-130374003D01*
X168403342Y-130163566D01*
X168264517Y-129972490D01*
X168097510Y-129805483D01*
X167906433Y-129666657D01*
X167695996Y-129559433D01*
X167471368Y-129486446D01*
X167238097Y-129449500D01*
X167238092Y-129449500D01*
X167001908Y-129449500D01*
X167001903Y-129449500D01*
X166768631Y-129486446D01*
X166544003Y-129559433D01*
X166333566Y-129666657D01*
X166252962Y-129725220D01*
X166142490Y-129805483D01*
X166142488Y-129805485D01*
X166142487Y-129805485D01*
X165975485Y-129972487D01*
X165975485Y-129972488D01*
X165975483Y-129972490D01*
X165968198Y-129982517D01*
X165836657Y-130163566D01*
X165729433Y-130374003D01*
X165656446Y-130598631D01*
X165619500Y-130831902D01*
X154330584Y-130831902D01*
X154318477Y-130755465D01*
X154289127Y-130665137D01*
X154255220Y-130560781D01*
X154255218Y-130560778D01*
X154255218Y-130560776D01*
X154221503Y-130494607D01*
X154162287Y-130378390D01*
X154134733Y-130340465D01*
X154041971Y-130212786D01*
X153897213Y-130068028D01*
X153731613Y-129947715D01*
X153731612Y-129947714D01*
X153731610Y-129947713D01*
X153674653Y-129918691D01*
X153549223Y-129854781D01*
X153354534Y-129791522D01*
X153179995Y-129763878D01*
X153152352Y-129759500D01*
X152947648Y-129759500D01*
X152926933Y-129762781D01*
X152745465Y-129791522D01*
X152550776Y-129854781D01*
X152368386Y-129947715D01*
X152202786Y-130068028D01*
X152058028Y-130212786D01*
X151937715Y-130378386D01*
X151844781Y-130560776D01*
X151781522Y-130755465D01*
X151749500Y-130957648D01*
X150615500Y-130957648D01*
X150614215Y-130949534D01*
X150583477Y-130755465D01*
X150554127Y-130665137D01*
X150520220Y-130560781D01*
X150520218Y-130560778D01*
X150520218Y-130560776D01*
X150486503Y-130494607D01*
X150427287Y-130378390D01*
X150399733Y-130340465D01*
X150306971Y-130212786D01*
X150162213Y-130068028D01*
X149996614Y-129947715D01*
X149990006Y-129944348D01*
X149903917Y-129900483D01*
X149853123Y-129852511D01*
X149836328Y-129784690D01*
X149858865Y-129718555D01*
X149903917Y-129679516D01*
X149996610Y-129632287D01*
X150017770Y-129616913D01*
X150162213Y-129511971D01*
X150162215Y-129511968D01*
X150162219Y-129511966D01*
X150306966Y-129367219D01*
X150306968Y-129367215D01*
X150306971Y-129367213D01*
X150402957Y-129235097D01*
X150427287Y-129201610D01*
X150520220Y-129019219D01*
X150583477Y-128824534D01*
X150615500Y-128622352D01*
X150615500Y-128417648D01*
X150603426Y-128341416D01*
X150583477Y-128215465D01*
X150520218Y-128020776D01*
X150486503Y-127954607D01*
X150427287Y-127838390D01*
X150419556Y-127827749D01*
X150306971Y-127672786D01*
X150162213Y-127528028D01*
X149996614Y-127407715D01*
X149923575Y-127370500D01*
X149903917Y-127360483D01*
X149853123Y-127312511D01*
X149836328Y-127244690D01*
X149858865Y-127178555D01*
X149903917Y-127139516D01*
X149996610Y-127092287D01*
X150017770Y-127076913D01*
X150162213Y-126971971D01*
X150162215Y-126971968D01*
X150162219Y-126971966D01*
X150306966Y-126827219D01*
X150306968Y-126827215D01*
X150306971Y-126827213D01*
X150359732Y-126754590D01*
X150427287Y-126661610D01*
X150520220Y-126479219D01*
X150583477Y-126284534D01*
X150615500Y-126082352D01*
X150615500Y-125877648D01*
X150583477Y-125675465D01*
X150554127Y-125585137D01*
X150520220Y-125480781D01*
X150520218Y-125480778D01*
X150520218Y-125480776D01*
X150486503Y-125414607D01*
X150427287Y-125298390D01*
X150419556Y-125287749D01*
X150306971Y-125132786D01*
X150162213Y-124988028D01*
X149996614Y-124867715D01*
X149989884Y-124864286D01*
X149907159Y-124822135D01*
X165619500Y-124822135D01*
X165619500Y-126917870D01*
X165619501Y-126917876D01*
X165625908Y-126977483D01*
X165676202Y-127112328D01*
X165676206Y-127112335D01*
X165762452Y-127227544D01*
X165762455Y-127227547D01*
X165877664Y-127313793D01*
X165877671Y-127313797D01*
X166012517Y-127364091D01*
X166012516Y-127364091D01*
X166019444Y-127364835D01*
X166072127Y-127370500D01*
X168167872Y-127370499D01*
X168227483Y-127364091D01*
X168362331Y-127313796D01*
X168477546Y-127227546D01*
X168563796Y-127112331D01*
X168614091Y-126977483D01*
X168620500Y-126917873D01*
X168620499Y-125751902D01*
X170699500Y-125751902D01*
X170699500Y-125988097D01*
X170736446Y-126221368D01*
X170809433Y-126445996D01*
X170916657Y-126656433D01*
X171055483Y-126847510D01*
X171222490Y-127014517D01*
X171413567Y-127153343D01*
X171512991Y-127204002D01*
X171624003Y-127260566D01*
X171624005Y-127260566D01*
X171624008Y-127260568D01*
X171744412Y-127299689D01*
X171848631Y-127333553D01*
X172081903Y-127370500D01*
X172081908Y-127370500D01*
X172318097Y-127370500D01*
X172551368Y-127333553D01*
X172609145Y-127314780D01*
X172775992Y-127260568D01*
X172986433Y-127153343D01*
X173177510Y-127014517D01*
X173344517Y-126847510D01*
X173483343Y-126656433D01*
X173590568Y-126445992D01*
X173663553Y-126221368D01*
X173685571Y-126082351D01*
X173700500Y-125988097D01*
X173700500Y-125751902D01*
X173663553Y-125518631D01*
X173629689Y-125414412D01*
X173590568Y-125294008D01*
X173590566Y-125294005D01*
X173590566Y-125294003D01*
X173483342Y-125083566D01*
X173344517Y-124892490D01*
X173177510Y-124725483D01*
X172986433Y-124586657D01*
X172977911Y-124582315D01*
X172775996Y-124479433D01*
X172551368Y-124406446D01*
X172318097Y-124369500D01*
X172318092Y-124369500D01*
X172081908Y-124369500D01*
X172081903Y-124369500D01*
X171848631Y-124406446D01*
X171624003Y-124479433D01*
X171413566Y-124586657D01*
X171332965Y-124645218D01*
X171222490Y-124725483D01*
X171222488Y-124725485D01*
X171222487Y-124725485D01*
X171055485Y-124892487D01*
X171055485Y-124892488D01*
X171055483Y-124892490D01*
X171035775Y-124919616D01*
X170916657Y-125083566D01*
X170809433Y-125294003D01*
X170736446Y-125518631D01*
X170699500Y-125751902D01*
X168620499Y-125751902D01*
X168620499Y-124822128D01*
X168614091Y-124762517D01*
X168606201Y-124741364D01*
X168563797Y-124627671D01*
X168563793Y-124627664D01*
X168477547Y-124512455D01*
X168477544Y-124512452D01*
X168362335Y-124426206D01*
X168362328Y-124426202D01*
X168227482Y-124375908D01*
X168227483Y-124375908D01*
X168167883Y-124369501D01*
X168167881Y-124369500D01*
X168167873Y-124369500D01*
X168167864Y-124369500D01*
X166072129Y-124369500D01*
X166072123Y-124369501D01*
X166012516Y-124375908D01*
X165877671Y-124426202D01*
X165877664Y-124426206D01*
X165762455Y-124512452D01*
X165762452Y-124512455D01*
X165676206Y-124627664D01*
X165676202Y-124627671D01*
X165625908Y-124762517D01*
X165619501Y-124822116D01*
X165619501Y-124822123D01*
X165619500Y-124822135D01*
X149907159Y-124822135D01*
X149903917Y-124820483D01*
X149853123Y-124772511D01*
X149836328Y-124704690D01*
X149858865Y-124638555D01*
X149903917Y-124599516D01*
X149996610Y-124552287D01*
X150017770Y-124536913D01*
X150162213Y-124431971D01*
X150162215Y-124431968D01*
X150162219Y-124431966D01*
X150306966Y-124287219D01*
X150306968Y-124287215D01*
X150306971Y-124287213D01*
X150359732Y-124214590D01*
X150427287Y-124121610D01*
X150520220Y-123939219D01*
X150583477Y-123744534D01*
X150615500Y-123542352D01*
X150615500Y-123337648D01*
X151749500Y-123337648D01*
X151749500Y-123542351D01*
X151781522Y-123744534D01*
X151844781Y-123939223D01*
X151896117Y-124039973D01*
X151935376Y-124117024D01*
X151937715Y-124121613D01*
X152058028Y-124287213D01*
X152202786Y-124431971D01*
X152357749Y-124544556D01*
X152368390Y-124552287D01*
X152461080Y-124599515D01*
X152550776Y-124645218D01*
X152550778Y-124645218D01*
X152550781Y-124645220D01*
X152640462Y-124674359D01*
X152745465Y-124708477D01*
X152764697Y-124711523D01*
X152947648Y-124740500D01*
X152947649Y-124740500D01*
X153152351Y-124740500D01*
X153152352Y-124740500D01*
X153354534Y-124708477D01*
X153549219Y-124645220D01*
X153731610Y-124552287D01*
X153831887Y-124479432D01*
X153897213Y-124431971D01*
X153897215Y-124431968D01*
X153897219Y-124431966D01*
X154041966Y-124287219D01*
X154041968Y-124287215D01*
X154041971Y-124287213D01*
X154094732Y-124214590D01*
X154162287Y-124121610D01*
X154255220Y-123939219D01*
X154318477Y-123744534D01*
X154350500Y-123542352D01*
X154350500Y-123337648D01*
X154342257Y-123285606D01*
X154318477Y-123135465D01*
X154255218Y-122940776D01*
X154212155Y-122856262D01*
X154162287Y-122758390D01*
X154134733Y-122720465D01*
X154041971Y-122592786D01*
X153897213Y-122448028D01*
X153731613Y-122327715D01*
X153731612Y-122327714D01*
X153731610Y-122327713D01*
X153672675Y-122297684D01*
X153549223Y-122234781D01*
X153354534Y-122171522D01*
X153179995Y-122143878D01*
X153152352Y-122139500D01*
X152947648Y-122139500D01*
X152926933Y-122142781D01*
X152745465Y-122171522D01*
X152550776Y-122234781D01*
X152368386Y-122327715D01*
X152202786Y-122448028D01*
X152058028Y-122592786D01*
X151937715Y-122758386D01*
X151844781Y-122940776D01*
X151781522Y-123135465D01*
X151749500Y-123337648D01*
X150615500Y-123337648D01*
X150607257Y-123285606D01*
X150583477Y-123135465D01*
X150520218Y-122940776D01*
X150477155Y-122856262D01*
X150427287Y-122758390D01*
X150399733Y-122720465D01*
X150306971Y-122592786D01*
X150162213Y-122448028D01*
X149996613Y-122327715D01*
X149996612Y-122327714D01*
X149996610Y-122327713D01*
X149937675Y-122297684D01*
X149814223Y-122234781D01*
X149619534Y-122171522D01*
X149444995Y-122143878D01*
X149417352Y-122139500D01*
X149212648Y-122139500D01*
X149191933Y-122142781D01*
X149010465Y-122171522D01*
X148815776Y-122234781D01*
X148633386Y-122327715D01*
X148467786Y-122448028D01*
X148323028Y-122592786D01*
X148202715Y-122758386D01*
X148109781Y-122940776D01*
X148046522Y-123135465D01*
X148014500Y-123337648D01*
X142081685Y-123337648D01*
X142067741Y-123285606D01*
X142015080Y-123194394D01*
X142010686Y-123190000D01*
X142994999Y-123190000D01*
X142994999Y-122840028D01*
X142994998Y-122840013D01*
X142984505Y-122737302D01*
X142929358Y-122570880D01*
X142929356Y-122570875D01*
X142837315Y-122421654D01*
X142713345Y-122297684D01*
X142564124Y-122205643D01*
X142564119Y-122205641D01*
X142397697Y-122150494D01*
X142397690Y-122150493D01*
X142294986Y-122140000D01*
X141945000Y-122140000D01*
X141945000Y-123124314D01*
X141940606Y-123119920D01*
X141849394Y-123067259D01*
X141747661Y-123040000D01*
X141642339Y-123040000D01*
X141540606Y-123067259D01*
X141449394Y-123119920D01*
X141445000Y-123124314D01*
X141445000Y-122140000D01*
X141095028Y-122140000D01*
X141095012Y-122140001D01*
X140992302Y-122150494D01*
X140825880Y-122205641D01*
X140825875Y-122205643D01*
X140676654Y-122297684D01*
X140552684Y-122421654D01*
X140460643Y-122570875D01*
X140460641Y-122570880D01*
X140405494Y-122737302D01*
X140405493Y-122737309D01*
X140395000Y-122840013D01*
X140395000Y-123190000D01*
X141379314Y-123190000D01*
X141374920Y-123194394D01*
X141322259Y-123285606D01*
X141295000Y-123387339D01*
X141295000Y-123492661D01*
X141322259Y-123594394D01*
X141374920Y-123685606D01*
X141379314Y-123690000D01*
X140395001Y-123690000D01*
X140395001Y-124039986D01*
X140405494Y-124142697D01*
X140460641Y-124309119D01*
X140460643Y-124309124D01*
X140552684Y-124458345D01*
X140676654Y-124582315D01*
X140825875Y-124674356D01*
X140825882Y-124674359D01*
X140908067Y-124701592D01*
X140965512Y-124741364D01*
X140992336Y-124805880D01*
X140980021Y-124874656D01*
X140941949Y-124919616D01*
X140847787Y-124988028D01*
X140847782Y-124988032D01*
X140703028Y-125132786D01*
X140582715Y-125298386D01*
X140489781Y-125480776D01*
X140426522Y-125675465D01*
X140394500Y-125877648D01*
X140394500Y-126082351D01*
X140426522Y-126284534D01*
X140489781Y-126479223D01*
X140553691Y-126604653D01*
X140580075Y-126656433D01*
X140582715Y-126661613D01*
X140703028Y-126827213D01*
X140847786Y-126971971D01*
X141002749Y-127084556D01*
X141013390Y-127092287D01*
X141104840Y-127138883D01*
X141106080Y-127139515D01*
X141156876Y-127187490D01*
X141173671Y-127255311D01*
X141151134Y-127321446D01*
X141106080Y-127360485D01*
X141013386Y-127407715D01*
X140847786Y-127528028D01*
X140703028Y-127672786D01*
X140582715Y-127838386D01*
X140489781Y-128020776D01*
X140426522Y-128215465D01*
X140394500Y-128417648D01*
X140394500Y-128622351D01*
X140426522Y-128824534D01*
X140489781Y-129019223D01*
X140553691Y-129144653D01*
X140573605Y-129183735D01*
X140582715Y-129201613D01*
X140703028Y-129367213D01*
X140847786Y-129511971D01*
X140993764Y-129618028D01*
X141013390Y-129632287D01*
X141080845Y-129666657D01*
X141106080Y-129679515D01*
X141156876Y-129727490D01*
X141173671Y-129795311D01*
X141151134Y-129861446D01*
X141106080Y-129900485D01*
X141013386Y-129947715D01*
X140847786Y-130068028D01*
X140703028Y-130212786D01*
X140582715Y-130378386D01*
X140489781Y-130560776D01*
X140426522Y-130755465D01*
X140394500Y-130957648D01*
X140394500Y-131162351D01*
X140426522Y-131364534D01*
X140489781Y-131559223D01*
X140553691Y-131684653D01*
X140580075Y-131736433D01*
X140582715Y-131741613D01*
X140703028Y-131907213D01*
X140847786Y-132051971D01*
X141002749Y-132164556D01*
X141013390Y-132172287D01*
X141073931Y-132203134D01*
X141195776Y-132265218D01*
X141195778Y-132265218D01*
X141195781Y-132265220D01*
X141253860Y-132284091D01*
X141390465Y-132328477D01*
X141491557Y-132344488D01*
X141592648Y-132360500D01*
X141592649Y-132360500D01*
X141797351Y-132360500D01*
X141797352Y-132360500D01*
X141999534Y-132328477D01*
X142194219Y-132265220D01*
X142195717Y-132264457D01*
X142209205Y-132257584D01*
X142376610Y-132172287D01*
X142469590Y-132104732D01*
X142542213Y-132051971D01*
X142542215Y-132051968D01*
X142542219Y-132051966D01*
X142686966Y-131907219D01*
X142686968Y-131907215D01*
X142686971Y-131907213D01*
X142753389Y-131815795D01*
X142807287Y-131741610D01*
X142900220Y-131559219D01*
X142963477Y-131364534D01*
X142995500Y-131162352D01*
X142995500Y-130957648D01*
X142994215Y-130949534D01*
X142963477Y-130755465D01*
X142934127Y-130665137D01*
X142900220Y-130560781D01*
X142900218Y-130560778D01*
X142900218Y-130560776D01*
X142866503Y-130494607D01*
X142807287Y-130378390D01*
X142779733Y-130340465D01*
X142686971Y-130212786D01*
X142542213Y-130068028D01*
X142376614Y-129947715D01*
X142370006Y-129944348D01*
X142283917Y-129900483D01*
X142233123Y-129852511D01*
X142216328Y-129784690D01*
X142238865Y-129718555D01*
X142283917Y-129679516D01*
X142376610Y-129632287D01*
X142397770Y-129616913D01*
X142542213Y-129511971D01*
X142542215Y-129511968D01*
X142542219Y-129511966D01*
X142686966Y-129367219D01*
X142686968Y-129367215D01*
X142686971Y-129367213D01*
X142782957Y-129235097D01*
X142807287Y-129201610D01*
X142900220Y-129019219D01*
X142963477Y-128824534D01*
X142995500Y-128622352D01*
X142995500Y-128429097D01*
X143015185Y-128362058D01*
X143067989Y-128316303D01*
X143137147Y-128306359D01*
X143200703Y-128335384D01*
X143207181Y-128341416D01*
X144013181Y-129147416D01*
X144046666Y-129208739D01*
X144049500Y-129235097D01*
X144049500Y-137214281D01*
X144029815Y-137281320D01*
X143981795Y-137324765D01*
X143942185Y-137344947D01*
X143942184Y-137344948D01*
X143770213Y-137469890D01*
X143619890Y-137620213D01*
X143494949Y-137792182D01*
X143490202Y-137801499D01*
X143442227Y-137852293D01*
X143374405Y-137869087D01*
X143308271Y-137846548D01*
X143269234Y-137801495D01*
X143264626Y-137792452D01*
X143225270Y-137738282D01*
X143225269Y-137738282D01*
X142613552Y-138350000D01*
X142587445Y-138350000D01*
X142575925Y-138307007D01*
X142510099Y-138192993D01*
X142417007Y-138099901D01*
X142302993Y-138034075D01*
X142239409Y-138017037D01*
X142871716Y-137384728D01*
X142817550Y-137345375D01*
X142628217Y-137248904D01*
X142426129Y-137183242D01*
X142216246Y-137150000D01*
X142003754Y-137150000D01*
X141793872Y-137183242D01*
X141793869Y-137183242D01*
X141591782Y-137248904D01*
X141402439Y-137345380D01*
X141348282Y-137384727D01*
X141348282Y-137384728D01*
X141980591Y-138017037D01*
X141917007Y-138034075D01*
X141802993Y-138099901D01*
X141709901Y-138192993D01*
X141644075Y-138307007D01*
X141632555Y-138350000D01*
X141606446Y-138350000D01*
X140994728Y-137738282D01*
X140994727Y-137738282D01*
X140955380Y-137792439D01*
X140858904Y-137981782D01*
X140793242Y-138183872D01*
X140783497Y-138245399D01*
X140753567Y-138308533D01*
X140694256Y-138345464D01*
X140661024Y-138350000D01*
X137394181Y-138350000D01*
X137327142Y-138330315D01*
X137281387Y-138277511D01*
X137271443Y-138208353D01*
X137300468Y-138144797D01*
X137306500Y-138138319D01*
X137359865Y-138084954D01*
X137442734Y-138002085D01*
X137610838Y-137791289D01*
X137754284Y-137562997D01*
X137806989Y-137453553D01*
X137843285Y-137378185D01*
X137843286Y-137378183D01*
X137871262Y-137320090D01*
X137871263Y-137320087D01*
X137871267Y-137320079D01*
X137960316Y-137065591D01*
X138020312Y-136802732D01*
X138050500Y-136534809D01*
X138050500Y-136265191D01*
X138020312Y-135997268D01*
X137960316Y-135734409D01*
X137949591Y-135703760D01*
X137932606Y-135655218D01*
X137871267Y-135479921D01*
X137754284Y-135237003D01*
X137610838Y-135008711D01*
X137442734Y-134797915D01*
X137252085Y-134607266D01*
X137041289Y-134439162D01*
X137041287Y-134439161D01*
X137041285Y-134439159D01*
X136895646Y-134347648D01*
X138289500Y-134347648D01*
X138289500Y-134552351D01*
X138321522Y-134754534D01*
X138384781Y-134949223D01*
X138437398Y-135052487D01*
X138460803Y-135098423D01*
X138477715Y-135131613D01*
X138598028Y-135297213D01*
X138742786Y-135441971D01*
X138884932Y-135545244D01*
X138908390Y-135562287D01*
X139024607Y-135621503D01*
X139090776Y-135655218D01*
X139090778Y-135655218D01*
X139090781Y-135655220D01*
X139137879Y-135670523D01*
X139285465Y-135718477D01*
X139366691Y-135731342D01*
X139487648Y-135750500D01*
X139487649Y-135750500D01*
X139692351Y-135750500D01*
X139692352Y-135750500D01*
X139894534Y-135718477D01*
X140089219Y-135655220D01*
X140271610Y-135562287D01*
X140412396Y-135460001D01*
X140437213Y-135441971D01*
X140437215Y-135441968D01*
X140437219Y-135441966D01*
X140581966Y-135297219D01*
X140581968Y-135297215D01*
X140581971Y-135297213D01*
X140634732Y-135224590D01*
X140702287Y-135131610D01*
X140795220Y-134949219D01*
X140858477Y-134754534D01*
X140890500Y-134552352D01*
X140890500Y-134347648D01*
X140882235Y-134295465D01*
X140858477Y-134145465D01*
X140795218Y-133950776D01*
X140739471Y-133841368D01*
X140702287Y-133768390D01*
X140690950Y-133752786D01*
X140581971Y-133602786D01*
X140437213Y-133458028D01*
X140271613Y-133337715D01*
X140271612Y-133337714D01*
X140271610Y-133337713D01*
X140196613Y-133299500D01*
X140089223Y-133244781D01*
X139894534Y-133181522D01*
X139719995Y-133153878D01*
X139692352Y-133149500D01*
X139487648Y-133149500D01*
X139463329Y-133153351D01*
X139285465Y-133181522D01*
X139090776Y-133244781D01*
X138908386Y-133337715D01*
X138742786Y-133458028D01*
X138598028Y-133602786D01*
X138477715Y-133768386D01*
X138384781Y-133950776D01*
X138321522Y-134145465D01*
X138289500Y-134347648D01*
X136895646Y-134347648D01*
X136812994Y-134295714D01*
X136570082Y-134178734D01*
X136315602Y-134089687D01*
X136315594Y-134089684D01*
X136118446Y-134044687D01*
X136052732Y-134029688D01*
X136052728Y-134029687D01*
X136052719Y-134029686D01*
X135784813Y-133999500D01*
X135784809Y-133999500D01*
X135515191Y-133999500D01*
X135515186Y-133999500D01*
X135247280Y-134029686D01*
X135247268Y-134029688D01*
X134984405Y-134089684D01*
X134984397Y-134089687D01*
X134729917Y-134178734D01*
X134487005Y-134295714D01*
X134258712Y-134439161D01*
X134047920Y-134607261D01*
X133914801Y-134740380D01*
X133853478Y-134773864D01*
X133783786Y-134768880D01*
X133727853Y-134727008D01*
X133703436Y-134661544D01*
X133703120Y-134652492D01*
X133708137Y-131842759D01*
X133727941Y-131775758D01*
X133780827Y-131730098D01*
X133850003Y-131720278D01*
X133888432Y-131732499D01*
X134050776Y-131815218D01*
X134050778Y-131815218D01*
X134050781Y-131815220D01*
X134155137Y-131849127D01*
X134245465Y-131878477D01*
X134281624Y-131884204D01*
X134447648Y-131910500D01*
X134447649Y-131910500D01*
X134652351Y-131910500D01*
X134652352Y-131910500D01*
X134854534Y-131878477D01*
X135049219Y-131815220D01*
X135231610Y-131722287D01*
X135324590Y-131654732D01*
X135397213Y-131601971D01*
X135397215Y-131601968D01*
X135397219Y-131601966D01*
X135541966Y-131457219D01*
X135541968Y-131457215D01*
X135541971Y-131457213D01*
X135609305Y-131364534D01*
X135662287Y-131291610D01*
X135755220Y-131109219D01*
X135818477Y-130914534D01*
X135850500Y-130712352D01*
X135850500Y-130542648D01*
X136699500Y-130542648D01*
X136699500Y-130747351D01*
X136731522Y-130949534D01*
X136794781Y-131144223D01*
X136887715Y-131326613D01*
X137008028Y-131492213D01*
X137152786Y-131636971D01*
X137296812Y-131741610D01*
X137318390Y-131757287D01*
X137432086Y-131815218D01*
X137500776Y-131850218D01*
X137500778Y-131850218D01*
X137500781Y-131850220D01*
X137587747Y-131878477D01*
X137695465Y-131913477D01*
X137784065Y-131927510D01*
X137897648Y-131945500D01*
X137897649Y-131945500D01*
X138102351Y-131945500D01*
X138102352Y-131945500D01*
X138304534Y-131913477D01*
X138499219Y-131850220D01*
X138681610Y-131757287D01*
X138774590Y-131689732D01*
X138847213Y-131636971D01*
X138847215Y-131636968D01*
X138847219Y-131636966D01*
X138991966Y-131492219D01*
X138991968Y-131492215D01*
X138991971Y-131492213D01*
X139046426Y-131417261D01*
X139112287Y-131326610D01*
X139205220Y-131144219D01*
X139268477Y-130949534D01*
X139300500Y-130747352D01*
X139300500Y-130542648D01*
X139268477Y-130340466D01*
X139257104Y-130305465D01*
X139226991Y-130212786D01*
X139205220Y-130145781D01*
X139205218Y-130145778D01*
X139205218Y-130145776D01*
X139165603Y-130068028D01*
X139112287Y-129963390D01*
X139086858Y-129928390D01*
X138991971Y-129797786D01*
X138847213Y-129653028D01*
X138681613Y-129532715D01*
X138681612Y-129532714D01*
X138681610Y-129532713D01*
X138624653Y-129503691D01*
X138499223Y-129439781D01*
X138304534Y-129376522D01*
X138129995Y-129348878D01*
X138102352Y-129344500D01*
X137897648Y-129344500D01*
X137873329Y-129348351D01*
X137695465Y-129376522D01*
X137500776Y-129439781D01*
X137318386Y-129532715D01*
X137152786Y-129653028D01*
X137008028Y-129797786D01*
X136887715Y-129963386D01*
X136794781Y-130145776D01*
X136731522Y-130340465D01*
X136699500Y-130542648D01*
X135850500Y-130542648D01*
X135850500Y-130507648D01*
X135824021Y-130340466D01*
X135818477Y-130305465D01*
X135766592Y-130145781D01*
X135755220Y-130110781D01*
X135755218Y-130110778D01*
X135755218Y-130110776D01*
X135684757Y-129972490D01*
X135662287Y-129928390D01*
X135613650Y-129861446D01*
X135541971Y-129762786D01*
X135397213Y-129618028D01*
X135231613Y-129497715D01*
X135231612Y-129497714D01*
X135231610Y-129497713D01*
X135136987Y-129449500D01*
X135049223Y-129404781D01*
X134854534Y-129341522D01*
X134679995Y-129313878D01*
X134652352Y-129309500D01*
X134447648Y-129309500D01*
X134423329Y-129313351D01*
X134245465Y-129341522D01*
X134093759Y-129390815D01*
X134050781Y-129404780D01*
X134050778Y-129404781D01*
X134050776Y-129404782D01*
X133892839Y-129485255D01*
X133824169Y-129498151D01*
X133759429Y-129471874D01*
X133719172Y-129414768D01*
X133712545Y-129374557D01*
X133721732Y-124229683D01*
X133741535Y-124162684D01*
X133794421Y-124117024D01*
X133863597Y-124107204D01*
X133902023Y-124119424D01*
X133947685Y-124142690D01*
X134050776Y-124195218D01*
X134050778Y-124195218D01*
X134050781Y-124195220D01*
X134155137Y-124229127D01*
X134245465Y-124258477D01*
X134346557Y-124274488D01*
X134447648Y-124290500D01*
X134447649Y-124290500D01*
X134652351Y-124290500D01*
X134652352Y-124290500D01*
X134854534Y-124258477D01*
X135049219Y-124195220D01*
X135231610Y-124102287D01*
X135324590Y-124034732D01*
X135397213Y-123981971D01*
X135397215Y-123981968D01*
X135397219Y-123981966D01*
X135541966Y-123837219D01*
X135541968Y-123837215D01*
X135541971Y-123837213D01*
X135636858Y-123706610D01*
X135662287Y-123671610D01*
X135755220Y-123489219D01*
X135818477Y-123294534D01*
X135850500Y-123092352D01*
X135850500Y-122922648D01*
X136699500Y-122922648D01*
X136699500Y-123127351D01*
X136731522Y-123329534D01*
X136794781Y-123524223D01*
X136887715Y-123706613D01*
X137008028Y-123872213D01*
X137152786Y-124016971D01*
X137270212Y-124102284D01*
X137318390Y-124137287D01*
X137432086Y-124195218D01*
X137500776Y-124230218D01*
X137500778Y-124230218D01*
X137500781Y-124230220D01*
X137587747Y-124258477D01*
X137695465Y-124293477D01*
X137794224Y-124309119D01*
X137897648Y-124325500D01*
X137897649Y-124325500D01*
X138102351Y-124325500D01*
X138102352Y-124325500D01*
X138304534Y-124293477D01*
X138499219Y-124230220D01*
X138681610Y-124137287D01*
X138774590Y-124069732D01*
X138847213Y-124016971D01*
X138847215Y-124016968D01*
X138847219Y-124016966D01*
X138991966Y-123872219D01*
X138991968Y-123872215D01*
X138991971Y-123872213D01*
X139073439Y-123760080D01*
X139112287Y-123706610D01*
X139205220Y-123524219D01*
X139268477Y-123329534D01*
X139300500Y-123127352D01*
X139300500Y-122922648D01*
X139268477Y-122720466D01*
X139205220Y-122525781D01*
X139205218Y-122525778D01*
X139205218Y-122525776D01*
X139165603Y-122448028D01*
X139112287Y-122343390D01*
X139086858Y-122308390D01*
X138991971Y-122177786D01*
X138847213Y-122033028D01*
X138681613Y-121912715D01*
X138681612Y-121912714D01*
X138681610Y-121912713D01*
X138600158Y-121871211D01*
X138499223Y-121819781D01*
X138304534Y-121756522D01*
X138129995Y-121728878D01*
X138102352Y-121724500D01*
X137897648Y-121724500D01*
X137873329Y-121728351D01*
X137695465Y-121756522D01*
X137500776Y-121819781D01*
X137318386Y-121912715D01*
X137152786Y-122033028D01*
X137008028Y-122177786D01*
X136887715Y-122343386D01*
X136794781Y-122525776D01*
X136731522Y-122720465D01*
X136699500Y-122922648D01*
X135850500Y-122922648D01*
X135850500Y-122887648D01*
X135824021Y-122720466D01*
X135818477Y-122685465D01*
X135766592Y-122525781D01*
X135755220Y-122490781D01*
X135755218Y-122490778D01*
X135755218Y-122490776D01*
X135680118Y-122343386D01*
X135662287Y-122308390D01*
X135654509Y-122297684D01*
X135541971Y-122142786D01*
X135397213Y-121998028D01*
X135231613Y-121877715D01*
X135231612Y-121877714D01*
X135231610Y-121877713D01*
X135157592Y-121839999D01*
X135049223Y-121784781D01*
X134854534Y-121721522D01*
X134672619Y-121692710D01*
X134652352Y-121689500D01*
X134447648Y-121689500D01*
X134427381Y-121692710D01*
X134245465Y-121721522D01*
X134050773Y-121784782D01*
X133906458Y-121858315D01*
X133837789Y-121871211D01*
X133773049Y-121844934D01*
X133732792Y-121787828D01*
X133726164Y-121747614D01*
X133739103Y-114502155D01*
X141750000Y-114502155D01*
X141750000Y-115050000D01*
X142684314Y-115050000D01*
X142679920Y-115054394D01*
X142627259Y-115145606D01*
X142600000Y-115247339D01*
X142600000Y-115352661D01*
X142627259Y-115454394D01*
X142679920Y-115545606D01*
X142684314Y-115550000D01*
X141750000Y-115550000D01*
X141750000Y-116097844D01*
X141756401Y-116157372D01*
X141756403Y-116157379D01*
X141806645Y-116292086D01*
X141806649Y-116292093D01*
X141892809Y-116407187D01*
X141892812Y-116407190D01*
X142007906Y-116493350D01*
X142007913Y-116493354D01*
X142142620Y-116543596D01*
X142142627Y-116543598D01*
X142202155Y-116549999D01*
X142202172Y-116550000D01*
X142750000Y-116550000D01*
X142750000Y-115615686D01*
X142754394Y-115620080D01*
X142845606Y-115672741D01*
X142947339Y-115700000D01*
X143052661Y-115700000D01*
X143154394Y-115672741D01*
X143245606Y-115620080D01*
X143250000Y-115615686D01*
X143250000Y-116550000D01*
X143797828Y-116550000D01*
X143797844Y-116549999D01*
X143857372Y-116543598D01*
X143857379Y-116543596D01*
X143992086Y-116493354D01*
X143992093Y-116493350D01*
X144107187Y-116407190D01*
X144107190Y-116407187D01*
X144193350Y-116292093D01*
X144193354Y-116292086D01*
X144243596Y-116157379D01*
X144243598Y-116157372D01*
X144249999Y-116097844D01*
X144250000Y-116097827D01*
X144250000Y-116033578D01*
X144269685Y-115966539D01*
X144322489Y-115920784D01*
X144391647Y-115910840D01*
X144455203Y-115939865D01*
X144474314Y-115960688D01*
X144586172Y-116114646D01*
X144725354Y-116253828D01*
X144884595Y-116369524D01*
X144958148Y-116407001D01*
X145059970Y-116458882D01*
X145059972Y-116458882D01*
X145059975Y-116458884D01*
X145160317Y-116491487D01*
X145247173Y-116519709D01*
X145441578Y-116550500D01*
X145441583Y-116550500D01*
X145638422Y-116550500D01*
X145832826Y-116519709D01*
X146020025Y-116458884D01*
X146195405Y-116369524D01*
X146354646Y-116253828D01*
X146493828Y-116114646D01*
X146609524Y-115955405D01*
X146698884Y-115780025D01*
X146699515Y-115778787D01*
X146747489Y-115727990D01*
X146815310Y-115711195D01*
X146881445Y-115733732D01*
X146920485Y-115778787D01*
X147010474Y-115955403D01*
X147015523Y-115962352D01*
X147126172Y-116114646D01*
X147265354Y-116253828D01*
X147424595Y-116369524D01*
X147498148Y-116407001D01*
X147599970Y-116458882D01*
X147599972Y-116458882D01*
X147599975Y-116458884D01*
X147700317Y-116491487D01*
X147787173Y-116519709D01*
X147981578Y-116550500D01*
X147981583Y-116550500D01*
X148178422Y-116550500D01*
X148372826Y-116519709D01*
X148560025Y-116458884D01*
X148735405Y-116369524D01*
X148894646Y-116253828D01*
X149033828Y-116114646D01*
X149149524Y-115955405D01*
X149238884Y-115780025D01*
X149299709Y-115592826D01*
X149307210Y-115545465D01*
X149330500Y-115398422D01*
X149330500Y-115201577D01*
X149299709Y-115007173D01*
X149261248Y-114888804D01*
X149238884Y-114819975D01*
X149238882Y-114819972D01*
X149238882Y-114819970D01*
X149161784Y-114668657D01*
X149149524Y-114644595D01*
X149033828Y-114485354D01*
X148894646Y-114346172D01*
X148735405Y-114230476D01*
X148560029Y-114141117D01*
X148372826Y-114080290D01*
X148178422Y-114049500D01*
X148178417Y-114049500D01*
X147981583Y-114049500D01*
X147981578Y-114049500D01*
X147787173Y-114080290D01*
X147599970Y-114141117D01*
X147424594Y-114230476D01*
X147339962Y-114291966D01*
X147265354Y-114346172D01*
X147265352Y-114346174D01*
X147265351Y-114346174D01*
X147126174Y-114485351D01*
X147126174Y-114485352D01*
X147126172Y-114485354D01*
X147076485Y-114553741D01*
X147010476Y-114644594D01*
X146920485Y-114821213D01*
X146872511Y-114872009D01*
X146804690Y-114888804D01*
X146738555Y-114866267D01*
X146699515Y-114821213D01*
X146621784Y-114668657D01*
X146609524Y-114644595D01*
X146493828Y-114485354D01*
X146354646Y-114346172D01*
X146195405Y-114230476D01*
X146020029Y-114141117D01*
X145832826Y-114080290D01*
X145638422Y-114049500D01*
X145638417Y-114049500D01*
X145441583Y-114049500D01*
X145441578Y-114049500D01*
X145247173Y-114080290D01*
X145059970Y-114141117D01*
X144884594Y-114230476D01*
X144799962Y-114291966D01*
X144725354Y-114346172D01*
X144725352Y-114346174D01*
X144725351Y-114346174D01*
X144586174Y-114485351D01*
X144586174Y-114485352D01*
X144586172Y-114485354D01*
X144521265Y-114574690D01*
X144474318Y-114639307D01*
X144418988Y-114681972D01*
X144349374Y-114687951D01*
X144287579Y-114655345D01*
X144253222Y-114594506D01*
X144250000Y-114566421D01*
X144250000Y-114502172D01*
X144249999Y-114502155D01*
X144243598Y-114442627D01*
X144243596Y-114442620D01*
X144193354Y-114307913D01*
X144193350Y-114307906D01*
X144107190Y-114192812D01*
X144107187Y-114192809D01*
X143992093Y-114106649D01*
X143992086Y-114106645D01*
X143857379Y-114056403D01*
X143857372Y-114056401D01*
X143797844Y-114050000D01*
X143250000Y-114050000D01*
X143250000Y-114984314D01*
X143245606Y-114979920D01*
X143154394Y-114927259D01*
X143052661Y-114900000D01*
X142947339Y-114900000D01*
X142845606Y-114927259D01*
X142754394Y-114979920D01*
X142750000Y-114984314D01*
X142750000Y-114050000D01*
X142202155Y-114050000D01*
X142142627Y-114056401D01*
X142142620Y-114056403D01*
X142007913Y-114106645D01*
X142007906Y-114106649D01*
X141892812Y-114192809D01*
X141892809Y-114192812D01*
X141806649Y-114307906D01*
X141806645Y-114307913D01*
X141756403Y-114442620D01*
X141756401Y-114442627D01*
X141750000Y-114502155D01*
X133739103Y-114502155D01*
X133745085Y-111152155D01*
X134220000Y-111152155D01*
X134220000Y-111700000D01*
X135154314Y-111700000D01*
X135149920Y-111704394D01*
X135097259Y-111795606D01*
X135070000Y-111897339D01*
X135070000Y-112002661D01*
X135097259Y-112104394D01*
X135149920Y-112195606D01*
X135154314Y-112200000D01*
X134220000Y-112200000D01*
X134220000Y-112747844D01*
X134226401Y-112807372D01*
X134226403Y-112807379D01*
X134276645Y-112942086D01*
X134276649Y-112942093D01*
X134362809Y-113057187D01*
X134362812Y-113057190D01*
X134477906Y-113143350D01*
X134477913Y-113143354D01*
X134612620Y-113193596D01*
X134612627Y-113193598D01*
X134672155Y-113199999D01*
X134672172Y-113200000D01*
X135220000Y-113200000D01*
X135220000Y-112265686D01*
X135224394Y-112270080D01*
X135315606Y-112322741D01*
X135417339Y-112350000D01*
X135522661Y-112350000D01*
X135624394Y-112322741D01*
X135715606Y-112270080D01*
X135720000Y-112265686D01*
X135720000Y-113200000D01*
X136267828Y-113200000D01*
X136267844Y-113199999D01*
X136327372Y-113193598D01*
X136327379Y-113193596D01*
X136462086Y-113143354D01*
X136462093Y-113143350D01*
X136577187Y-113057190D01*
X136577190Y-113057187D01*
X136663350Y-112942093D01*
X136663354Y-112942086D01*
X136713596Y-112807379D01*
X136713598Y-112807372D01*
X136719999Y-112747844D01*
X136720000Y-112747827D01*
X136720000Y-112683578D01*
X136739685Y-112616539D01*
X136792489Y-112570784D01*
X136861647Y-112560840D01*
X136925203Y-112589865D01*
X136944314Y-112610688D01*
X137056172Y-112764646D01*
X137195354Y-112903828D01*
X137354595Y-113019524D01*
X137428513Y-113057187D01*
X137529970Y-113108882D01*
X137529972Y-113108882D01*
X137529975Y-113108884D01*
X137630317Y-113141487D01*
X137717173Y-113169709D01*
X137911578Y-113200500D01*
X137911583Y-113200500D01*
X138108422Y-113200500D01*
X138302826Y-113169709D01*
X138490025Y-113108884D01*
X138665405Y-113019524D01*
X138824646Y-112903828D01*
X138963828Y-112764646D01*
X139079524Y-112605405D01*
X139168884Y-112430025D01*
X139169515Y-112428787D01*
X139217489Y-112377990D01*
X139285310Y-112361195D01*
X139351445Y-112383732D01*
X139390485Y-112428787D01*
X139480474Y-112605403D01*
X139501935Y-112634941D01*
X139596172Y-112764646D01*
X139735354Y-112903828D01*
X139894595Y-113019524D01*
X139968513Y-113057187D01*
X140069970Y-113108882D01*
X140069972Y-113108882D01*
X140069975Y-113108884D01*
X140170317Y-113141487D01*
X140257173Y-113169709D01*
X140451578Y-113200500D01*
X140451583Y-113200500D01*
X140648422Y-113200500D01*
X140666429Y-113197648D01*
X149139500Y-113197648D01*
X149139500Y-113402351D01*
X149171522Y-113604534D01*
X149234781Y-113799223D01*
X149298691Y-113924653D01*
X149319655Y-113965796D01*
X149327715Y-113981613D01*
X149448028Y-114147213D01*
X149592786Y-114291971D01*
X149747749Y-114404556D01*
X149758390Y-114412287D01*
X149817936Y-114442627D01*
X149940776Y-114505218D01*
X149940778Y-114505218D01*
X149940781Y-114505220D01*
X149984226Y-114519336D01*
X150135465Y-114568477D01*
X150198602Y-114578477D01*
X150337648Y-114600500D01*
X150337649Y-114600500D01*
X150542351Y-114600500D01*
X150542352Y-114600500D01*
X150744534Y-114568477D01*
X150939219Y-114505220D01*
X151121610Y-114412287D01*
X151265270Y-114307913D01*
X151287213Y-114291971D01*
X151287215Y-114291968D01*
X151287219Y-114291966D01*
X151431966Y-114147219D01*
X151431968Y-114147215D01*
X151431971Y-114147213D01*
X151497947Y-114056403D01*
X151552287Y-113981610D01*
X151645220Y-113799219D01*
X151708477Y-113604534D01*
X151740500Y-113402352D01*
X151740500Y-113197648D01*
X156759500Y-113197648D01*
X156759500Y-113402351D01*
X156791522Y-113604534D01*
X156854781Y-113799223D01*
X156918691Y-113924653D01*
X156939655Y-113965796D01*
X156947715Y-113981613D01*
X157068028Y-114147213D01*
X157212786Y-114291971D01*
X157367749Y-114404556D01*
X157378390Y-114412287D01*
X157437936Y-114442627D01*
X157560776Y-114505218D01*
X157560778Y-114505218D01*
X157560781Y-114505220D01*
X157604226Y-114519336D01*
X157755465Y-114568477D01*
X157818602Y-114578477D01*
X157957648Y-114600500D01*
X157957649Y-114600500D01*
X158162351Y-114600500D01*
X158162352Y-114600500D01*
X158364534Y-114568477D01*
X158559219Y-114505220D01*
X158741610Y-114412287D01*
X158885270Y-114307913D01*
X158907213Y-114291971D01*
X158907215Y-114291968D01*
X158907219Y-114291966D01*
X159051966Y-114147219D01*
X159146049Y-114017722D01*
X159201378Y-113975058D01*
X159270991Y-113969079D01*
X159332787Y-114001684D01*
X159346685Y-114017724D01*
X159448028Y-114157213D01*
X159592786Y-114301971D01*
X159744622Y-114412284D01*
X159758390Y-114422287D01*
X159849840Y-114468883D01*
X159851080Y-114469515D01*
X159901876Y-114517490D01*
X159918671Y-114585311D01*
X159896134Y-114651446D01*
X159851080Y-114690485D01*
X159758386Y-114737715D01*
X159592786Y-114858028D01*
X159448028Y-115002786D01*
X159327715Y-115168386D01*
X159234781Y-115350776D01*
X159171522Y-115545465D01*
X159139500Y-115747648D01*
X159139500Y-115952351D01*
X159171522Y-116154534D01*
X159234781Y-116349223D01*
X159298691Y-116474653D01*
X159321649Y-116519709D01*
X159327715Y-116531613D01*
X159448028Y-116697213D01*
X159592786Y-116841971D01*
X159747749Y-116954556D01*
X159758390Y-116962287D01*
X159833929Y-117000776D01*
X159940776Y-117055218D01*
X159940778Y-117055218D01*
X159940781Y-117055220D01*
X160045137Y-117089127D01*
X160135465Y-117118477D01*
X160190912Y-117127259D01*
X160337648Y-117150500D01*
X160337649Y-117150500D01*
X160542351Y-117150500D01*
X160542352Y-117150500D01*
X160744534Y-117118477D01*
X160939219Y-117055220D01*
X161121610Y-116962287D01*
X161214590Y-116894732D01*
X161287213Y-116841971D01*
X161287215Y-116841968D01*
X161287219Y-116841966D01*
X161431966Y-116697219D01*
X161431968Y-116697215D01*
X161431971Y-116697213D01*
X161484732Y-116624590D01*
X161552287Y-116531610D01*
X161645220Y-116349219D01*
X161708477Y-116154534D01*
X161740500Y-115952352D01*
X161740500Y-115747648D01*
X161708477Y-115545466D01*
X161645220Y-115350781D01*
X161645218Y-115350778D01*
X161645218Y-115350776D01*
X161611503Y-115284607D01*
X161552287Y-115168390D01*
X161535734Y-115145606D01*
X161431971Y-115002786D01*
X161287213Y-114858028D01*
X161121614Y-114737715D01*
X161115006Y-114734348D01*
X161028917Y-114690483D01*
X160978123Y-114642511D01*
X160961328Y-114574690D01*
X160983865Y-114508555D01*
X161028917Y-114469516D01*
X161121610Y-114422287D01*
X161217257Y-114352796D01*
X161287213Y-114301971D01*
X161287215Y-114301968D01*
X161287219Y-114301966D01*
X161431966Y-114157219D01*
X161431968Y-114157215D01*
X161431971Y-114157213D01*
X161487858Y-114080290D01*
X161552287Y-113991610D01*
X161645220Y-113809219D01*
X161708477Y-113614534D01*
X161740500Y-113412352D01*
X161740500Y-113207648D01*
X161739289Y-113200000D01*
X161708477Y-113005465D01*
X161651657Y-112830592D01*
X161645220Y-112810781D01*
X161645218Y-112810778D01*
X161645218Y-112810776D01*
X161611503Y-112744607D01*
X161552287Y-112628390D01*
X161524297Y-112589865D01*
X161431971Y-112462786D01*
X161287213Y-112318028D01*
X161121614Y-112197715D01*
X161101984Y-112187713D01*
X161028917Y-112150483D01*
X160978123Y-112102511D01*
X160961328Y-112034690D01*
X160983865Y-111968555D01*
X161028917Y-111929516D01*
X161121610Y-111882287D01*
X161163879Y-111851577D01*
X161287213Y-111761971D01*
X161287215Y-111761968D01*
X161287219Y-111761966D01*
X161431966Y-111617219D01*
X161431968Y-111617215D01*
X161431971Y-111617213D01*
X161488937Y-111538804D01*
X161552287Y-111451610D01*
X161645220Y-111269219D01*
X161708477Y-111074534D01*
X161740500Y-110872352D01*
X161740500Y-110667648D01*
X161733154Y-110621265D01*
X161708477Y-110465465D01*
X161645218Y-110270776D01*
X161605453Y-110192734D01*
X161552287Y-110088390D01*
X161504790Y-110023015D01*
X161431971Y-109922786D01*
X161287217Y-109778032D01*
X161287212Y-109778028D01*
X161193051Y-109709616D01*
X161150385Y-109654286D01*
X161144406Y-109584673D01*
X161177012Y-109522878D01*
X161226933Y-109491592D01*
X161309117Y-109464359D01*
X161309124Y-109464356D01*
X161458345Y-109372315D01*
X161582315Y-109248345D01*
X161674356Y-109099124D01*
X161674358Y-109099119D01*
X161729505Y-108932697D01*
X161729506Y-108932690D01*
X161739999Y-108829986D01*
X161740000Y-108829973D01*
X161740000Y-108480000D01*
X160755686Y-108480000D01*
X160760080Y-108475606D01*
X160812741Y-108384394D01*
X160840000Y-108282661D01*
X160840000Y-108177339D01*
X160826685Y-108127648D01*
X166759500Y-108127648D01*
X166759500Y-108332351D01*
X166791522Y-108534534D01*
X166854781Y-108729223D01*
X166906117Y-108829973D01*
X166942052Y-108900500D01*
X166947715Y-108911613D01*
X167068028Y-109077213D01*
X167212786Y-109221971D01*
X167347823Y-109320079D01*
X167378390Y-109342287D01*
X167469840Y-109388883D01*
X167471080Y-109389515D01*
X167521876Y-109437490D01*
X167538671Y-109505311D01*
X167516134Y-109571446D01*
X167471080Y-109610485D01*
X167378386Y-109657715D01*
X167212786Y-109778028D01*
X167068028Y-109922786D01*
X166947715Y-110088386D01*
X166854781Y-110270776D01*
X166791522Y-110465465D01*
X166759500Y-110667648D01*
X166759500Y-110872351D01*
X166791522Y-111074534D01*
X166854781Y-111269223D01*
X166947715Y-111451613D01*
X167068028Y-111617213D01*
X167212786Y-111761971D01*
X167336121Y-111851577D01*
X167378390Y-111882287D01*
X167469840Y-111928883D01*
X167471080Y-111929515D01*
X167521876Y-111977490D01*
X167538671Y-112045311D01*
X167516134Y-112111446D01*
X167471080Y-112150485D01*
X167378386Y-112197715D01*
X167212786Y-112318028D01*
X167068028Y-112462786D01*
X166947715Y-112628386D01*
X166854781Y-112810776D01*
X166791522Y-113005465D01*
X166759500Y-113207648D01*
X166759500Y-113412351D01*
X166791522Y-113614534D01*
X166854781Y-113809223D01*
X166895683Y-113889496D01*
X166942619Y-113981613D01*
X166947715Y-113991613D01*
X167068028Y-114157213D01*
X167212786Y-114301971D01*
X167364622Y-114412284D01*
X167378390Y-114422287D01*
X167469840Y-114468883D01*
X167471080Y-114469515D01*
X167521876Y-114517490D01*
X167538671Y-114585311D01*
X167516134Y-114651446D01*
X167471080Y-114690485D01*
X167378386Y-114737715D01*
X167212786Y-114858028D01*
X167068028Y-115002786D01*
X166947715Y-115168386D01*
X166854781Y-115350776D01*
X166791522Y-115545465D01*
X166759500Y-115747648D01*
X166759500Y-115952351D01*
X166791522Y-116154534D01*
X166854781Y-116349223D01*
X166918691Y-116474653D01*
X166941649Y-116519709D01*
X166947715Y-116531613D01*
X167068028Y-116697213D01*
X167212786Y-116841971D01*
X167367749Y-116954556D01*
X167378390Y-116962287D01*
X167453929Y-117000776D01*
X167560776Y-117055218D01*
X167560778Y-117055218D01*
X167560781Y-117055220D01*
X167665137Y-117089127D01*
X167755465Y-117118477D01*
X167810912Y-117127259D01*
X167957648Y-117150500D01*
X167957649Y-117150500D01*
X168162351Y-117150500D01*
X168162352Y-117150500D01*
X168364534Y-117118477D01*
X168559219Y-117055220D01*
X168741610Y-116962287D01*
X168834590Y-116894732D01*
X168907213Y-116841971D01*
X168907215Y-116841968D01*
X168907219Y-116841966D01*
X169051966Y-116697219D01*
X169051968Y-116697215D01*
X169051971Y-116697213D01*
X169104732Y-116624590D01*
X169172287Y-116531610D01*
X169265220Y-116349219D01*
X169328477Y-116154534D01*
X169360500Y-115952352D01*
X169360500Y-115757648D01*
X170359500Y-115757648D01*
X170359500Y-115962351D01*
X170391522Y-116164534D01*
X170454781Y-116359223D01*
X170505561Y-116458882D01*
X170542619Y-116531613D01*
X170547715Y-116541613D01*
X170668028Y-116707213D01*
X170812786Y-116851971D01*
X170964622Y-116962284D01*
X170978390Y-116972287D01*
X171094607Y-117031503D01*
X171160776Y-117065218D01*
X171160778Y-117065218D01*
X171160781Y-117065220D01*
X171265137Y-117099127D01*
X171355465Y-117128477D01*
X171437076Y-117141403D01*
X171557648Y-117160500D01*
X171557649Y-117160500D01*
X171762351Y-117160500D01*
X171762352Y-117160500D01*
X171964534Y-117128477D01*
X172159219Y-117065220D01*
X172341610Y-116972287D01*
X172434590Y-116904732D01*
X172507213Y-116851971D01*
X172507215Y-116851968D01*
X172507219Y-116851966D01*
X172651966Y-116707219D01*
X172651968Y-116707215D01*
X172651971Y-116707213D01*
X172704732Y-116634590D01*
X172772287Y-116541610D01*
X172865220Y-116359219D01*
X172928477Y-116164534D01*
X172960500Y-115962352D01*
X172960500Y-115757648D01*
X172928477Y-115555466D01*
X172925273Y-115545606D01*
X172877450Y-115398422D01*
X172865220Y-115360781D01*
X172865218Y-115360778D01*
X172865218Y-115360776D01*
X172784101Y-115201577D01*
X172772287Y-115178390D01*
X172748468Y-115145606D01*
X172651971Y-115012786D01*
X172507213Y-114868028D01*
X172341613Y-114747715D01*
X172341612Y-114747714D01*
X172341610Y-114747713D01*
X172284653Y-114718691D01*
X172159223Y-114654781D01*
X171964534Y-114591522D01*
X171789995Y-114563878D01*
X171762352Y-114559500D01*
X171557648Y-114559500D01*
X171533329Y-114563351D01*
X171355465Y-114591522D01*
X171160776Y-114654781D01*
X170978386Y-114747715D01*
X170812786Y-114868028D01*
X170668028Y-115012786D01*
X170547715Y-115178386D01*
X170454781Y-115360776D01*
X170391522Y-115555465D01*
X170359500Y-115757648D01*
X169360500Y-115757648D01*
X169360500Y-115747648D01*
X169328477Y-115545466D01*
X169265220Y-115350781D01*
X169265218Y-115350778D01*
X169265218Y-115350776D01*
X169231503Y-115284607D01*
X169172287Y-115168390D01*
X169155734Y-115145606D01*
X169051971Y-115002786D01*
X168907213Y-114858028D01*
X168741614Y-114737715D01*
X168735006Y-114734348D01*
X168648917Y-114690483D01*
X168598123Y-114642511D01*
X168581328Y-114574690D01*
X168603865Y-114508555D01*
X168648917Y-114469516D01*
X168741610Y-114422287D01*
X168837257Y-114352796D01*
X168907213Y-114301971D01*
X168907215Y-114301968D01*
X168907219Y-114301966D01*
X169051966Y-114157219D01*
X169051968Y-114157215D01*
X169051971Y-114157213D01*
X169107858Y-114080290D01*
X169172287Y-113991610D01*
X169265220Y-113809219D01*
X169328477Y-113614534D01*
X169354540Y-113449983D01*
X174126901Y-113449983D01*
X174126901Y-114250001D01*
X174126902Y-114250019D01*
X174137401Y-114352796D01*
X174137402Y-114352799D01*
X174181326Y-114485351D01*
X174192587Y-114519334D01*
X174284689Y-114668656D01*
X174408745Y-114792712D01*
X174558067Y-114884814D01*
X174724604Y-114939999D01*
X174827392Y-114950500D01*
X175627409Y-114950499D01*
X175627417Y-114950498D01*
X175627420Y-114950498D01*
X175683703Y-114944748D01*
X175730198Y-114939999D01*
X175896735Y-114884814D01*
X176035865Y-114798997D01*
X176103254Y-114780559D01*
X176157255Y-114794054D01*
X176305141Y-114869407D01*
X176469816Y-114922914D01*
X176640830Y-114950000D01*
X176813972Y-114950000D01*
X176984985Y-114922914D01*
X177149658Y-114869408D01*
X177303926Y-114790803D01*
X177310137Y-114786289D01*
X176668702Y-114144854D01*
X176687905Y-114150000D01*
X176766897Y-114150000D01*
X176843197Y-114129556D01*
X176911606Y-114090060D01*
X176967461Y-114034205D01*
X177006957Y-113965796D01*
X177027401Y-113889496D01*
X177027401Y-113849999D01*
X177080954Y-113849999D01*
X177080954Y-113850000D01*
X177663690Y-114432736D01*
X177668204Y-114426525D01*
X177746809Y-114272257D01*
X177800315Y-114107584D01*
X177827401Y-113936571D01*
X177827401Y-113763428D01*
X177800315Y-113592415D01*
X177746809Y-113427742D01*
X177668202Y-113273471D01*
X177663691Y-113267262D01*
X177663690Y-113267261D01*
X177080954Y-113849999D01*
X177027401Y-113849999D01*
X177027401Y-113810504D01*
X177006957Y-113734204D01*
X176967461Y-113665795D01*
X176911606Y-113609940D01*
X176843197Y-113570444D01*
X176766897Y-113550000D01*
X176687905Y-113550000D01*
X176668701Y-113555145D01*
X177310138Y-112913709D01*
X177303926Y-112909196D01*
X177149660Y-112830592D01*
X176984985Y-112777085D01*
X176813972Y-112750000D01*
X176640830Y-112750000D01*
X176469816Y-112777085D01*
X176305143Y-112830591D01*
X176157254Y-112905946D01*
X176088585Y-112918842D01*
X176035863Y-112901000D01*
X175896741Y-112815189D01*
X175896736Y-112815187D01*
X175896735Y-112815186D01*
X175730198Y-112760001D01*
X175730196Y-112760000D01*
X175627411Y-112749500D01*
X174827399Y-112749500D01*
X174827381Y-112749501D01*
X174724604Y-112760000D01*
X174724601Y-112760001D01*
X174558069Y-112815185D01*
X174558064Y-112815187D01*
X174408743Y-112907289D01*
X174284690Y-113031342D01*
X174192588Y-113180663D01*
X174192586Y-113180668D01*
X174183646Y-113207648D01*
X174137402Y-113347203D01*
X174137402Y-113347204D01*
X174137401Y-113347204D01*
X174126901Y-113449983D01*
X169354540Y-113449983D01*
X169360500Y-113412352D01*
X169360500Y-113207648D01*
X169359289Y-113200000D01*
X169328477Y-113005465D01*
X169271657Y-112830592D01*
X169265220Y-112810781D01*
X169265218Y-112810778D01*
X169265218Y-112810776D01*
X169231503Y-112744607D01*
X169172287Y-112628390D01*
X169144297Y-112589865D01*
X169051971Y-112462786D01*
X168907213Y-112318028D01*
X168741614Y-112197715D01*
X168721984Y-112187713D01*
X168648917Y-112150483D01*
X168598123Y-112102511D01*
X168581328Y-112034690D01*
X168603865Y-111968555D01*
X168648917Y-111929516D01*
X168741610Y-111882287D01*
X168783879Y-111851577D01*
X168907213Y-111761971D01*
X168907215Y-111761968D01*
X168907219Y-111761966D01*
X169051966Y-111617219D01*
X169051968Y-111617215D01*
X169051971Y-111617213D01*
X169108937Y-111538804D01*
X169172287Y-111451610D01*
X169265220Y-111269219D01*
X169328477Y-111074534D01*
X169360500Y-110872352D01*
X169360500Y-110667648D01*
X169353154Y-110621265D01*
X169328477Y-110465465D01*
X169265218Y-110270776D01*
X169225453Y-110192734D01*
X169172287Y-110088390D01*
X169124790Y-110023015D01*
X169051971Y-109922786D01*
X168907213Y-109778028D01*
X168741614Y-109657715D01*
X168734884Y-109654286D01*
X168648917Y-109610483D01*
X168598123Y-109562511D01*
X168581328Y-109494690D01*
X168603865Y-109428555D01*
X168648917Y-109389516D01*
X168741610Y-109342287D01*
X168772177Y-109320079D01*
X168907213Y-109221971D01*
X168907215Y-109221968D01*
X168907219Y-109221966D01*
X169051966Y-109077219D01*
X169051968Y-109077215D01*
X169051971Y-109077213D01*
X169104732Y-109004590D01*
X169172287Y-108911610D01*
X169265220Y-108729219D01*
X169328477Y-108534534D01*
X169360500Y-108332352D01*
X169360500Y-108137648D01*
X170359500Y-108137648D01*
X170359500Y-108342351D01*
X170391522Y-108544534D01*
X170454781Y-108739223D01*
X170501028Y-108829986D01*
X170542619Y-108911613D01*
X170547715Y-108921613D01*
X170668028Y-109087213D01*
X170812786Y-109231971D01*
X170934059Y-109320079D01*
X170978390Y-109352287D01*
X171094607Y-109411503D01*
X171160776Y-109445218D01*
X171160778Y-109445218D01*
X171160781Y-109445220D01*
X171219676Y-109464356D01*
X171355465Y-109508477D01*
X171418602Y-109518477D01*
X171557648Y-109540500D01*
X171557649Y-109540500D01*
X171762351Y-109540500D01*
X171762352Y-109540500D01*
X171964534Y-109508477D01*
X172159219Y-109445220D01*
X172341610Y-109352287D01*
X172434590Y-109284732D01*
X172507213Y-109231971D01*
X172507215Y-109231968D01*
X172507219Y-109231966D01*
X172651966Y-109087219D01*
X172651968Y-109087215D01*
X172651971Y-109087213D01*
X172704732Y-109014590D01*
X172772287Y-108921610D01*
X172865220Y-108739219D01*
X172928477Y-108544534D01*
X172960500Y-108342352D01*
X172960500Y-108137648D01*
X172928477Y-107935466D01*
X172925227Y-107925465D01*
X172868469Y-107750781D01*
X172865220Y-107740781D01*
X172865218Y-107740778D01*
X172865218Y-107740776D01*
X172808788Y-107630028D01*
X172772287Y-107558390D01*
X172749706Y-107527309D01*
X172651971Y-107392786D01*
X172507213Y-107248028D01*
X172341613Y-107127715D01*
X172341612Y-107127714D01*
X172341610Y-107127713D01*
X172263049Y-107087684D01*
X172159223Y-107034781D01*
X171964534Y-106971522D01*
X171789995Y-106943878D01*
X171762352Y-106939500D01*
X171557648Y-106939500D01*
X171533329Y-106943351D01*
X171355465Y-106971522D01*
X171160776Y-107034781D01*
X170978386Y-107127715D01*
X170812786Y-107248028D01*
X170668028Y-107392786D01*
X170547715Y-107558386D01*
X170454781Y-107740776D01*
X170391522Y-107935465D01*
X170359500Y-108137648D01*
X169360500Y-108137648D01*
X169360500Y-108127648D01*
X169352257Y-108075606D01*
X169328477Y-107925465D01*
X169271718Y-107750781D01*
X169265220Y-107730781D01*
X169265218Y-107730778D01*
X169265218Y-107730776D01*
X169231503Y-107664607D01*
X169172287Y-107548390D01*
X169156966Y-107527302D01*
X169051971Y-107382786D01*
X168907213Y-107238028D01*
X168741613Y-107117715D01*
X168741612Y-107117714D01*
X168741610Y-107117713D01*
X168682675Y-107087684D01*
X168559223Y-107024781D01*
X168364534Y-106961522D01*
X168189995Y-106933878D01*
X168162352Y-106929500D01*
X167957648Y-106929500D01*
X167933329Y-106933351D01*
X167755465Y-106961522D01*
X167560776Y-107024781D01*
X167378386Y-107117715D01*
X167212786Y-107238028D01*
X167068028Y-107382786D01*
X166947715Y-107548386D01*
X166854781Y-107730776D01*
X166791522Y-107925465D01*
X166759500Y-108127648D01*
X160826685Y-108127648D01*
X160812741Y-108075606D01*
X160760080Y-107984394D01*
X160755686Y-107980000D01*
X161739999Y-107980000D01*
X161739999Y-107630028D01*
X161739998Y-107630013D01*
X161729505Y-107527302D01*
X161674358Y-107360880D01*
X161674356Y-107360875D01*
X161582315Y-107211654D01*
X161458345Y-107087684D01*
X161309124Y-106995643D01*
X161309119Y-106995641D01*
X161142697Y-106940494D01*
X161142690Y-106940493D01*
X161039986Y-106930000D01*
X160690000Y-106930000D01*
X160690000Y-107914314D01*
X160685606Y-107909920D01*
X160594394Y-107857259D01*
X160492661Y-107830000D01*
X160387339Y-107830000D01*
X160285606Y-107857259D01*
X160194394Y-107909920D01*
X160190000Y-107914314D01*
X160190000Y-106930000D01*
X159840028Y-106930000D01*
X159840012Y-106930001D01*
X159737302Y-106940494D01*
X159570880Y-106995641D01*
X159570875Y-106995643D01*
X159421654Y-107087684D01*
X159297684Y-107211654D01*
X159205643Y-107360875D01*
X159205641Y-107360880D01*
X159150494Y-107527302D01*
X159150493Y-107527309D01*
X159140000Y-107630013D01*
X159140000Y-107980000D01*
X160124314Y-107980000D01*
X160119920Y-107984394D01*
X160067259Y-108075606D01*
X160040000Y-108177339D01*
X160040000Y-108282661D01*
X160067259Y-108384394D01*
X160119920Y-108475606D01*
X160124314Y-108480000D01*
X159140001Y-108480000D01*
X159140001Y-108829986D01*
X159150494Y-108932697D01*
X159205641Y-109099119D01*
X159205643Y-109099124D01*
X159297684Y-109248345D01*
X159421654Y-109372315D01*
X159570875Y-109464356D01*
X159570882Y-109464359D01*
X159653067Y-109491592D01*
X159710512Y-109531364D01*
X159737336Y-109595880D01*
X159725021Y-109664656D01*
X159686949Y-109709616D01*
X159592787Y-109778028D01*
X159592782Y-109778032D01*
X159448028Y-109922786D01*
X159327715Y-110088386D01*
X159234781Y-110270776D01*
X159171522Y-110465465D01*
X159139500Y-110667648D01*
X159139500Y-110872351D01*
X159171522Y-111074534D01*
X159234781Y-111269223D01*
X159327715Y-111451613D01*
X159448028Y-111617213D01*
X159592786Y-111761971D01*
X159716121Y-111851577D01*
X159758390Y-111882287D01*
X159849840Y-111928883D01*
X159851080Y-111929515D01*
X159901876Y-111977490D01*
X159918671Y-112045311D01*
X159896134Y-112111446D01*
X159851080Y-112150485D01*
X159758386Y-112197715D01*
X159592786Y-112318028D01*
X159448032Y-112462782D01*
X159448028Y-112462787D01*
X159353950Y-112592275D01*
X159298620Y-112634941D01*
X159229007Y-112640920D01*
X159167212Y-112608314D01*
X159153313Y-112592275D01*
X159151562Y-112589865D01*
X159051966Y-112452781D01*
X158907219Y-112308034D01*
X158907213Y-112308028D01*
X158741613Y-112187715D01*
X158741612Y-112187714D01*
X158741610Y-112187713D01*
X158668546Y-112150485D01*
X158559223Y-112094781D01*
X158364534Y-112031522D01*
X158182309Y-112002661D01*
X158162352Y-111999500D01*
X157957648Y-111999500D01*
X157937691Y-112002661D01*
X157755465Y-112031522D01*
X157560776Y-112094781D01*
X157378386Y-112187715D01*
X157212786Y-112308028D01*
X157068028Y-112452786D01*
X156947715Y-112618386D01*
X156854781Y-112800776D01*
X156791522Y-112995465D01*
X156759500Y-113197648D01*
X151740500Y-113197648D01*
X151714159Y-113031342D01*
X151708477Y-112995465D01*
X151649901Y-112815189D01*
X151645220Y-112800781D01*
X151645218Y-112800778D01*
X151645218Y-112800776D01*
X151585502Y-112683578D01*
X151552287Y-112618390D01*
X151542851Y-112605403D01*
X151431971Y-112452786D01*
X151287213Y-112308028D01*
X151121613Y-112187715D01*
X151121612Y-112187714D01*
X151121610Y-112187713D01*
X151048546Y-112150485D01*
X150939223Y-112094781D01*
X150744534Y-112031522D01*
X150562309Y-112002661D01*
X150542352Y-111999500D01*
X150337648Y-111999500D01*
X150317691Y-112002661D01*
X150135465Y-112031522D01*
X149940776Y-112094781D01*
X149758386Y-112187715D01*
X149592786Y-112308028D01*
X149448028Y-112452786D01*
X149327715Y-112618386D01*
X149234781Y-112800776D01*
X149171522Y-112995465D01*
X149139500Y-113197648D01*
X140666429Y-113197648D01*
X140842826Y-113169709D01*
X141030025Y-113108884D01*
X141205405Y-113019524D01*
X141364646Y-112903828D01*
X141503828Y-112764646D01*
X141619524Y-112605405D01*
X141708884Y-112430025D01*
X141769709Y-112242826D01*
X141778438Y-112187713D01*
X141800500Y-112048422D01*
X141800500Y-111851577D01*
X141769709Y-111657173D01*
X141708882Y-111469970D01*
X141619523Y-111294594D01*
X141601087Y-111269219D01*
X141503828Y-111135354D01*
X141364646Y-110996172D01*
X141205405Y-110880476D01*
X141189459Y-110872351D01*
X141030029Y-110791117D01*
X140842826Y-110730290D01*
X140648422Y-110699500D01*
X140648417Y-110699500D01*
X140451583Y-110699500D01*
X140451578Y-110699500D01*
X140257173Y-110730290D01*
X140069970Y-110791117D01*
X139894594Y-110880476D01*
X139803741Y-110946485D01*
X139735354Y-110996172D01*
X139735352Y-110996174D01*
X139735351Y-110996174D01*
X139596174Y-111135351D01*
X139596174Y-111135352D01*
X139596172Y-111135354D01*
X139583953Y-111152172D01*
X139480476Y-111294594D01*
X139390485Y-111471213D01*
X139342511Y-111522009D01*
X139274690Y-111538804D01*
X139208555Y-111516267D01*
X139169515Y-111471213D01*
X139079523Y-111294594D01*
X139061087Y-111269219D01*
X138963828Y-111135354D01*
X138824646Y-110996172D01*
X138665405Y-110880476D01*
X138649459Y-110872351D01*
X138490029Y-110791117D01*
X138302826Y-110730290D01*
X138108422Y-110699500D01*
X138108417Y-110699500D01*
X137911583Y-110699500D01*
X137911578Y-110699500D01*
X137717173Y-110730290D01*
X137529970Y-110791117D01*
X137354594Y-110880476D01*
X137263741Y-110946485D01*
X137195354Y-110996172D01*
X137195352Y-110996174D01*
X137195351Y-110996174D01*
X137056174Y-111135351D01*
X137056174Y-111135352D01*
X137056172Y-111135354D01*
X137043953Y-111152172D01*
X136944318Y-111289307D01*
X136888988Y-111331972D01*
X136819374Y-111337951D01*
X136757579Y-111305345D01*
X136723222Y-111244506D01*
X136720000Y-111216421D01*
X136720000Y-111152172D01*
X136719999Y-111152155D01*
X136713598Y-111092627D01*
X136713596Y-111092620D01*
X136663354Y-110957913D01*
X136663350Y-110957906D01*
X136577190Y-110842812D01*
X136577187Y-110842809D01*
X136462093Y-110756649D01*
X136462086Y-110756645D01*
X136327379Y-110706403D01*
X136327372Y-110706401D01*
X136267844Y-110700000D01*
X135720000Y-110700000D01*
X135720000Y-111634314D01*
X135715606Y-111629920D01*
X135624394Y-111577259D01*
X135522661Y-111550000D01*
X135417339Y-111550000D01*
X135315606Y-111577259D01*
X135224394Y-111629920D01*
X135220000Y-111634314D01*
X135220000Y-110700000D01*
X134672155Y-110700000D01*
X134612627Y-110706401D01*
X134612620Y-110706403D01*
X134477913Y-110756645D01*
X134477906Y-110756649D01*
X134362812Y-110842809D01*
X134362809Y-110842812D01*
X134276649Y-110957906D01*
X134276645Y-110957913D01*
X134226403Y-111092620D01*
X134226401Y-111092627D01*
X134220000Y-111152155D01*
X133745085Y-111152155D01*
X133749908Y-108451230D01*
X133769712Y-108384227D01*
X133786222Y-108363777D01*
X135613746Y-106536253D01*
X135675067Y-106502770D01*
X135701265Y-106499936D01*
X142864576Y-106491093D01*
X142931637Y-106510694D01*
X142977457Y-106563441D01*
X142987486Y-106632587D01*
X142958539Y-106696179D01*
X142952408Y-106702773D01*
X142857261Y-106797920D01*
X142689161Y-107008712D01*
X142545714Y-107237005D01*
X142428734Y-107479917D01*
X142339687Y-107734397D01*
X142339684Y-107734405D01*
X142279688Y-107997268D01*
X142279686Y-107997280D01*
X142249500Y-108265186D01*
X142249500Y-108534813D01*
X142279686Y-108802719D01*
X142279688Y-108802731D01*
X142339684Y-109065594D01*
X142339687Y-109065602D01*
X142428734Y-109320082D01*
X142545714Y-109562994D01*
X142545716Y-109562997D01*
X142689162Y-109791289D01*
X142857266Y-110002085D01*
X143047915Y-110192734D01*
X143258711Y-110360838D01*
X143487003Y-110504284D01*
X143729921Y-110621267D01*
X143862471Y-110667648D01*
X143984397Y-110710312D01*
X143984405Y-110710315D01*
X143984408Y-110710315D01*
X143984409Y-110710316D01*
X144247268Y-110770312D01*
X144515187Y-110800499D01*
X144515188Y-110800500D01*
X144515191Y-110800500D01*
X144784812Y-110800500D01*
X144784812Y-110800499D01*
X145052732Y-110770312D01*
X145315591Y-110710316D01*
X145570079Y-110621267D01*
X145812997Y-110504284D01*
X146041289Y-110360838D01*
X146252085Y-110192734D01*
X146442734Y-110002085D01*
X146610838Y-109791289D01*
X146754284Y-109562997D01*
X146871267Y-109320079D01*
X146960316Y-109065591D01*
X147020312Y-108802732D01*
X147050500Y-108534809D01*
X147050500Y-108265191D01*
X147050499Y-108265186D01*
X147050499Y-108265184D01*
X147038272Y-108156659D01*
X147037257Y-108147648D01*
X148549500Y-108147648D01*
X148549500Y-108352351D01*
X148581522Y-108554534D01*
X148644781Y-108749223D01*
X148672046Y-108802732D01*
X148732619Y-108921613D01*
X148737715Y-108931613D01*
X148858028Y-109097213D01*
X149002786Y-109241971D01*
X149110295Y-109320079D01*
X149168390Y-109362287D01*
X149284607Y-109421503D01*
X149350776Y-109455218D01*
X149350778Y-109455218D01*
X149350781Y-109455220D01*
X149455137Y-109489127D01*
X149545465Y-109518477D01*
X149573252Y-109522878D01*
X149747648Y-109550500D01*
X149747649Y-109550500D01*
X149952351Y-109550500D01*
X149952352Y-109550500D01*
X150154534Y-109518477D01*
X150349219Y-109455220D01*
X150531610Y-109362287D01*
X150624590Y-109294732D01*
X150697213Y-109241971D01*
X150697215Y-109241968D01*
X150697219Y-109241966D01*
X150841966Y-109097219D01*
X150841968Y-109097215D01*
X150841971Y-109097213D01*
X150894732Y-109024590D01*
X150962287Y-108931610D01*
X151055220Y-108749219D01*
X151118477Y-108554534D01*
X151150500Y-108352352D01*
X151150500Y-108147648D01*
X156169500Y-108147648D01*
X156169500Y-108352351D01*
X156201522Y-108554534D01*
X156264781Y-108749223D01*
X156292046Y-108802732D01*
X156352619Y-108921613D01*
X156357715Y-108931613D01*
X156478028Y-109097213D01*
X156622786Y-109241971D01*
X156730295Y-109320079D01*
X156788390Y-109362287D01*
X156904607Y-109421503D01*
X156970776Y-109455218D01*
X156970778Y-109455218D01*
X156970781Y-109455220D01*
X157075137Y-109489127D01*
X157165465Y-109518477D01*
X157193252Y-109522878D01*
X157367648Y-109550500D01*
X157367649Y-109550500D01*
X157572351Y-109550500D01*
X157572352Y-109550500D01*
X157774534Y-109518477D01*
X157969219Y-109455220D01*
X158151610Y-109362287D01*
X158244590Y-109294732D01*
X158317213Y-109241971D01*
X158317215Y-109241968D01*
X158317219Y-109241966D01*
X158461966Y-109097219D01*
X158461968Y-109097215D01*
X158461971Y-109097213D01*
X158514732Y-109024590D01*
X158582287Y-108931610D01*
X158675220Y-108749219D01*
X158738477Y-108554534D01*
X158770500Y-108352352D01*
X158770500Y-108147648D01*
X158738477Y-107945466D01*
X158735227Y-107935465D01*
X158675218Y-107750776D01*
X158640765Y-107683159D01*
X158613693Y-107630028D01*
X158582287Y-107568390D01*
X158552435Y-107527302D01*
X158461971Y-107402786D01*
X158317213Y-107258028D01*
X158151613Y-107137715D01*
X158151612Y-107137714D01*
X158151610Y-107137713D01*
X158053423Y-107087684D01*
X157969223Y-107044781D01*
X157774534Y-106981522D01*
X157599995Y-106953878D01*
X157572352Y-106949500D01*
X157367648Y-106949500D01*
X157343329Y-106953351D01*
X157165465Y-106981522D01*
X156970776Y-107044781D01*
X156788386Y-107137715D01*
X156622786Y-107258028D01*
X156478028Y-107402786D01*
X156357715Y-107568386D01*
X156264781Y-107750776D01*
X156201522Y-107945465D01*
X156169500Y-108147648D01*
X151150500Y-108147648D01*
X151140810Y-108086467D01*
X151118477Y-107945465D01*
X151055218Y-107750776D01*
X150993693Y-107630028D01*
X150962287Y-107568390D01*
X150932435Y-107527302D01*
X150841971Y-107402786D01*
X150697213Y-107258028D01*
X150531613Y-107137715D01*
X150531612Y-107137714D01*
X150531610Y-107137713D01*
X150433423Y-107087684D01*
X150349223Y-107044781D01*
X150154534Y-106981522D01*
X149979995Y-106953878D01*
X149952352Y-106949500D01*
X149747648Y-106949500D01*
X149723329Y-106953351D01*
X149545465Y-106981522D01*
X149350776Y-107044781D01*
X149168386Y-107137715D01*
X149002786Y-107258028D01*
X148858028Y-107402786D01*
X148737715Y-107568386D01*
X148644781Y-107750776D01*
X148581522Y-107945465D01*
X148549500Y-108147648D01*
X147037257Y-108147648D01*
X147020313Y-107997280D01*
X147020312Y-107997268D01*
X146960316Y-107734409D01*
X146871267Y-107479921D01*
X146754284Y-107237003D01*
X146610838Y-107008711D01*
X146442734Y-106797915D01*
X146343190Y-106698371D01*
X146309705Y-106637048D01*
X146314689Y-106567356D01*
X146356561Y-106511423D01*
X146422025Y-106487006D01*
X146430704Y-106486690D01*
X174403509Y-106452156D01*
X174470573Y-106471758D01*
G37*
%TD.AperFunction*%
%TD*%
M02*
