%TF.GenerationSoftware,KiCad,Pcbnew,9.0.6*%
%TF.CreationDate,2025-12-23T12:21:06+09:00*%
%TF.ProjectId,ils,696c732e-6b69-4636-9164-5f7063625858,rev?*%
%TF.SameCoordinates,Original*%
%TF.FileFunction,Soldermask,Top*%
%TF.FilePolarity,Negative*%
%FSLAX46Y46*%
G04 Gerber Fmt 4.6, Leading zero omitted, Abs format (unit mm)*
G04 Created by KiCad (PCBNEW 9.0.6) date 2025-12-23 12:21:06*
%MOMM*%
%LPD*%
G01*
G04 APERTURE LIST*
G04 Aperture macros list*
%AMRoundRect*
0 Rectangle with rounded corners*
0 $1 Rounding radius*
0 $2 $3 $4 $5 $6 $7 $8 $9 X,Y pos of 4 corners*
0 Add a 4 corners polygon primitive as box body*
4,1,4,$2,$3,$4,$5,$6,$7,$8,$9,$2,$3,0*
0 Add four circle primitives for the rounded corners*
1,1,$1+$1,$2,$3*
1,1,$1+$1,$4,$5*
1,1,$1+$1,$6,$7*
1,1,$1+$1,$8,$9*
0 Add four rect primitives between the rounded corners*
20,1,$1+$1,$2,$3,$4,$5,0*
20,1,$1+$1,$4,$5,$6,$7,0*
20,1,$1+$1,$6,$7,$8,$9,0*
20,1,$1+$1,$8,$9,$2,$3,0*%
G04 Aperture macros list end*
%ADD10RoundRect,0.250000X-0.350000X-0.350000X0.350000X-0.350000X0.350000X0.350000X-0.350000X0.350000X0*%
%ADD11C,1.200000*%
%ADD12RoundRect,0.250000X0.350000X0.350000X-0.350000X0.350000X-0.350000X-0.350000X0.350000X-0.350000X0*%
%ADD13C,3.800000*%
%ADD14C,2.600000*%
%ADD15C,1.600000*%
%ADD16RoundRect,0.250000X-0.550000X-0.550000X0.550000X-0.550000X0.550000X0.550000X-0.550000X0.550000X0*%
%ADD17R,1.700000X1.700000*%
%ADD18C,1.700000*%
%ADD19RoundRect,0.249999X-0.850001X-0.850001X0.850001X-0.850001X0.850001X0.850001X-0.850001X0.850001X0*%
%ADD20C,2.200000*%
%ADD21RoundRect,0.375000X0.375000X-0.625000X0.375000X0.625000X-0.375000X0.625000X-0.375000X-0.625000X0*%
%ADD22RoundRect,0.500000X1.400000X-0.500000X1.400000X0.500000X-1.400000X0.500000X-1.400000X-0.500000X0*%
%ADD23R,2.000000X2.000000*%
%ADD24C,2.000000*%
%ADD25R,1.500000X1.500000*%
%ADD26C,1.500000*%
G04 APERTURE END LIST*
D10*
%TO.C,C6*%
X161977401Y-132000000D03*
D11*
X163477401Y-132000000D03*
%TD*%
D12*
%TO.C,C5*%
X158450000Y-132000000D03*
D11*
X156950000Y-132000000D03*
%TD*%
D13*
%TO.C,REF\u002A\u002A*%
X176150000Y-108400000D03*
D14*
X176150000Y-108400000D03*
%TD*%
D15*
%TO.C,U2*%
X168060000Y-108230000D03*
X168060000Y-110770000D03*
X168060000Y-113310000D03*
X168060000Y-115850000D03*
X160440000Y-115850000D03*
X160440000Y-113310000D03*
X160440000Y-110770000D03*
D16*
X160440000Y-108230000D03*
%TD*%
D15*
%TO.C,R2*%
X171660000Y-115860000D03*
X171660000Y-108240000D03*
%TD*%
D14*
%TO.C,REF\u002A\u002A*%
X135650000Y-136400000D03*
D13*
X135650000Y-136400000D03*
%TD*%
D15*
%TO.C,C3*%
X150500000Y-137100000D03*
X150500000Y-134600000D03*
%TD*%
%TO.C,C1*%
X177150000Y-117500000D03*
X174650000Y-117500000D03*
%TD*%
D17*
%TO.C,J2*%
X147190000Y-138500000D03*
D18*
X144650000Y-138500000D03*
X142110000Y-138500000D03*
%TD*%
D16*
%TO.C,C4*%
X153544888Y-136750000D03*
D15*
X156044888Y-136750000D03*
%TD*%
D14*
%TO.C,REF\u002A\u002A*%
X161150000Y-136400000D03*
D13*
X161150000Y-136400000D03*
%TD*%
D10*
%TO.C,C2*%
X175227401Y-113850000D03*
D11*
X176727401Y-113850000D03*
%TD*%
D19*
%TO.C,D1*%
X164470000Y-120250000D03*
D20*
X174630000Y-120250000D03*
%TD*%
D21*
%TO.C,U3*%
X157150000Y-128000000D03*
X159450000Y-128000000D03*
D22*
X159450000Y-121700000D03*
D21*
X161750000Y-128000000D03*
%TD*%
D15*
%TO.C,R6*%
X138000000Y-130645000D03*
X138000000Y-123025000D03*
%TD*%
%TO.C,R1*%
X143690000Y-119750000D03*
X151310000Y-119750000D03*
%TD*%
%TO.C,R5*%
X153050000Y-123440000D03*
X153050000Y-131060000D03*
%TD*%
%TO.C,R3*%
X139590000Y-134450000D03*
X147210000Y-134450000D03*
%TD*%
D23*
%TO.C,K1*%
X167120000Y-125870000D03*
D24*
X167120000Y-130950000D03*
X167120000Y-133490000D03*
X167120000Y-136030000D03*
X172200000Y-136030000D03*
X172200000Y-133490000D03*
X172200000Y-130950000D03*
X172200000Y-125870000D03*
%TD*%
D14*
%TO.C,REF\u002A\u002A*%
X144650000Y-108400000D03*
D13*
X144650000Y-108400000D03*
%TD*%
D17*
%TO.C,J1*%
X176900000Y-130940000D03*
D18*
X176900000Y-133480000D03*
X176900000Y-136020000D03*
X176900000Y-138560000D03*
%TD*%
D15*
%TO.C,R8*%
X134550000Y-130610000D03*
X134550000Y-122990000D03*
%TD*%
%TO.C,R4*%
X158060000Y-113300000D03*
X150440000Y-113300000D03*
%TD*%
%TO.C,R7*%
X149850000Y-108250000D03*
X157470000Y-108250000D03*
%TD*%
D25*
%TO.C,Q3*%
X135470000Y-111950000D03*
D26*
X138010000Y-111950000D03*
X140550000Y-111950000D03*
%TD*%
D25*
%TO.C,Q1*%
X135460000Y-118385000D03*
D26*
X138000000Y-118385000D03*
X140540000Y-118385000D03*
%TD*%
D25*
%TO.C,Q2*%
X143000000Y-115300000D03*
D26*
X145540000Y-115300000D03*
X148080000Y-115300000D03*
%TD*%
D16*
%TO.C,U1*%
X141695000Y-123440000D03*
D15*
X141695000Y-125980000D03*
X141695000Y-128520000D03*
X141695000Y-131060000D03*
X149315000Y-131060000D03*
X149315000Y-128520000D03*
X149315000Y-125980000D03*
X149315000Y-123440000D03*
%TD*%
M02*
