M48
; DRILL file {KiCad 9.0.6} date 2025-12-23T12:21:06+0900
; FORMAT={-:-/ absolute / inch / decimal}
; #@! TF.CreationDate,2025-12-23T12:21:06+09:00
; #@! TF.GenerationSoftware,Kicad,Pcbnew,9.0.6
; #@! TF.FileFunction,Plated,1,2,PTH
FMAT,2
INCH
; #@! TA.AperFunction,Plated,PTH,ComponentDrill
T1C0.0236
; #@! TA.AperFunction,Plated,PTH,ComponentDrill
T2C0.0315
; #@! TA.AperFunction,Plated,PTH,ComponentDrill
T3C0.0394
; #@! TA.AperFunction,Plated,PTH,ComponentDrill
T4C0.0433
; #@! TA.AperFunction,Plated,PTH,ComponentDrill
T5C0.0866
%
G90
G05
T1
X6.1791Y-5.1969
X6.2382Y-5.1969
X6.3771Y-5.1969
X6.4361Y-5.1969
X6.8987Y-4.4823
X6.9578Y-4.4823
T2
X5.2972Y-4.8421
X5.2972Y-5.1421
X5.3331Y-4.6608
X5.3335Y-4.4075
X5.4331Y-4.6608
X5.4331Y-4.8435
X5.4331Y-5.1435
X5.4335Y-4.4075
X5.4957Y-5.2933
X5.5331Y-4.6608
X5.5335Y-4.4075
X5.5785Y-4.8598
X5.5785Y-4.9598
X5.5785Y-5.0598
X5.5785Y-5.1598
X5.6299Y-4.5394
X5.6571Y-4.7146
X5.7299Y-4.5394
X5.7957Y-5.2933
X5.8299Y-4.5394
X5.8785Y-4.8598
X5.8785Y-4.9598
X5.8785Y-5.0598
X5.8785Y-5.1598
X5.8996Y-4.2618
X5.9228Y-4.4606
X5.9252Y-5.2992
X5.9252Y-5.3976
X5.9571Y-4.7146
X6.0256Y-4.8598
X6.0256Y-5.1598
X6.0451Y-5.3839
X6.1435Y-5.3839
X6.1996Y-4.2618
X6.2228Y-4.4606
X6.3165Y-4.261
X6.3165Y-4.361
X6.3165Y-4.461
X6.3165Y-4.561
X6.6165Y-4.261
X6.6165Y-4.361
X6.6165Y-4.461
X6.6165Y-4.561
X6.7583Y-4.2614
X6.7583Y-4.5614
X6.876Y-4.626
X6.9744Y-4.626
T3
X5.5949Y-5.4528
X5.6949Y-5.4528
X5.7949Y-5.4528
X6.5795Y-4.9555
X6.5795Y-5.1555
X6.5795Y-5.2555
X6.5795Y-5.3555
X6.7795Y-4.9555
X6.7795Y-5.1555
X6.7795Y-5.2555
X6.7795Y-5.3555
X6.9646Y-5.1551
X6.9646Y-5.2551
X6.9646Y-5.3551
X6.9646Y-5.4551
T4
X6.4752Y-4.7343
X6.8752Y-4.7343
T5
X5.3406Y-5.3701
X5.6949Y-4.2677
X6.3445Y-5.3701
X6.935Y-4.2677
M30
